{
.appVersion = "1342";
DisplayStrings = (

glyphs = (
{
glyphname = .notdef;
lastChange = "2020-07-18 18:41:28 +0000";
layers = (
{
background = {
paths = (
{
closed = 1;
nodes = (
"576 0 LINE",
"576 588 LINE",
"0 588 LINE",
"0 0 LINE"
);
},
{
closed = 1;
nodes = (
"132 492 LINE",
"444 492 LINE",
"444 96 LINE",
"132 96 LINE"
);
}
);
};
layerId = "083550D2-F2E8-44E3-BE3D-E8BDF41EDFC4";
paths = (
{
closed = 1;
nodes = (
"576 0 LINE",
"576 588 LINE",
"0 588 LINE",
"0 0 LINE"
);
},
{
closed = 1;
nodes = (
"132 492 LINE",
"444 492 LINE",
"444 96 LINE",
"132 96 LINE"
);
}
);
width = 576;
},
{
background = {
paths = (
{
closed = 1;
nodes = (
"576 0 LINE",
"576 588 LINE",
"0 588 LINE",
"0 0 LINE"
);
},
{
closed = 1;
nodes = (
"132 492 LINE",
"444 492 LINE",
"444 96 LINE",
"132 96 LINE"
);
}
);
};
layerId = "C39E0A5F-5A43-41B0-A0DD-85C4534CF186";
paths = (
{
closed = 1;
nodes = (
"576 0 LINE",
"576 588 LINE",
"0 588 LINE",
"0 0 LINE"
);
},
{
closed = 1;
nodes = (
"132 492 LINE",
"444 492 LINE",
"444 96 LINE",
"132 96 LINE"
);
}
);
width = 576;
},
{
associatedMasterId = "083550D2-F2E8-44E3-BE3D-E8BDF41EDFC4";
layerId = "73A46DDA-2723-4CA9-98D4-1BCC5D1C0CFE";
paths = (
{
closed = 1;
nodes = (
"0 588 LINE",
"0 0 LINE",
"576 0 LINE",
"576 588 LINE"
);
},
{
closed = 1;
nodes = (
"132 96 LINE",
"132 492 LINE",
"444 492 LINE",
"444 96 LINE"
);
}
);
width = 576;
}
);
leftKerningGroup = .notdef;
rightKerningGroup = .notdef;
},
{
color = 1;
glyphname = A;
lastChange = "2020-07-21 04:38:31 +0000";
layers = (
{
anchors = (
{
name = bottom;
position = "{389, 80}";
},
{
name = ogonek;
position = "{724, 16}";
},
{
name = top;
position = "{392, 588}";
}
);
background = {
anchors = (
{
name = bottom;
position = "{389, 80}";
},
{
name = ogonek;
position = "{724, 16}";
},
{
name = top;
position = "{392, 588}";
}
);
paths = (
{
closed = 1;
nodes = (
"146 0 LINE",
"211 127 LINE",
"569 127 LINE",
"628 0 LINE",
"782 0 LINE",
"490 588 LINE",
"293 588 LINE",
"0 0 LINE"
);
},
{
closed = 1;
nodes = (
"385 498 LINE",
"395 498 LINE",
"532 225 LINE",
"247 225 LINE"
);
}
);
};
layerId = "083550D2-F2E8-44E3-BE3D-E8BDF41EDFC4";
paths = (
{
closed = 1;
nodes = (
"146 0 LINE",
"211 127 LINE",
"569 127 LINE",
"628 0 LINE",
"782 0 LINE",
"490 588 LINE",
"293 588 LINE",
"0 0 LINE"
);
},
{
closed = 1;
nodes = (
"385 498 LINE",
"395 498 LINE",
"532 225 LINE",
"247 225 LINE"
);
}
);
width = 782;
},
{
anchors = (
{
name = bottom;
position = "{430, 60}";
},
{
name = ogonek;
position = "{742, 16}";
},
{
name = top;
position = "{433, 588}";
}
);
background = {
anchors = (
{
name = bottom;
position = "{430, 60}";
},
{
name = ogonek;
position = "{742, 16}";
},
{
name = top;
position = "{433, 588}";
}
);
paths = (
{
closed = 1;
nodes = (
"218 0 LINE",
"273 107 LINE",
"589 107 LINE",
"638 0 LINE",
"853 0 LINE",
"561 588 LINE",
"301 588 LINE",
"8 0 LINE"
);
},
{
closed = 1;
nodes = (
"426 458 LINE",
"436 458 LINE",
"533 245 LINE",
"328 245 LINE"
);
}
);
};
layerId = "C39E0A5F-5A43-41B0-A0DD-85C4534CF186";
paths = (
{
closed = 1;
nodes = (
"218 0 LINE",
"273 107 LINE",
"589 107 LINE",
"638 0 LINE",
"853 0 LINE",
"561 588 LINE",
"301 588 LINE",
"8 0 LINE"
);
},
{
closed = 1;
nodes = (
"426 458 LINE",
"436 458 LINE",
"533 245 LINE",
"328 245 LINE"
);
}
);
width = 861;
},
{
anchors = (
{
name = bottom;
position = "{397, 80}";
},
{
name = ogonek;
position = "{734, 16}";
},
{
name = top;
position = "{400, 588}";
}
);
associatedMasterId = "083550D2-F2E8-44E3-BE3D-E8BDF41EDFC4";
layerId = "73A46DDA-2723-4CA9-98D4-1BCC5D1C0CFE";
paths = (
{
closed = 1;
nodes = (
"303 588 LINE",
"10 0 LINE",
"156 0 LINE",
"221 127 LINE",
"579 127 LINE",
"638 0 LINE",
"792 0 LINE",
"500 588 LINE"
);
},
{
closed = 1;
nodes = (
"395 498 LINE",
"405 498 LINE",
"542 225 LINE",
"257 225 LINE"
);
}
);
width = 802;
}
);
leftKerningGroup = A;
rightKerningGroup = A;
unicode = 0041;
},
{
color = 1;
glyphname = A.alt;
lastChange = "2020-07-18 18:41:28 +0000";
layers = (
{
background = {
paths = (
{
closed = 1;
nodes = (
"905 0 LINE",
"925 40 LINE",
"540 588 LINE",
"400 588 LINE",
"160 237 LINE",
"161 127 LINE",
"20 40 LINE",
"40 0 LINE"
);
},
{
closed = 1;
nodes = (
"205 109 LINE",
"465 465 LINE",
"475 465 LINE",
"731 109 LINE",
"726 99 LINE",
"210 99 LINE"
);
}
);
};
layerId = "083550D2-F2E8-44E3-BE3D-E8BDF41EDFC4";
paths = (
{
closed = 1;
nodes = (
"905 0 LINE",
"925 40 LINE",
"540 588 LINE",
"400 588 LINE",
"160 237 LINE",
"161 127 LINE",
"20 40 LINE",
"40 0 LINE"
);
},
{
closed = 1;
nodes = (
"205 109 LINE",
"465 465 LINE",
"475 465 LINE",
"731 109 LINE",
"726 99 LINE",
"210 99 LINE"
);
}
);
width = 945;
},
{
background = {
paths = (
{
closed = 1;
nodes = (
"967 0 LINE",
"987 40 LINE",
"602 588 LINE",
"401 588 LINE",
"160 237 LINE",
"160 147 LINE",
"20 40 LINE",
"40 0 LINE"
);
},
{
closed = 1;
nodes = (
"299 151 LINE",
"496 454 LINE",
"506 454 LINE",
"700 151 LINE",
"695 141 LINE",
"304 141 LINE"
);
}
);
};
layerId = "C39E0A5F-5A43-41B0-A0DD-85C4534CF186";
paths = (
{
closed = 1;
nodes = (
"967 0 LINE",
"987 40 LINE",
"602 588 LINE",
"401 588 LINE",
"160 237 LINE",
"160 147 LINE",
"20 40 LINE",
"40 0 LINE"
);
},
{
closed = 1;
nodes = (
"299 151 LINE",
"496 454 LINE",
"506 454 LINE",
"700 151 LINE",
"695 141 LINE",
"304 141 LINE"
);
}
);
width = 1007;
},
{
associatedMasterId = "083550D2-F2E8-44E3-BE3D-E8BDF41EDFC4";
layerId = "73A46DDA-2723-4CA9-98D4-1BCC5D1C0CFE";
paths = (
{
closed = 1;
nodes = (
"905 0 LINE",
"925 40 LINE",
"540 588 LINE",
"400 588 LINE",
"160 237 LINE",
"161 127 LINE",
"20 40 LINE",
"40 0 LINE"
);
},
{
closed = 1;
nodes = (
"205 109 LINE",
"465 465 LINE",
"475 465 LINE",
"731 109 LINE",
"726 99 LINE",
"210 99 LINE"
);
}
);
width = 945;
}
);
leftKerningGroup = A.alt;
rightKerningGroup = A.alt;
},
{
glyphname = AE;
lastChange = "2020-07-18 18:41:28 +0000";
layers = (
{
anchors = (
{
name = bottom;
position = "{588, 0}";
},
{
name = top;
position = "{588, 588}";
}
);
background = {
anchors = (
{
name = bottom;
position = "{588, 0}";
},
{
name = top;
position = "{588, 588}";
}
);
components = (
{
name = E;
transform = "{1, 0, 0, 1, 430, 0}";
}
);
paths = (
{
closed = 1;
nodes = (
"156 0 LINE",
"218 137 LINE",
"512 137 LINE",
"512 225 LINE",
"252 225 LINE",
"374 508 LINE",
"512 508 LINE",
"512 588 LINE",
"282 588 LINE",
"10 0 LINE"
);
}
);
};
components = (
{
name = E;
transform = "{1, 0, 0, 1, 430, 0}";
}
);
layerId = "083550D2-F2E8-44E3-BE3D-E8BDF41EDFC4";
paths = (
{
closed = 1;
nodes = (
"156 0 LINE",
"218 137 LINE",
"512 137 LINE",
"512 225 LINE",
"252 225 LINE",
"374 508 LINE",
"512 508 LINE",
"512 588 LINE",
"282 588 LINE",
"10 0 LINE"
);
}
);
width = 1196;
},
{
anchors = (
{
name = bottom;
position = "{588, 0}";
},
{
name = top;
position = "{588, 588}";
}
);
background = {
anchors = (
{
name = bottom;
position = "{588, 0}";
},
{
name = top;
position = "{588, 588}";
}
);
components = (
{
name = E;
transform = "{1, 0, 0, 1, 430, 0}";
}
);
paths = (
{
closed = 1;
nodes = (
"220 0 LINE",
"275 107 LINE",
"546 107 LINE",
"546 245 LINE",
"330 245 LINE",
"428 458 LINE",
"546 458 LINE",
"546 588 LINE",
"303 588 LINE",
"10 0 LINE"
);
}
);
};
components = (
{
name = E;
transform = "{1, 0, 0, 1, 430, 0}";
}
);
layerId = "C39E0A5F-5A43-41B0-A0DD-85C4534CF186";
paths = (
{
closed = 1;
nodes = (
"220 0 LINE",
"275 107 LINE",
"546 107 LINE",
"546 245 LINE",
"330 245 LINE",
"428 458 LINE",
"546 458 LINE",
"546 588 LINE",
"303 588 LINE",
"10 0 LINE"
);
}
);
width = 1216;
},
{
anchors = (
{
name = bottom;
position = "{588, 0}";
},
{
name = top;
position = "{588, 588}";
}
);
associatedMasterId = "083550D2-F2E8-44E3-BE3D-E8BDF41EDFC4";
components = (
{
name = E;
transform = "{1, 0, 0, 1, 430, 0}";
}
);
layerId = "73A46DDA-2723-4CA9-98D4-1BCC5D1C0CFE";
paths = (
{
closed = 1;
nodes = (
"252 225 LINE",
"374 508 LINE",
"512 508 LINE",
"512 588 LINE",
"282 588 LINE",
"10 0 LINE",
"156 0 LINE",
"218 137 LINE",
"512 137 LINE",
"512 225 LINE"
);
}
);
width = 1196;
}
);
leftKerningGroup = A;
leftMetricsKey = A;
rightKerningGroup = E;
rightMetricsKey = E;
unicode = 00C6;
},
{
color = 1;
glyphname = B;
lastChange = "2020-07-18 18:41:28 +0000";
layers = (
{
anchors = (
{
name = bottom;
position = "{478, 0}";
},
{
name = top;
position = "{478, 588}";
}
);
background = {
anchors = (
{
name = bottom;
position = "{478, 0}";
},
{
name = top;
position = "{478, 588}";
}
);
paths = (
{
closed = 1;
nodes = (
"555 0 LINE SMOOTH",
"707 0 OFFCURVE",
"736 89 OFFCURVE",
"736 169 CURVE SMOOTH",
"736 187 LINE SMOOTH",
"736 262 OFFCURVE",
"698 307 OFFCURVE",
"640 326 CURVE",
"666 340 OFFCURVE",
"695 376 OFFCURVE",
"695 431 CURVE SMOOTH",
"695 461 LINE SMOOTH",
"695 531 OFFCURVE",
"640 589 OFFCURVE",
"515 589 CURVE SMOOTH",
"80 589 LINE",
"80 0 LINE"
);
},
{
closed = 1;
nodes = (
"212 255 LINE",
"505 255 LINE SMOOTH",
"576 255 OFFCURVE",
"604 226 OFFCURVE",
"604 185 CURVE SMOOTH",
"604 167 LINE SMOOTH",
"604 123 OFFCURVE",
"577 96 OFFCURVE",
"527 96 CURVE SMOOTH",
"212 96 LINE"
);
},
{
closed = 1;
nodes = (
"212 493 LINE",
"487 493 LINE SMOOTH",
"546 493 OFFCURVE",
"563 458 OFFCURVE",
"563 427 CURVE SMOOTH",
"563 417 LINE SMOOTH",
"563 379 OFFCURVE",
"540 352 OFFCURVE",
"494 353 CURVE SMOOTH",
"212 353 LINE"
);
}
);
};
layerId = "083550D2-F2E8-44E3-BE3D-E8BDF41EDFC4";
paths = (
{
closed = 1;
nodes = (
"555 0 LINE SMOOTH",
"707 0 OFFCURVE",
"736 89 OFFCURVE",
"736 169 CURVE SMOOTH",
"736 187 LINE SMOOTH",
"736 262 OFFCURVE",
"698 307 OFFCURVE",
"640 326 CURVE",
"666 340 OFFCURVE",
"695 376 OFFCURVE",
"695 431 CURVE SMOOTH",
"695 461 LINE SMOOTH",
"695 531 OFFCURVE",
"640 589 OFFCURVE",
"515 589 CURVE SMOOTH",
"80 589 LINE",
"80 0 LINE"
);
},
{
closed = 1;
nodes = (
"212 255 LINE",
"505 255 LINE SMOOTH",
"576 255 OFFCURVE",
"604 226 OFFCURVE",
"604 185 CURVE SMOOTH",
"604 167 LINE SMOOTH",
"604 123 OFFCURVE",
"577 96 OFFCURVE",
"527 96 CURVE SMOOTH",
"212 96 LINE"
);
},
{
closed = 1;
nodes = (
"212 493 LINE",
"487 493 LINE SMOOTH",
"546 493 OFFCURVE",
"563 458 OFFCURVE",
"563 427 CURVE SMOOTH",
"563 417 LINE SMOOTH",
"563 379 OFFCURVE",
"540 352 OFFCURVE",
"494 353 CURVE SMOOTH",
"212 353 LINE"
);
}
);
width = 796;
},
{
anchors = (
{
name = bottom;
position = "{478, 0}";
},
{
name = top;
position = "{478, 588}";
}
);
background = {
anchors = (
{
name = bottom;
position = "{478, 0}";
},
{
name = top;
position = "{478, 588}";
}
);
paths = (
{
closed = 1;
nodes = (
"576 0 LINE SMOOTH",
"728 0 OFFCURVE",
"757 89 OFFCURVE",
"757 169 CURVE SMOOTH",
"757 187 LINE SMOOTH",
"757 262 OFFCURVE",
"719 307 OFFCURVE",
"661 326 CURVE",
"687 340 OFFCURVE",
"716 376 OFFCURVE",
"716 431 CURVE SMOOTH",
"716 461 LINE SMOOTH",
"716 531 OFFCURVE",
"661 589 OFFCURVE",
"536 589 CURVE SMOOTH",
"80 589 LINE",
"80 0 LINE"
);
},
{
closed = 1;
nodes = (
"275 235 LINE",
"504 235 LINE SMOOTH",
"547 235 OFFCURVE",
"562 220 OFFCURVE",
"562 195 CURVE SMOOTH",
"562 177 LINE SMOOTH",
"562 149 OFFCURVE",
"550 137 OFFCURVE",
"516 137 CURVE SMOOTH",
"275 137 LINE"
);
},
{
closed = 1;
nodes = (
"275 452 LINE",
"466 452 LINE SMOOTH",
"513 452 OFFCURVE",
"521 441 OFFCURVE",
"521 413 CURVE SMOOTH",
"521 403 LINE SMOOTH",
"521 378 OFFCURVE",
"510 362 OFFCURVE",
"475 362 CURVE SMOOTH",
"275 362 LINE"
);
}
);
};
layerId = "C39E0A5F-5A43-41B0-A0DD-85C4534CF186";
paths = (
{
closed = 1;
nodes = (
"576 0 LINE SMOOTH",
"728 0 OFFCURVE",
"757 89 OFFCURVE",
"757 169 CURVE SMOOTH",
"757 187 LINE SMOOTH",
"757 262 OFFCURVE",
"719 307 OFFCURVE",
"661 326 CURVE",
"687 340 OFFCURVE",
"716 376 OFFCURVE",
"716 431 CURVE SMOOTH",
"716 461 LINE SMOOTH",
"716 531 OFFCURVE",
"661 589 OFFCURVE",
"536 589 CURVE SMOOTH",
"80 589 LINE",
"80 0 LINE"
);
},
{
closed = 1;
nodes = (
"275 235 LINE",
"504 235 LINE SMOOTH",
"547 235 OFFCURVE",
"562 220 OFFCURVE",
"562 195 CURVE SMOOTH",
"562 177 LINE SMOOTH",
"562 149 OFFCURVE",
"550 137 OFFCURVE",
"516 137 CURVE SMOOTH",
"275 137 LINE"
);
},
{
closed = 1;
nodes = (
"275 452 LINE",
"466 452 LINE SMOOTH",
"513 452 OFFCURVE",
"521 441 OFFCURVE",
"521 413 CURVE SMOOTH",
"521 403 LINE SMOOTH",
"521 378 OFFCURVE",
"510 362 OFFCURVE",
"475 362 CURVE SMOOTH",
"275 362 LINE"
);
}
);
width = 817;
},
{
anchors = (
{
name = bottom;
position = "{478, 0}";
},
{
name = top;
position = "{478, 588}";
}
);
associatedMasterId = "083550D2-F2E8-44E3-BE3D-E8BDF41EDFC4";
layerId = "73A46DDA-2723-4CA9-98D4-1BCC5D1C0CFE";
paths = (
{
closed = 1;
nodes = (
"695 461 LINE",
"695 531 OFFCURVE",
"640 589 OFFCURVE",
"515 589 CURVE",
"80 589 LINE",
"80 0 LINE",
"555 0 LINE",
"707 0 OFFCURVE",
"736 89 OFFCURVE",
"736 169 CURVE",
"736 187 LINE",
"736 262 OFFCURVE",
"698 307 OFFCURVE",
"640 326 CURVE",
"666 340 OFFCURVE",
"695 376 OFFCURVE",
"695 431 CURVE"
);
},
{
closed = 1;
nodes = (
"604 123 OFFCURVE",
"577 96 OFFCURVE",
"527 96 CURVE",
"479 96 OFFCURVE",
"212 96 OFFCURVE",
"212 96 CURVE",
"212 255 LINE",
"212 255 OFFCURVE",
"456 255 OFFCURVE",
"505 255 CURVE",
"576 255 OFFCURVE",
"604 226 OFFCURVE",
"604 185 CURVE",
"604 167 LINE"
);
},
{
closed = 1;
nodes = (
"212 353 LINE",
"212 493 LINE",
"487 493 LINE",
"546 493 OFFCURVE",
"563 458 OFFCURVE",
"563 427 CURVE",
"563 423 OFFCURVE",
"563 422 OFFCURVE",
"563 417 CURVE",
"563 379 OFFCURVE",
"540 352 OFFCURVE",
"494 353 CURVE"
);
}
);
width = 796;
}
);
leftKerningGroup = H;
leftMetricsKey = H;
rightKerningGroup = B;
unicode = 0042;
},
{
color = 1;
glyphname = C;
lastChange = "2020-07-18 18:41:28 +0000";
layers = (
{
anchors = (
{
name = bottom;
position = "{423, 0}";
},
{
name = top;
position = "{423, 588}";
}
);
background = {
anchors = (
{
name = bottom;
position = "{423, 0}";
},
{
name = top;
position = "{423, 588}";
}
);
paths = (
{
closed = 1;
nodes = (
"531 0 LINE SMOOTH",
"697 0 OFFCURVE",
"735 30 OFFCURVE",
"735 41 CURVE",
"694 107 LINE",
"694 107 OFFCURVE",
"626 96 OFFCURVE",
"323 96 CURVE SMOOTH",
"282 96 LINE SMOOTH",
"222 96 OFFCURVE",
"202 122 OFFCURVE",
"202 167 CURVE SMOOTH",
"202 422 LINE SMOOTH",
"202 470 OFFCURVE",
"229 493 OFFCURVE",
"282 493 CURVE SMOOTH",
"333 493 LINE SMOOTH",
"623 493 OFFCURVE",
"676 483 OFFCURVE",
"676 483 CURVE",
"696 566 LINE",
"696 577 OFFCURVE",
"646 589 OFFCURVE",
"554 589 CURVE SMOOTH",
"253 589 LINE SMOOTH",
"124 589 OFFCURVE",
"70 530 OFFCURVE",
"70 402 CURVE SMOOTH",
"70 179 LINE SMOOTH",
"70 61 OFFCURVE",
"110 0 OFFCURVE",
"253 0 CURVE SMOOTH"
);
}
);
};
layerId = "083550D2-F2E8-44E3-BE3D-E8BDF41EDFC4";
paths = (
{
closed = 1;
nodes = (
"531 0 LINE SMOOTH",
"697 0 OFFCURVE",
"735 30 OFFCURVE",
"735 41 CURVE",
"694 107 LINE",
"665 102 OFFCURVE",
"544 96 OFFCURVE",
"323 96 CURVE SMOOTH",
"282 96 LINE SMOOTH",
"222 96 OFFCURVE",
"202 122 OFFCURVE",
"202 167 CURVE SMOOTH",
"202 422 LINE SMOOTH",
"202 470 OFFCURVE",
"229 493 OFFCURVE",
"282 493 CURVE SMOOTH",
"333 493 LINE SMOOTH",
"545 493 OFFCURVE",
"653 487 OFFCURVE",
"676 483 CURVE",
"696 566 LINE",
"696 577 OFFCURVE",
"646 589 OFFCURVE",
"554 589 CURVE SMOOTH",
"253 589 LINE SMOOTH",
"124 589 OFFCURVE",
"70 530 OFFCURVE",
"70 402 CURVE SMOOTH",
"70 179 LINE SMOOTH",
"70 61 OFFCURVE",
"110 0 OFFCURVE",
"253 0 CURVE SMOOTH"
);
}
);
width = 755;
},
{
anchors = (
{
name = bottom;
position = "{423, 0}";
},
{
name = top;
position = "{423, 588}";
}
);
background = {
anchors = (
{
name = bottom;
position = "{423, 0}";
},
{
name = top;
position = "{423, 588}";
}
);
paths = (
{
closed = 1;
nodes = (
"531 0 LINE SMOOTH",
"702 0 OFFCURVE",
"755 30 OFFCURVE",
"755 41 CURVE",
"694 149 LINE",
"694 149 OFFCURVE",
"647 138 OFFCURVE",
"386 138 CURVE SMOOTH",
"345 138 LINE SMOOTH",
"277 138 OFFCURVE",
"265 164 OFFCURVE",
"265 209 CURVE SMOOTH",
"265 380 LINE SMOOTH",
"265 428 OFFCURVE",
"282 451 OFFCURVE",
"345 451 CURVE SMOOTH",
"396 451 LINE SMOOTH",
"598 451 OFFCURVE",
"676 441 OFFCURVE",
"676 441 CURVE",
"707 566 LINE",
"707 577 OFFCURVE",
"657 589 OFFCURVE",
"565 589 CURVE SMOOTH",
"273 589 LINE SMOOTH",
"144 589 OFFCURVE",
"70 526 OFFCURVE",
"70 382 CURVE SMOOTH",
"70 199 LINE SMOOTH",
"70 59 OFFCURVE",
"130 0 OFFCURVE",
"273 0 CURVE SMOOTH"
);
}
);
};
layerId = "C39E0A5F-5A43-41B0-A0DD-85C4534CF186";
paths = (
{
closed = 1;
nodes = (
"531 0 LINE SMOOTH",
"702 0 OFFCURVE",
"755 30 OFFCURVE",
"755 41 CURVE",
"694 149 LINE",
"674 144 OFFCURVE",
"577 138 OFFCURVE",
"386 138 CURVE SMOOTH",
"345 138 LINE SMOOTH",
"277 138 OFFCURVE",
"265 164 OFFCURVE",
"265 209 CURVE SMOOTH",
"265 380 LINE SMOOTH",
"265 428 OFFCURVE",
"282 451 OFFCURVE",
"345 451 CURVE SMOOTH",
"396 451 LINE SMOOTH",
"543 451 OFFCURVE",
"642 445 OFFCURVE",
"676 441 CURVE",
"707 566 LINE",
"707 577 OFFCURVE",
"657 589 OFFCURVE",
"565 589 CURVE SMOOTH",
"273 589 LINE SMOOTH",
"144 589 OFFCURVE",
"70 526 OFFCURVE",
"70 382 CURVE SMOOTH",
"70 199 LINE SMOOTH",
"70 59 OFFCURVE",
"130 0 OFFCURVE",
"273 0 CURVE SMOOTH"
);
}
);
width = 775;
},
{
anchors = (
{
name = bottom;
position = "{413, 0}";
},
{
name = top;
position = "{413, 588}";
}
);
associatedMasterId = "083550D2-F2E8-44E3-BE3D-E8BDF41EDFC4";
layerId = "73A46DDA-2723-4CA9-98D4-1BCC5D1C0CFE";
paths = (
{
closed = 1;
nodes = (
"243 0 OFFCURVE",
"407 0 OFFCURVE",
"541 0 CURVE",
"674 0 OFFCURVE",
"725 10 OFFCURVE",
"725 21 CURVE",
"684 107 LINE",
"684 107 OFFCURVE",
"616 96 OFFCURVE",
"313 96 CURVE",
"272 96 LINE",
"212 96 OFFCURVE",
"192 122 OFFCURVE",
"192 167 CURVE",
"192 422 LINE",
"192 470 OFFCURVE",
"219 493 OFFCURVE",
"272 493 CURVE",
"323 493 LINE",
"613 493 OFFCURVE",
"666 483 OFFCURVE",
"666 483 CURVE",
"686 566 LINE",
"686 577 OFFCURVE",
"636 589 OFFCURVE",
"544 589 CURVE",
"243 589 LINE",
"114 589 OFFCURVE",
"60 530 OFFCURVE",
"60 402 CURVE",
"60 179 LINE",
"60 61 OFFCURVE",
"100 0 OFFCURVE",
"243 0 CURVE"
);
}
);
width = 755;
}
);
leftKerningGroup = O;
leftMetricsKey = O;
rightKerningGroup = C;
unicode = 0043;
},
{
color = 1;
glyphname = D;
lastChange = "2020-07-18 18:41:28 +0000";
layers = (
{
anchors = (
{
name = bottom;
position = "{413, 0}";
},
{
name = center;
position = "{208, 294}";
},
{
name = top;
position = "{413, 588}";
}
);
background = {
anchors = (
{
name = bottom;
position = "{413, 0}";
},
{
name = center;
position = "{208, 294}";
},
{
name = top;
position = "{413, 588}";
}
);
paths = (
{
closed = 1;
nodes = (
"544 0 LINE SMOOTH",
"707 0 OFFCURVE",
"746 59 OFFCURVE",
"746 179 CURVE SMOOTH",
"746 410 LINE SMOOTH",
"746 527 OFFCURVE",
"705 588 OFFCURVE",
"544 588 CURVE SMOOTH",
"80 588 LINE",
"90 508 LINE",
"90 0 LINE"
);
},
{
closed = 1;
nodes = (
"222 492 LINE",
"536 492 LINE SMOOTH",
"595 492 OFFCURVE",
"614 461 OFFCURVE",
"614 422 CURVE SMOOTH",
"614 167 LINE SMOOTH",
"613 119 OFFCURVE",
"585 96 OFFCURVE",
"536 96 CURVE SMOOTH",
"222 96 LINE"
);
}
);
};
layerId = "083550D2-F2E8-44E3-BE3D-E8BDF41EDFC4";
paths = (
{
closed = 1;
nodes = (
"544 0 LINE SMOOTH",
"707 0 OFFCURVE",
"746 59 OFFCURVE",
"746 179 CURVE SMOOTH",
"746 410 LINE SMOOTH",
"746 527 OFFCURVE",
"705 588 OFFCURVE",
"544 588 CURVE SMOOTH",
"80 588 LINE",
"90 508 LINE",
"90 0 LINE"
);
},
{
closed = 1;
nodes = (
"222 492 LINE",
"536 492 LINE SMOOTH",
"595 492 OFFCURVE",
"614 461 OFFCURVE",
"614 422 CURVE SMOOTH",
"614 167 LINE SMOOTH",
"613 119 OFFCURVE",
"585 96 OFFCURVE",
"536 96 CURVE SMOOTH",
"222 96 LINE"
);
}
);
width = 806;
},
{
anchors = (
{
name = bottom;
position = "{413, 0}";
},
{
name = center;
position = "{214, 294}";
},
{
name = top;
position = "{413, 588}";
}
);
background = {
anchors = (
{
name = bottom;
position = "{413, 0}";
},
{
name = center;
position = "{214, 294}";
},
{
name = top;
position = "{413, 588}";
}
);
paths = (
{
closed = 1;
nodes = (
"544 0 LINE SMOOTH",
"707 0 OFFCURVE",
"786 60 OFFCURVE",
"786 199 CURVE SMOOTH",
"786 390 LINE SMOOTH",
"786 526 OFFCURVE",
"705 588 OFFCURVE",
"544 588 CURVE SMOOTH",
"80 588 LINE",
"90 508 LINE",
"90 0 LINE"
);
},
{
closed = 1;
nodes = (
"285 452 LINE",
"514 452 LINE SMOOTH",
"573 452 OFFCURVE",
"592 421 OFFCURVE",
"592 382 CURVE SMOOTH",
"592 209 LINE SMOOTH",
"591 161 OFFCURVE",
"563 138 OFFCURVE",
"514 138 CURVE SMOOTH",
"285 138 LINE"
);
}
);
};
layerId = "C39E0A5F-5A43-41B0-A0DD-85C4534CF186";
paths = (
{
closed = 1;
nodes = (
"544 0 LINE SMOOTH",
"707 0 OFFCURVE",
"786 60 OFFCURVE",
"786 199 CURVE SMOOTH",
"786 390 LINE SMOOTH",
"786 526 OFFCURVE",
"705 588 OFFCURVE",
"544 588 CURVE SMOOTH",
"80 588 LINE",
"90 508 LINE",
"90 0 LINE"
);
},
{
closed = 1;
nodes = (
"285 452 LINE",
"514 452 LINE SMOOTH",
"573 452 OFFCURVE",
"592 421 OFFCURVE",
"592 382 CURVE SMOOTH",
"592 209 LINE SMOOTH",
"591 161 OFFCURVE",
"563 138 OFFCURVE",
"514 138 CURVE SMOOTH",
"285 138 LINE"
);
}
);
width = 846;
},
{
anchors = (
{
name = bottom;
position = "{413, 0}";
},
{
name = center;
position = "{178, 294}";
},
{
name = top;
position = "{413, 588}";
}
);
associatedMasterId = "083550D2-F2E8-44E3-BE3D-E8BDF41EDFC4";
layerId = "73A46DDA-2723-4CA9-98D4-1BCC5D1C0CFE";
paths = (
{
closed = 1;
nodes = (
"544 0 LINE",
"707 0 OFFCURVE",
"746 59 OFFCURVE",
"746 179 CURVE",
"746 410 LINE",
"746 527 OFFCURVE",
"705 588 OFFCURVE",
"544 588 CURVE",
"80 588 LINE",
"90 508 LINE",
"90 0 LINE"
);
},
{
closed = 1;
nodes = (
"222 492 LINE",
"536 492 LINE",
"595 492 OFFCURVE",
"614 461 OFFCURVE",
"614 422 CURVE",
"614 167 LINE",
"613 119 OFFCURVE",
"585 96 OFFCURVE",
"536 96 CURVE",
"222 96 LINE"
);
}
);
width = 826;
}
);
leftKerningGroup = H;
leftMetricsKey = H;
rightKerningGroup = O;
unicode = 0044;
},
{
color = 1;
glyphname = E;
lastChange = "2020-07-18 18:41:28 +0000";
layers = (
{
anchors = (
{
name = bottom;
position = "{413, 0}";
},
{
name = ogonek;
position = "{671, 20}";
},
{
name = top;
position = "{403, 588}";
},
{
name = topleft;
position = "{40, 588}";
}
);
background = {
anchors = (
{
name = bottom;
position = "{413, 0}";
},
{
name = ogonek;
position = "{671, 20}";
},
{
name = top;
position = "{403, 588}";
},
{
name = topleft;
position = "{40, 588}";
}
);
paths = (
{
closed = 1;
nodes = (
"626 0 LINE SMOOTH",
"746 0 OFFCURVE",
"746 11 OFFCURVE",
"746 11 CURVE",
"706 96 LINE",
"212 96 LINE",
"212 255 LINE",
"586 255 LINE",
"586 354 LINE",
"212 354 LINE",
"212 492 LINE",
"702 492 LINE",
"702 588 LINE",
"80 588 LINE",
"80 0 LINE"
);
}
);
};
layerId = "083550D2-F2E8-44E3-BE3D-E8BDF41EDFC4";
paths = (
{
closed = 1;
nodes = (
"626 0 LINE SMOOTH",
"714 0 OFFCURVE",
"746 6 OFFCURVE",
"746 11 CURVE",
"706 96 LINE",
"212 96 LINE",
"212 255 LINE",
"586 255 LINE",
"586 354 LINE",
"212 354 LINE",
"212 492 LINE",
"702 492 LINE",
"702 588 LINE",
"80 588 LINE",
"80 0 LINE"
);
}
);
width = 766;
},
{
anchors = (
{
name = bottom;
position = "{413, 0}";
},
{
name = ogonek;
position = "{671, 10}";
},
{
name = top;
position = "{403, 588}";
},
{
name = topleft;
position = "{40, 588}";
}
);
background = {
anchors = (
{
name = bottom;
position = "{413, 0}";
},
{
name = ogonek;
position = "{671, 10}";
},
{
name = top;
position = "{403, 588}";
},
{
name = topleft;
position = "{40, 588}";
}
);
paths = (
{
closed = 1;
nodes = (
"646 0 LINE SMOOTH",
"766 0 OFFCURVE",
"766 11 OFFCURVE",
"766 11 CURVE",
"706 137 LINE",
"275 137 LINE",
"275 230 LINE",
"606 230 LINE",
"606 369 LINE",
"275 369 LINE",
"275 452 LINE",
"722 452 LINE",
"722 588 LINE",
"80 588 LINE",
"80 0 LINE"
);
}
);
};
layerId = "C39E0A5F-5A43-41B0-A0DD-85C4534CF186";
paths = (
{
closed = 1;
nodes = (
"646 0 LINE SMOOTH",
"734 0 OFFCURVE",
"766 6 OFFCURVE",
"766 11 CURVE",
"706 137 LINE",
"275 137 LINE",
"275 230 LINE",
"606 230 LINE",
"606 369 LINE",
"275 369 LINE",
"275 452 LINE",
"722 452 LINE",
"722 588 LINE",
"80 588 LINE",
"80 0 LINE"
);
}
);
width = 786;
},
{
anchors = (
{
name = bottom;
position = "{363, 0}";
},
{
name = ogonek;
position = "{621, 10}";
},
{
name = top;
position = "{403, 588}";
},
{
name = topleft;
position = "{40, 588}";
}
);
associatedMasterId = "083550D2-F2E8-44E3-BE3D-E8BDF41EDFC4";
layerId = "73A46DDA-2723-4CA9-98D4-1BCC5D1C0CFE";
paths = (
{
closed = 1;
nodes = (
"80 0 OFFCURVE",
"506 0 OFFCURVE",
"626 0 CURVE",
"746 0 OFFCURVE",
"746 11 OFFCURVE",
"746 11 CURVE",
"706 96 LINE",
"606 96 LINE",
"212 96 LINE",
"212 255 LINE",
"586 255 LINE",
"586 354 LINE",
"212 354 LINE",
"212 492 LINE",
"702 492 LINE",
"702 588 LINE",
"80 588 LINE",
"80 0 LINE"
);
}
);
width = 766;
}
);
leftKerningGroup = H;
leftMetricsKey = H;
rightKerningGroup = E;
unicode = 0045;
},
{
color = 1;
glyphname = F;
lastChange = "2020-07-21 04:51:06 +0000";
layers = (
{
anchors = (
{
name = bottom;
position = "{382, 0}";
},
{
name = top;
position = "{382, 588}";
}
);
background = {
anchors = (
{
name = bottom;
position = "{382, 0}";
},
{
name = top;
position = "{382, 588}";
}
);
paths = (
{
closed = 1;
nodes = (
"222 0 LINE",
"222 247 LINE",
"596 247 LINE",
"596 346 LINE",
"222 346 LINE",
"222 492 LINE",
"704 492 LINE",
"704 588 LINE",
"80 588 LINE",
"90 508 LINE",
"90 0 LINE"
);
}
);
};
layerId = "083550D2-F2E8-44E3-BE3D-E8BDF41EDFC4";
paths = (
{
closed = 1;
nodes = (
"222 0 LINE",
"222 247 LINE",
"596 247 LINE",
"596 346 LINE",
"222 346 LINE",
"222 492 LINE",
"704 492 LINE",
"704 588 LINE",
"80 588 LINE",
"90 508 LINE",
"90 0 LINE"
);
}
);
width = 724;
},
{
anchors = (
{
name = bottom;
position = "{362, 0}";
},
{
name = top;
position = "{362, 588}";
}
);
background = {
anchors = (
{
name = bottom;
position = "{362, 0}";
},
{
name = top;
position = "{362, 588}";
}
);
paths = (
{
closed = 1;
nodes = (
"285 0 LINE",
"285 222 LINE",
"616 222 LINE",
"616 361 LINE",
"285 361 LINE",
"285 452 LINE",
"724 452 LINE",
"724 588 LINE",
"80 588 LINE",
"90 508 LINE",
"90 0 LINE"
);
}
);
};
layerId = "C39E0A5F-5A43-41B0-A0DD-85C4534CF186";
paths = (
{
closed = 1;
nodes = (
"285 0 LINE",
"285 222 LINE",
"616 222 LINE",
"616 361 LINE",
"285 361 LINE",
"285 452 LINE",
"724 452 LINE",
"724 588 LINE",
"80 588 LINE",
"90 508 LINE",
"90 0 LINE"
);
}
);
width = 744;
},
{
anchors = (
{
name = bottom;
position = "{362, 0}";
},
{
name = top;
position = "{362, 588}";
}
);
associatedMasterId = "083550D2-F2E8-44E3-BE3D-E8BDF41EDFC4";
layerId = "73A46DDA-2723-4CA9-98D4-1BCC5D1C0CFE";
paths = (
{
closed = 1;
nodes = (
"201 0 LINE",
"202 0 LINE",
"202 247 LINE",
"576 247 LINE",
"576 346 LINE",
"202 346 LINE",
"202 492 LINE",
"684 492 LINE",
"684 588 LINE",
"60 588 LINE",
"70 508 LINE",
"70 0 LINE"
);
}
);
width = 724;
}
);
leftKerningGroup = H;
leftMetricsKey = H;
rightKerningGroup = F;
unicode = 0046;
},
{
color = 1;
glyphname = G;
lastChange = "2020-07-18 18:41:28 +0000";
layers = (
{
anchors = (
{
name = bottom;
position = "{453, 0}";
},
{
name = top;
position = "{453, 588}";
}
);
background = {
anchors = (
{
name = bottom;
position = "{453, 0}";
},
{
name = top;
position = "{453, 588}";
}
);
paths = (
{
closed = 1;
nodes = (
"551 0 LINE SMOOTH",
"684 0 OFFCURVE",
"735 10 OFFCURVE",
"735 21 CURVE",
"725 42 LINE",
"725 323 LINE",
"403 323 LINE",
"403 225 LINE",
"534 235 LINE",
"594 236 LINE",
"594 100 LINE",
"537 98 OFFCURVE",
"451 96 OFFCURVE",
"323 96 CURVE SMOOTH",
"282 96 LINE SMOOTH",
"222 96 OFFCURVE",
"202 122 OFFCURVE",
"202 167 CURVE SMOOTH",
"202 422 LINE SMOOTH",
"202 470 OFFCURVE",
"229 493 OFFCURVE",
"282 493 CURVE SMOOTH",
"333 493 LINE SMOOTH",
"623 493 OFFCURVE",
"676 483 OFFCURVE",
"676 483 CURVE",
"696 566 LINE",
"696 577 OFFCURVE",
"646 589 OFFCURVE",
"554 589 CURVE SMOOTH",
"253 589 LINE SMOOTH",
"124 589 OFFCURVE",
"70 530 OFFCURVE",
"70 402 CURVE SMOOTH",
"70 179 LINE SMOOTH",
"70 61 OFFCURVE",
"110 0 OFFCURVE",
"253 0 CURVE SMOOTH"
);
}
);
};
layerId = "083550D2-F2E8-44E3-BE3D-E8BDF41EDFC4";
paths = (
{
closed = 1;
nodes = (
"551 0 LINE SMOOTH",
"684 0 OFFCURVE",
"735 10 OFFCURVE",
"735 21 CURVE",
"725 42 LINE",
"725 323 LINE",
"403 323 LINE",
"403 225 LINE",
"534 235 LINE",
"594 236 LINE",
"594 100 LINE",
"537 98 OFFCURVE",
"451 96 OFFCURVE",
"323 96 CURVE SMOOTH",
"282 96 LINE SMOOTH",
"222 96 OFFCURVE",
"202 122 OFFCURVE",
"202 167 CURVE SMOOTH",
"202 422 LINE SMOOTH",
"202 470 OFFCURVE",
"229 493 OFFCURVE",
"282 493 CURVE SMOOTH",
"333 493 LINE SMOOTH",
"545 493 OFFCURVE",
"653 487 OFFCURVE",
"676 483 CURVE",
"696 566 LINE",
"696 577 OFFCURVE",
"646 589 OFFCURVE",
"554 589 CURVE SMOOTH",
"253 589 LINE SMOOTH",
"124 589 OFFCURVE",
"70 530 OFFCURVE",
"70 402 CURVE SMOOTH",
"70 179 LINE SMOOTH",
"70 61 OFFCURVE",
"110 0 OFFCURVE",
"253 0 CURVE SMOOTH"
);
}
);
width = 795;
},
{
anchors = (
{
name = bottom;
position = "{463, 0}";
},
{
name = top;
position = "{463, 588}";
}
);
background = {
anchors = (
{
name = bottom;
position = "{463, 0}";
},
{
name = top;
position = "{463, 588}";
}
);
paths = (
{
closed = 1;
nodes = (
"591 0 LINE SMOOTH",
"724 0 OFFCURVE",
"775 10 OFFCURVE",
"775 21 CURVE",
"765 42 LINE",
"765 343 LINE",
"403 343 LINE",
"403 205 LINE",
"534 215 LINE",
"574 216 LINE",
"574 140 LINE",
"536 139 OFFCURVE",
"487 138 OFFCURVE",
"426 138 CURVE SMOOTH",
"345 138 LINE SMOOTH",
"277 138 OFFCURVE",
"265 164 OFFCURVE",
"265 209 CURVE SMOOTH",
"265 380 LINE SMOOTH",
"265 428 OFFCURVE",
"282 451 OFFCURVE",
"345 451 CURVE SMOOTH",
"438 451 LINE SMOOTH",
"640 451 OFFCURVE",
"718 441 OFFCURVE",
"718 441 CURVE",
"749 566 LINE",
"749 577 OFFCURVE",
"699 589 OFFCURVE",
"607 589 CURVE SMOOTH",
"273 589 LINE SMOOTH",
"144 589 OFFCURVE",
"70 526 OFFCURVE",
"70 382 CURVE SMOOTH",
"70 199 LINE SMOOTH",
"70 59 OFFCURVE",
"130 0 OFFCURVE",
"273 0 CURVE SMOOTH"
);
}
);
};
layerId = "C39E0A5F-5A43-41B0-A0DD-85C4534CF186";
paths = (
{
closed = 1;
nodes = (
"591 0 LINE SMOOTH",
"724 0 OFFCURVE",
"775 10 OFFCURVE",
"775 21 CURVE",
"765 42 LINE",
"765 343 LINE",
"403 343 LINE",
"403 205 LINE",
"534 215 LINE",
"574 216 LINE",
"574 140 LINE",
"536 139 OFFCURVE",
"487 138 OFFCURVE",
"426 138 CURVE SMOOTH",
"345 138 LINE SMOOTH",
"277 138 OFFCURVE",
"265 164 OFFCURVE",
"265 209 CURVE SMOOTH",
"265 380 LINE SMOOTH",
"265 428 OFFCURVE",
"282 451 OFFCURVE",
"345 451 CURVE SMOOTH",
"438 451 LINE SMOOTH",
"585 451 OFFCURVE",
"684 445 OFFCURVE",
"718 441 CURVE",
"749 566 LINE",
"749 577 OFFCURVE",
"699 589 OFFCURVE",
"607 589 CURVE SMOOTH",
"273 589 LINE SMOOTH",
"144 589 OFFCURVE",
"70 526 OFFCURVE",
"70 382 CURVE SMOOTH",
"70 199 LINE SMOOTH",
"70 59 OFFCURVE",
"130 0 OFFCURVE",
"273 0 CURVE SMOOTH"
);
}
);
width = 835;
},
{
anchors = (
{
name = bottom;
position = "{433, 0}";
},
{
name = top;
position = "{433, 588}";
}
);
associatedMasterId = "083550D2-F2E8-44E3-BE3D-E8BDF41EDFC4";
layerId = "73A46DDA-2723-4CA9-98D4-1BCC5D1C0CFE";
paths = (
{
closed = 1;
nodes = (
"383 215 LINE",
"514 225 LINE",
"574 226 LINE",
"574 11 LINE",
"705 21 LINE",
"705 233 LINE",
"705 313 LINE",
"383 313 LINE"
);
},
{
closed = 1;
nodes = (
"674 107 OFFCURVE",
"606 96 OFFCURVE",
"303 96 CURVE",
"262 96 LINE",
"202 96 OFFCURVE",
"182 122 OFFCURVE",
"182 167 CURVE",
"182 422 LINE",
"182 470 OFFCURVE",
"209 493 OFFCURVE",
"262 493 CURVE",
"313 493 LINE",
"603 493 OFFCURVE",
"656 483 OFFCURVE",
"656 483 CURVE",
"676 566 LINE",
"676 577 OFFCURVE",
"626 589 OFFCURVE",
"534 589 CURVE",
"233 589 LINE",
"104 589 OFFCURVE",
"50 530 OFFCURVE",
"50 402 CURVE",
"50 179 LINE",
"50 61 OFFCURVE",
"90 0 OFFCURVE",
"233 0 CURVE",
"233 0 OFFCURVE",
"397 0 OFFCURVE",
"531 0 CURVE",
"664 0 OFFCURVE",
"715 10 OFFCURVE",
"715 21 CURVE",
"674 107 LINE"
);
}
);
width = 765;
}
);
leftKerningGroup = O;
leftMetricsKey = O;
rightKerningGroup = G;
unicode = 0047;
},
{
color = 1;
glyphname = H;
lastChange = "2020-07-21 04:30:33 +0000";
layers = (
{
anchors = (
{
name = bottom;
position = "{408, 0}";
},
{
name = center;
position = "{408, 454}";
},
{
name = top;
position = "{408, 588}";
},
{
name = topleft;
position = "{40, 588}";
}
);
background = {
anchors = (
{
name = bottom;
position = "{408, 0}";
},
{
name = center;
position = "{408, 454}";
},
{
name = top;
position = "{408, 588}";
},
{
name = topleft;
position = "{40, 588}";
}
);
paths = (
{
closed = 1;
nodes = (
"212 0 LINE",
"212 248 LINE",
"604 248 LINE",
"604 0 LINE",
"736 0 LINE",
"736 588 LINE",
"604 588 LINE",
"604 344 LINE",
"212 344 LINE",
"212 588 LINE",
"80 588 LINE",
"80 0 LINE"
);
}
);
};
layerId = "083550D2-F2E8-44E3-BE3D-E8BDF41EDFC4";
paths = (
{
closed = 1;
nodes = (
"212 0 LINE",
"212 248 LINE",
"604 248 LINE",
"604 0 LINE",
"736 0 LINE",
"736 588 LINE",
"604 588 LINE",
"604 344 LINE",
"212 344 LINE",
"212 588 LINE",
"80 588 LINE",
"80 0 LINE"
);
}
);
width = 816;
},
{
anchors = (
{
name = bottom;
position = "{428, 0}";
},
{
name = center;
position = "{428, 474}";
},
{
name = top;
position = "{428, 588}";
},
{
name = topleft;
position = "{60, 588}";
}
);
background = {
anchors = (
{
name = bottom;
position = "{428, 0}";
},
{
name = center;
position = "{428, 474}";
},
{
name = top;
position = "{428, 588}";
},
{
name = topleft;
position = "{60, 588}";
}
);
paths = (
{
closed = 1;
nodes = (
"273 0 LINE",
"273 228 LINE",
"584 228 LINE",
"584 0 LINE",
"776 0 LINE",
"776 588 LINE",
"584 588 LINE",
"584 364 LINE",
"273 364 LINE",
"273 588 LINE",
"80 588 LINE",
"80 0 LINE"
);
}
);
};
layerId = "C39E0A5F-5A43-41B0-A0DD-85C4534CF186";
paths = (
{
closed = 1;
nodes = (
"273 0 LINE",
"273 228 LINE",
"584 228 LINE",
"584 0 LINE",
"776 0 LINE",
"776 588 LINE",
"584 588 LINE",
"584 364 LINE",
"273 364 LINE",
"273 588 LINE",
"80 588 LINE",
"80 0 LINE"
);
}
);
width = 856;
},
{
anchors = (
{
name = bottom;
position = "{408, 0}";
},
{
name = center;
position = "{408, 294}";
},
{
name = top;
position = "{408, 588}";
},
{
name = topleft;
position = "{40, 588}";
}
);
associatedMasterId = "083550D2-F2E8-44E3-BE3D-E8BDF41EDFC4";
layerId = "73A46DDA-2723-4CA9-98D4-1BCC5D1C0CFE";
paths = (
{
closed = 1;
nodes = (
"212 0 LINE",
"212 248 LINE",
"604 248 LINE",
"604 0 LINE",
"736 0 LINE",
"736 588 LINE",
"604 588 LINE",
"604 344 LINE",
"212 344 LINE",
"212 450 OFFCURVE",
"212 588 OFFCURVE",
"212 588 CURVE",
"80 588 LINE",
"80 0 LINE"
);
}
);
width = 816;
}
);
leftKerningGroup = H;
rightKerningGroup = H;
unicode = 0048;
},
{
color = 1;
glyphname = I;
lastChange = "2020-07-21 04:25:00 +0000";
layers = (
{
anchors = (
{
name = bottom;
position = "{146, 0}";
},
{
name = ogonek;
position = "{211, 14}";
},
{
name = top;
position = "{146, 588}";
},
{
name = topleft;
position = "{40, 588}";
}
);
background = {
anchors = (
{
name = bottom;
position = "{146, 0}";
},
{
name = ogonek;
position = "{184, 15}";
},
{
name = top;
position = "{146, 588}";
},
{
name = topleft;
position = "{40, 588}";
}
);
paths = (
{
closed = 1;
nodes = (
"212 0 LINE",
"212 588 LINE",
"80 588 LINE",
"80 0 LINE"
);
}
);
};
layerId = "083550D2-F2E8-44E3-BE3D-E8BDF41EDFC4";
paths = (
{
closed = 1;
nodes = (
"212 0 LINE",
"212 588 LINE",
"80 588 LINE",
"80 0 LINE"
);
}
);
width = 292;
},
{
anchors = (
{
name = bottom;
position = "{176, 0}";
},
{
name = ogonek;
position = "{234, 15}";
},
{
name = top;
position = "{176, 588}";
},
{
name = topleft;
position = "{40, 588}";
}
);
background = {
anchors = (
{
name = bottom;
position = "{176, 0}";
},
{
name = ogonek;
position = "{194, 15}";
},
{
name = top;
position = "{176, 588}";
},
{
name = topleft;
position = "{40, 588}";
}
);
paths = (
{
closed = 1;
nodes = (
"272 0 LINE",
"272 588 LINE",
"80 588 LINE",
"80 0 LINE"
);
}
);
};
layerId = "C39E0A5F-5A43-41B0-A0DD-85C4534CF186";
paths = (
{
closed = 1;
nodes = (
"272 0 LINE",
"272 588 LINE",
"80 588 LINE",
"80 0 LINE"
);
}
);
width = 352;
},
{
anchors = (
{
name = bottom;
position = "{146, 0}";
},
{
name = ogonek;
position = "{184, 15}";
},
{
name = top;
position = "{146, 588}";
},
{
name = topleft;
position = "{40, 588}";
}
);
associatedMasterId = "083550D2-F2E8-44E3-BE3D-E8BDF41EDFC4";
layerId = "73A46DDA-2723-4CA9-98D4-1BCC5D1C0CFE";
paths = (
{
closed = 1;
nodes = (
"80 0 OFFCURVE",
"167 0 OFFCURVE",
"212 0 CURVE",
"212 160 OFFCURVE",
"212 588 OFFCURVE",
"212 588 CURVE",
"80 588 LINE",
"80 0 LINE"
);
}
);
width = 292;
}
);
leftKerningGroup = H;
leftMetricsKey = H;
rightKerningGroup = H;
rightMetricsKey = H;
unicode = 0049;
},
{
color = 1;
glyphname = J;
lastChange = "2020-07-21 04:41:12 +0000";
layers = (
{
anchors = (
{
name = bottom;
position = "{316, 0}";
},
{
name = top;
position = "{506, 588}";
}
);
background = {
anchors = (
{
name = bottom;
position = "{316, 0}";
},
{
name = top;
position = "{506, 588}";
}
);
paths = (
{
closed = 1;
nodes = (
"401 0 LINE SMOOTH",
"559 0 OFFCURVE",
"582 78 OFFCURVE",
"582 179 CURVE SMOOTH",
"582 588 LINE",
"442 588 LINE",
"450 508 LINE",
"450 167 LINE SMOOTH",
"450 132 OFFCURVE",
"435 96 OFFCURVE",
"373 96 CURVE SMOOTH",
"277 96 LINE SMOOTH",
"164 96 OFFCURVE",
"99 101 OFFCURVE",
"60 118 CURVE",
"10 41 LINE",
"10 9 OFFCURVE",
"128 0 OFFCURVE",
"272 0 CURVE SMOOTH"
);
}
);
};
layerId = "083550D2-F2E8-44E3-BE3D-E8BDF41EDFC4";
paths = (
{
closed = 1;
nodes = (
"401 0 LINE SMOOTH",
"559 0 OFFCURVE",
"582 78 OFFCURVE",
"582 179 CURVE SMOOTH",
"582 588 LINE",
"442 588 LINE",
"450 508 LINE",
"450 167 LINE SMOOTH",
"450 132 OFFCURVE",
"435 96 OFFCURVE",
"373 96 CURVE SMOOTH",
"277 96 LINE SMOOTH",
"164 96 OFFCURVE",
"99 101 OFFCURVE",
"60 118 CURVE",
"10 41 LINE",
"10 9 OFFCURVE",
"128 0 OFFCURVE",
"272 0 CURVE SMOOTH"
);
}
);
width = 662;
},
{
anchors = (
{
name = bottom;
position = "{316, 0}";
},
{
name = top;
position = "{506, 588}";
}
);
background = {
anchors = (
{
name = bottom;
position = "{316, 0}";
},
{
name = top;
position = "{506, 588}";
}
);
paths = (
{
closed = 1;
nodes = (
"421 0 LINE SMOOTH",
"579 0 OFFCURVE",
"602 78 OFFCURVE",
"602 179 CURVE SMOOTH",
"602 588 LINE",
"399 588 LINE",
"407 508 LINE",
"407 209 LINE SMOOTH",
"407 174 OFFCURVE",
"392 138 OFFCURVE",
"330 138 CURVE SMOOTH",
"297 138 LINE SMOOTH",
"184 138 OFFCURVE",
"119 143 OFFCURVE",
"80 160 CURVE",
"10 41 LINE",
"10 9 OFFCURVE",
"128 0 OFFCURVE",
"272 0 CURVE SMOOTH"
);
}
);
};
layerId = "C39E0A5F-5A43-41B0-A0DD-85C4534CF186";
paths = (
{
closed = 1;
nodes = (
"421 0 LINE SMOOTH",
"579 0 OFFCURVE",
"602 78 OFFCURVE",
"602 179 CURVE SMOOTH",
"602 588 LINE",
"399 588 LINE",
"407 508 LINE",
"407 209 LINE SMOOTH",
"407 174 OFFCURVE",
"392 138 OFFCURVE",
"330 138 CURVE SMOOTH",
"297 138 LINE SMOOTH",
"184 138 OFFCURVE",
"119 143 OFFCURVE",
"80 160 CURVE",
"10 41 LINE",
"10 9 OFFCURVE",
"128 0 OFFCURVE",
"272 0 CURVE SMOOTH"
);
}
);
width = 667;
},
{
anchors = (
{
name = bottom;
position = "{316, 0}";
},
{
name = top;
position = "{506, 588}";
}
);
associatedMasterId = "083550D2-F2E8-44E3-BE3D-E8BDF41EDFC4";
layerId = "73A46DDA-2723-4CA9-98D4-1BCC5D1C0CFE";
paths = (
{
closed = 1;
nodes = (
"450 167 LINE",
"450 132 OFFCURVE",
"435 96 OFFCURVE",
"373 96 CURVE",
"277 96 LINE",
"164 96 OFFCURVE",
"99 101 OFFCURVE",
"60 118 CURVE",
"10 41 LINE",
"10 9 OFFCURVE",
"128 0 OFFCURVE",
"272 0 CURVE",
"401 0 LINE",
"559 0 OFFCURVE",
"582 78 OFFCURVE",
"582 179 CURVE",
"582 588 LINE",
"442 588 LINE",
"450 508 LINE"
);
}
);
width = 662;
}
);
leftKerningGroup = J;
rightKerningGroup = J;
rightMetricsKey = "=H-15";
unicode = 004A;
},
{
color = 8;
glyphname = K;
lastChange = "2020-07-21 04:33:17 +0000";
layers = (
{
anchors = (
{
name = bottom;
position = "{383, 70}";
},
{
name = top;
position = "{423, 588}";
}
);
background = {
anchors = (
{
name = bottom;
position = "{383, 70}";
},
{
name = top;
position = "{423, 588}";
}
);
paths = (
{
closed = 1;
nodes = (
"758 -10 OFFCURVE",
"768 0 OFFCURVE",
"768 0 CURVE",
"788 81 LINE",
"775 81 OFFCURVE",
"712 87 OFFCURVE",
"642 151 CURVE SMOOTH",
"600 189 OFFCURVE",
"572 215 OFFCURVE",
"539 242 CURVE SMOOTH",
"495 278 OFFCURVE",
"470 294 OFFCURVE",
"434 306 CURVE",
"479 346 OFFCURVE",
"650 528 OFFCURVE",
"650 528 CURVE",
"691 588 LINE",
"529 588 LINE SMOOTH",
"529 588 OFFCURVE",
"412 430 OFFCURVE",
"335 353 CURVE SMOOTH",
"320 338 OFFCURVE",
"305 332 OFFCURVE",
"278 332 CURVE SMOOTH",
"222 332 LINE",
"222 588 LINE",
"80 588 LINE",
"90 508 LINE",
"90 0 LINE",
"222 0 LINE",
"222 234 LINE",
"269 234 LINE SMOOTH",
"364 234 OFFCURVE",
"408 207 OFFCURVE",
"459 156 CURVE SMOOTH",
"494 122 OFFCURVE",
"526 90 OFFCURVE",
"551 64 CURVE SMOOTH",
"597 18 OFFCURVE",
"641 -10 OFFCURVE",
"707 -10 CURVE SMOOTH"
);
}
);
};
layerId = "083550D2-F2E8-44E3-BE3D-E8BDF41EDFC4";
paths = (
{
closed = 1;
nodes = (
"744 -10 OFFCURVE",
"764 -4 OFFCURVE",
"768 0 CURVE",
"788 81 LINE",
"775 81 OFFCURVE",
"712 87 OFFCURVE",
"642 151 CURVE SMOOTH",
"600 189 OFFCURVE",
"572 215 OFFCURVE",
"539 242 CURVE SMOOTH",
"495 278 OFFCURVE",
"470 294 OFFCURVE",
"434 306 CURVE",
"467 335 OFFCURVE",
"576 450 OFFCURVE",
"650 528 CURVE",
"691 588 LINE",
"529 588 LINE",
"479 520 OFFCURVE",
"391 409 OFFCURVE",
"335 353 CURVE SMOOTH",
"320 338 OFFCURVE",
"305 332 OFFCURVE",
"278 332 CURVE SMOOTH",
"222 332 LINE",
"222 588 LINE",
"80 588 LINE",
"90 508 LINE",
"90 0 LINE",
"222 0 LINE",
"222 234 LINE",
"269 234 LINE SMOOTH",
"364 234 OFFCURVE",
"408 207 OFFCURVE",
"459 156 CURVE SMOOTH",
"494 122 OFFCURVE",
"526 90 OFFCURVE",
"551 64 CURVE SMOOTH",
"597 18 OFFCURVE",
"641 -10 OFFCURVE",
"707 -10 CURVE SMOOTH"
);
}
);
width = 798;
},
{
anchors = (
{
name = bottom;
position = "{423, 40}";
},
{
name = top;
position = "{423, 588}";
}
);
background = {
anchors = (
{
name = bottom;
position = "{423, 40}";
},
{
name = top;
position = "{423, 588}";
}
);
paths = (
{
closed = 1;
nodes = (
"778 -10 OFFCURVE",
"808 0 OFFCURVE",
"808 0 CURVE",
"848 111 LINE",
"833 111 OFFCURVE",
"776 118 OFFCURVE",
"704 174 CURVE SMOOTH",
"669 201 OFFCURVE",
"649 219 OFFCURVE",
"616 245 CURVE SMOOTH",
"580 273 OFFCURVE",
"553 295 OFFCURVE",
"512 312 CURVE",
"565 361 OFFCURVE",
"723 528 OFFCURVE",
"723 528 CURVE",
"764 588 LINE",
"519 588 LINE SMOOTH",
"519 588 OFFCURVE",
"424 448 OFFCURVE",
"359 378 CURVE SMOOTH",
"344 362 OFFCURVE",
"334 357 OFFCURVE",
"312 357 CURVE SMOOTH",
"282 357 LINE",
"282 588 LINE",
"80 588 LINE",
"90 508 LINE",
"90 0 LINE",
"282 0 LINE",
"282 219 LINE",
"292 219 LINE SMOOTH",
"377 219 OFFCURVE",
"428 187 OFFCURVE",
"479 136 CURVE SMOOTH",
"551 64 LINE SMOOTH",
"597 18 OFFCURVE",
"661 -10 OFFCURVE",
"727 -10 CURVE SMOOTH"
);
}
);
};
layerId = "C39E0A5F-5A43-41B0-A0DD-85C4534CF186";
paths = (
{
closed = 1;
nodes = (
"764 -10 OFFCURVE",
"795 -4 OFFCURVE",
"808 0 CURVE",
"848 111 LINE",
"833 111 OFFCURVE",
"776 118 OFFCURVE",
"704 174 CURVE SMOOTH",
"669 201 OFFCURVE",
"649 219 OFFCURVE",
"616 245 CURVE SMOOTH",
"580 273 OFFCURVE",
"553 295 OFFCURVE",
"512 312 CURVE",
"551 348 OFFCURVE",
"655 456 OFFCURVE",
"723 528 CURVE",
"764 588 LINE",
"519 588 LINE",
"478 528 OFFCURVE",
"406 429 OFFCURVE",
"359 378 CURVE SMOOTH",
"344 362 OFFCURVE",
"334 357 OFFCURVE",
"312 357 CURVE SMOOTH",
"282 357 LINE",
"282 588 LINE",
"80 588 LINE",
"90 508 LINE",
"90 0 LINE",
"282 0 LINE",
"282 219 LINE",
"292 219 LINE SMOOTH",
"377 219 OFFCURVE",
"428 187 OFFCURVE",
"479 136 CURVE SMOOTH",
"503 112 OFFCURVE",
"527 88 OFFCURVE",
"551 64 CURVE SMOOTH",
"597 18 OFFCURVE",
"661 -10 OFFCURVE",
"727 -10 CURVE SMOOTH"
);
}
);
width = 858;
},
{
anchors = (
{
name = bottom;
position = "{363, 70}";
},
{
name = top;
position = "{423, 588}";
}
);
associatedMasterId = "083550D2-F2E8-44E3-BE3D-E8BDF41EDFC4";
layerId = "73A46DDA-2723-4CA9-98D4-1BCC5D1C0CFE";
paths = (
{
closed = 1;
nodes = (
"487 360 OFFCURVE",
"650 528 OFFCURVE",
"650 528 CURVE",
"691 588 LINE",
"529 588 LINE",
"529 588 OFFCURVE",
"406 430 OFFCURVE",
"329 353 CURVE",
"314 338 OFFCURVE",
"299 332 OFFCURVE",
"272 332 CURVE",
"222 332 LINE",
"222 588 LINE",
"80 588 LINE",
"90 508 LINE",
"90 0 LINE",
"90 0 OFFCURVE",
"175 0 OFFCURVE",
"222 0 CURVE",
"222 234 LINE",
"269 234 LINE",
"354 234 OFFCURVE",
"408 207 OFFCURVE",
"459 156 CURVE",
"494 122 OFFCURVE",
"526 90 OFFCURVE",
"551 64 CURVE",
"597 18 OFFCURVE",
"641 -10 OFFCURVE",
"707 -10 CURVE",
"758 -10 OFFCURVE",
"768 0 OFFCURVE",
"768 0 CURVE",
"788 81 LINE",
"775 81 OFFCURVE",
"701 85 OFFCURVE",
"632 153 CURVE",
"601 184 OFFCURVE",
"564 222 OFFCURVE",
"549 237 CURVE",
"505 281 OFFCURVE",
"460 305 OFFCURVE",
"438 311 CURVE"
);
}
);
width = 816;
}
);
leftKerningGroup = H;
leftMetricsKey = H;
rightKerningGroup = K;
unicode = 004B;
},
{
color = 1;
glyphname = L;
lastChange = "2020-07-21 04:42:28 +0000";
layers = (
{
anchors = (
{
name = bottom;
position = "{403, 0}";
},
{
name = center;
position = "{161, 314}";
},
{
name = top;
position = "{373, 588}";
},
{
name = topright;
position = "{440, 588}";
}
);
background = {
anchors = (
{
name = bottom;
position = "{403, 0}";
},
{
name = center;
position = "{161, 314}";
},
{
name = top;
position = "{413, 588}";
},
{
name = topright;
position = "{756, 588}";
}
);
paths = (
{
closed = 1;
nodes = (
"556 0 LINE SMOOTH",
"676 0 OFFCURVE",
"676 11 OFFCURVE",
"676 11 CURVE",
"636 96 LINE",
"222 96 LINE",
"222 588 LINE",
"90 588 LINE",
"90 80 LINE",
"80 0 LINE"
);
}
);
};
layerId = "083550D2-F2E8-44E3-BE3D-E8BDF41EDFC4";
paths = (
{
closed = 1;
nodes = (
"556 0 LINE SMOOTH",
"644 0 OFFCURVE",
"676 6 OFFCURVE",
"676 11 CURVE",
"636 96 LINE",
"222 96 LINE",
"222 588 LINE",
"90 588 LINE",
"90 80 LINE",
"80 0 LINE"
);
}
);
width = 686;
},
{
anchors = (
{
name = bottom;
position = "{403, 0}";
},
{
name = center;
position = "{193, 314}";
},
{
name = top;
position = "{423, 588}";
},
{
name = topright;
position = "{376, 588}";
}
);
background = {
anchors = (
{
name = bottom;
position = "{403, 0}";
},
{
name = center;
position = "{193, 314}";
},
{
name = top;
position = "{463, 588}";
},
{
name = topright;
position = "{626, 588}";
}
);
paths = (
{
closed = 1;
nodes = (
"576 0 LINE SMOOTH",
"696 0 OFFCURVE",
"696 11 OFFCURVE",
"696 11 CURVE",
"636 137 LINE",
"282 137 LINE",
"282 588 LINE",
"90 588 LINE",
"90 80 LINE",
"80 0 LINE"
);
}
);
};
layerId = "C39E0A5F-5A43-41B0-A0DD-85C4534CF186";
paths = (
{
closed = 1;
nodes = (
"576 0 LINE SMOOTH",
"664 0 OFFCURVE",
"696 6 OFFCURVE",
"696 11 CURVE",
"636 137 LINE",
"282 137 LINE",
"282 588 LINE",
"90 588 LINE",
"90 80 LINE",
"80 0 LINE"
);
}
);
width = 696;
},
{
anchors = (
{
name = bottom;
position = "{403, 0}";
},
{
name = center;
position = "{173, 314}";
},
{
name = top;
position = "{353, 568}";
},
{
name = topright;
position = "{756, 588}";
}
);
associatedMasterId = "083550D2-F2E8-44E3-BE3D-E8BDF41EDFC4";
layerId = "73A46DDA-2723-4CA9-98D4-1BCC5D1C0CFE";
paths = (
{
closed = 1;
nodes = (
"80 0 OFFCURVE",
"436 0 OFFCURVE",
"556 0 CURVE",
"676 0 OFFCURVE",
"676 11 OFFCURVE",
"676 11 CURVE",
"636 96 LINE",
"222 96 LINE",
"222 99 OFFCURVE",
"222 588 OFFCURVE",
"222 588 CURVE",
"90 588 LINE",
"90 80 LINE",
"80 0 LINE"
);
}
);
width = 696;
}
);
leftKerningGroup = H;
leftMetricsKey = H;
rightKerningGroup = L;
unicode = 004C;
},
{
color = 1;
glyphname = M;
lastChange = "2020-07-18 18:41:28 +0000";
layers = (
{
anchors = (
{
name = bottom;
position = "{454, 0}";
},
{
name = top;
position = "{454, 588}";
}
);
background = {
anchors = (
{
name = bottom;
position = "{454, 0}";
},
{
name = top;
position = "{454, 588}";
}
);
paths = (
{
closed = 1;
nodes = (
"222 0 LINE",
"222 373 LINE",
"232 373 LINE",
"272 286 LINE",
"398 60 LINE",
"519 60 LINE",
"645 286 LINE",
"684 373 LINE",
"695 373 LINE",
"695 0 LINE",
"827 0 LINE",
"827 588 LINE",
"692 588 LINE",
"458 188 LINE",
"232 588 LINE",
"80 588 LINE",
"90 508 LINE",
"90 0 LINE"
);
}
);
};
layerId = "083550D2-F2E8-44E3-BE3D-E8BDF41EDFC4";
paths = (
{
closed = 1;
nodes = (
"222 0 LINE",
"222 373 LINE",
"232 373 LINE",
"272 286 LINE",
"398 60 LINE",
"519 60 LINE",
"645 286 LINE",
"684 373 LINE",
"695 373 LINE",
"695 0 LINE",
"827 0 LINE",
"827 588 LINE",
"692 588 LINE",
"458 188 LINE",
"232 588 LINE",
"80 588 LINE",
"90 508 LINE",
"90 0 LINE"
);
}
);
width = 907;
},
{
anchors = (
{
name = bottom;
position = "{500, 0}";
},
{
name = top;
position = "{500, 588}";
}
);
background = {
anchors = (
{
name = bottom;
position = "{500, 0}";
},
{
name = top;
position = "{500, 588}";
}
);
paths = (
{
closed = 1;
nodes = (
"281 0 LINE",
"281 337 LINE",
"291 337 LINE",
"332 229 LINE",
"408 60 LINE",
"590 60 LINE",
"663 229 LINE",
"705 337 LINE",
"716 337 LINE",
"716 0 LINE",
"907 0 LINE",
"907 588 LINE",
"678 588 LINE",
"498 238 LINE",
"322 588 LINE",
"80 588 LINE",
"90 508 LINE",
"90 0 LINE"
);
}
);
};
layerId = "C39E0A5F-5A43-41B0-A0DD-85C4534CF186";
paths = (
{
closed = 1;
nodes = (
"281 0 LINE",
"281 337 LINE",
"291 337 LINE",
"332 229 LINE",
"408 60 LINE",
"590 60 LINE",
"663 229 LINE",
"705 337 LINE",
"716 337 LINE",
"716 0 LINE",
"907 0 LINE",
"907 588 LINE",
"678 588 LINE",
"498 238 LINE",
"322 588 LINE",
"80 588 LINE",
"90 508 LINE",
"90 0 LINE"
);
}
);
width = 987;
},
{
anchors = (
{
name = bottom;
position = "{454, 0}";
},
{
name = top;
position = "{454, 588}";
}
);
associatedMasterId = "083550D2-F2E8-44E3-BE3D-E8BDF41EDFC4";
layerId = "73A46DDA-2723-4CA9-98D4-1BCC5D1C0CFE";
paths = (
{
closed = 1;
nodes = (
"692 588 LINE",
"458 188 LINE",
"232 588 LINE",
"80 588 LINE",
"90 508 LINE",
"90 0 LINE",
"90 0 OFFCURVE",
"177 0 OFFCURVE",
"222 0 CURVE",
"222 22 OFFCURVE",
"222 373 OFFCURVE",
"222 373 CURVE",
"232 373 LINE",
"272 286 LINE",
"398 60 LINE",
"519 60 LINE",
"645 286 LINE",
"684 373 LINE",
"695 373 LINE",
"695 0 LINE",
"827 0 LINE",
"827 588 LINE"
);
}
);
width = 907;
}
);
leftKerningGroup = M;
leftMetricsKey = H;
rightKerningGroup = M;
rightMetricsKey = H;
unicode = 004D;
},
{
color = 1;
glyphname = N;
lastChange = "2020-07-18 18:41:28 +0000";
layers = (
{
anchors = (
{
name = bottom;
position = "{423, 0}";
},
{
name = top;
position = "{413, 588}";
}
);
background = {
anchors = (
{
name = bottom;
position = "{423, 0}";
},
{
name = top;
position = "{413, 588}";
}
);
paths = (
{
closed = 1;
nodes = (
"222 0 LINE",
"222 409 LINE",
"232 409 LINE",
"271 362 LINE",
"619 0 LINE",
"746 0 LINE",
"746 588 LINE",
"614 588 LINE",
"614 178 LINE",
"603 178 LINE",
"564 232 LINE",
"224 588 LINE",
"80 588 LINE",
"90 508 LINE",
"90 0 LINE"
);
}
);
};
layerId = "083550D2-F2E8-44E3-BE3D-E8BDF41EDFC4";
paths = (
{
closed = 1;
nodes = (
"222 0 LINE",
"222 409 LINE",
"232 409 LINE",
"271 362 LINE",
"619 0 LINE",
"746 0 LINE",
"746 588 LINE",
"614 588 LINE",
"614 178 LINE",
"603 178 LINE",
"564 232 LINE",
"224 588 LINE",
"80 588 LINE",
"90 508 LINE",
"90 0 LINE"
);
}
);
width = 826;
},
{
anchors = (
{
name = bottom;
position = "{443, 20}";
},
{
name = top;
position = "{453, 588}";
}
);
background = {
anchors = (
{
name = bottom;
position = "{443, 20}";
},
{
name = top;
position = "{453, 588}";
}
);
paths = (
{
closed = 1;
nodes = (
"282 0 LINE",
"282 336 LINE",
"292 336 LINE",
"331 289 LINE",
"621 0 LINE",
"788 0 LINE",
"788 588 LINE",
"596 588 LINE",
"596 258 LINE",
"585 258 LINE",
"546 302 LINE",
"264 588 LINE",
"80 588 LINE",
"90 508 LINE",
"90 0 LINE"
);
}
);
};
layerId = "C39E0A5F-5A43-41B0-A0DD-85C4534CF186";
paths = (
{
closed = 1;
nodes = (
"282 0 LINE",
"282 336 LINE",
"292 336 LINE",
"331 289 LINE",
"621 0 LINE",
"788 0 LINE",
"788 588 LINE",
"596 588 LINE",
"596 258 LINE",
"585 258 LINE",
"546 302 LINE",
"264 588 LINE",
"80 588 LINE",
"90 508 LINE",
"90 0 LINE"
);
}
);
width = 868;
},
{
anchors = (
{
name = bottom;
position = "{423, 0}";
},
{
name = top;
position = "{413, 588}";
}
);
associatedMasterId = "083550D2-F2E8-44E3-BE3D-E8BDF41EDFC4";
layerId = "73A46DDA-2723-4CA9-98D4-1BCC5D1C0CFE";
paths = (
{
closed = 1;
nodes = (
"614 588 LINE",
"614 178 LINE",
"603 178 LINE",
"564 232 LINE",
"224 588 LINE",
"80 588 LINE",
"90 508 LINE",
"90 0 LINE",
"90 0 OFFCURVE",
"177 0 OFFCURVE",
"222 0 CURVE",
"222 20 OFFCURVE",
"222 409 OFFCURVE",
"222 409 CURVE",
"232 409 LINE",
"271 362 LINE",
"619 0 LINE",
"746 0 LINE",
"746 588 LINE"
);
}
);
width = 826;
}
);
leftKerningGroup = H;
leftMetricsKey = H;
rightKerningGroup = H;
rightMetricsKey = H;
unicode = 004E;
},
{
color = 8;
glyphname = Eng;
lastChange = "2020-07-18 18:41:28 +0000";
layers = (
{
background = {
paths = (
{
closed = 1;
nodes = (
"584 -176 LINE SMOOTH",
"669 -176 OFFCURVE",
"746 -141 OFFCURVE",
"746 -30 CURVE SMOOTH",
"746 588 LINE",
"614 588 LINE",
"614 178 LINE",
"603 178 LINE",
"564 232 LINE",
"224 588 LINE",
"80 588 LINE",
"90 508 LINE",
"90 0 LINE",
"222 0 LINE",
"222 409 LINE",
"232 409 LINE",
"271 362 LINE",
"541 81 LINE",
"544 78 LINE",
"569 52 LINE",
"592 26 OFFCURVE",
"614 -5 OFFCURVE",
"614 -38 CURVE SMOOTH",
"614 -78 OFFCURVE",
"590 -96 OFFCURVE",
"554 -96 CURVE SMOOTH",
"509 -96 OFFCURVE",
"472 -86 OFFCURVE",
"472 -86 CURVE",
"452 -146 LINE",
"452 -160 OFFCURVE",
"512 -176 OFFCURVE",
"571 -176 CURVE SMOOTH"
);
}
);
};
guideLines = (
{
angle = 90;
position = "{614, 108}";
}
);
layerId = "083550D2-F2E8-44E3-BE3D-E8BDF41EDFC4";
paths = (
{
closed = 1;
nodes = (
"584 -176 LINE SMOOTH",
"669 -176 OFFCURVE",
"746 -141 OFFCURVE",
"746 -30 CURVE SMOOTH",
"746 588 LINE",
"614 588 LINE",
"614 178 LINE",
"603 178 LINE",
"564 232 LINE",
"224 588 LINE",
"80 588 LINE",
"90 508 LINE",
"90 0 LINE",
"222 0 LINE",
"222 409 LINE",
"232 409 LINE",
"271 362 LINE",
"572 49 LINE SMOOTH",
"598 22 OFFCURVE",
"617 -5 OFFCURVE",
"617 -38 CURVE SMOOTH",
"617 -78 OFFCURVE",
"593 -96 OFFCURVE",
"557 -96 CURVE SMOOTH",
"523 -96 OFFCURVE",
"490 -89 OFFCURVE",
"472 -83 CURVE",
"451 -149 LINE",
"475 -162 OFFCURVE",
"521 -176 OFFCURVE",
"571 -176 CURVE SMOOTH"
);
}
);
width = 826;
},
{
background = {
paths = (
{
closed = 1;
nodes = (
"606 -176 LINE SMOOTH",
"705 -176 OFFCURVE",
"788 -133 OFFCURVE",
"788 0 CURVE SMOOTH",
"788 588 LINE",
"596 588 LINE",
"596 258 LINE",
"585 258 LINE",
"546 302 LINE",
"264 588 LINE",
"80 588 LINE",
"90 508 LINE",
"90 0 LINE",
"282 0 LINE",
"282 336 LINE",
"292 336 LINE",
"331 289 LINE",
"526 95 LINE",
"560 58 OFFCURVE",
"574 22 OFFCURVE",
"574 -12 CURVE SMOOTH",
"574 -36 OFFCURVE",
"565 -55 OFFCURVE",
"534 -55 CURVE SMOOTH",
"500 -55 OFFCURVE",
"472 -45 OFFCURVE",
"472 -45 CURVE",
"442 -135 LINE",
"442 -149 OFFCURVE",
"505 -176 OFFCURVE",
"591 -176 CURVE SMOOTH"
);
}
);
};
guideLines = (
{
angle = 90;
position = "{592, 183}";
}
);
layerId = "C39E0A5F-5A43-41B0-A0DD-85C4534CF186";
paths = (
{
closed = 1;
nodes = (
"606 -176 LINE SMOOTH",
"705 -176 OFFCURVE",
"788 -133 OFFCURVE",
"788 0 CURVE SMOOTH",
"788 588 LINE",
"596 588 LINE",
"596 258 LINE",
"585 258 LINE",
"546 302 LINE",
"264 588 LINE",
"80 588 LINE",
"90 508 LINE",
"90 0 LINE",
"282 0 LINE",
"282 336 LINE",
"292 336 LINE",
"331 289 LINE",
"520 103 LINE SMOOTH",
"573 50 OFFCURVE",
"592 20 OFFCURVE",
"592 -6 CURVE SMOOTH",
"592 -36 OFFCURVE",
"573 -55 OFFCURVE",
"539 -55 CURVE SMOOTH",
"512 -55 OFFCURVE",
"485 -49 OFFCURVE",
"472 -45 CURVE",
"442 -138 LINE",
"459 -152 OFFCURVE",
"524 -176 OFFCURVE",
"591 -176 CURVE SMOOTH"
);
}
);
width = 868;
},
{
associatedMasterId = "083550D2-F2E8-44E3-BE3D-E8BDF41EDFC4";
layerId = "73A46DDA-2723-4CA9-98D4-1BCC5D1C0CFE";
paths = (
{
closed = 1;
nodes = (
"614 588 LINE",
"614 168 LINE",
"574 222 LINE",
"214 588 LINE",
"80 588 LINE",
"90 508 LINE",
"90 0 LINE",
"222 0 LINE",
"222 420 LINE",
"261 373 LINE",
"630 0 LINE",
"746 0 LINE",
"746 588 LINE"
);
},
{
closed = 1;
nodes = (
"572 59 OFFCURVE",
"614 23 OFFCURVE",
"614 -30 CURVE",
"614 -83 OFFCURVE",
"590 -96 OFFCURVE",
"554 -96 CURVE",
"509 -96 OFFCURVE",
"472 -86 OFFCURVE",
"472 -86 CURVE",
"452 -146 LINE",
"452 -160 OFFCURVE",
"512 -176 OFFCURVE",
"571 -176 CURVE",
"584 -176 LINE",
"669 -176 OFFCURVE",
"746 -141 OFFCURVE",
"746 -30 CURVE",
"746 70 OFFCURVE",
"746 188 OFFCURVE",
"746 188 CURVE",
"543 88 LINE"
);
}
);
width = 826;
}
);
leftKerningGroup = Eng;
leftMetricsKey = N;
rightKerningGroup = Eng;
rightMetricsKey = N;
unicode = 014A;
},
{
glyphname = Nhookleft;
lastChange = "2020-07-18 18:41:28 +0000";
layers = (
{
background = {
paths = (
{
closed = 1;
nodes = (
"142 -176 LINE SMOOTH",
"227 -176 OFFCURVE",
"304 -141 OFFCURVE",
"304 -30 CURVE SMOOTH",
"304 409 LINE",
"314 409 LINE",
"353 362 LINE",
"701 0 LINE",
"828 0 LINE",
"828 588 LINE",
"696 588 LINE",
"696 178 LINE",
"685 178 LINE",
"646 232 LINE",
"306 588 LINE",
"162 588 LINE",
"172 508 LINE",
"172 -30 LINE SMOOTH",
"172 -83 OFFCURVE",
"148 -96 OFFCURVE",
"112 -96 CURVE SMOOTH",
"67 -96 OFFCURVE",
"30 -86 OFFCURVE",
"30 -86 CURVE",
"10 -146 LINE",
"10 -160 OFFCURVE",
"70 -176 OFFCURVE",
"129 -176 CURVE SMOOTH"
);
}
);
};
layerId = "083550D2-F2E8-44E3-BE3D-E8BDF41EDFC4";
paths = (
{
closed = 1;
nodes = (
"142 -176 LINE SMOOTH",
"227 -176 OFFCURVE",
"304 -141 OFFCURVE",
"304 -30 CURVE SMOOTH",
"304 409 LINE",
"314 409 LINE",
"353 362 LINE",
"701 0 LINE",
"828 0 LINE",
"828 588 LINE",
"696 588 LINE",
"696 178 LINE",
"685 178 LINE",
"646 232 LINE",
"306 588 LINE",
"162 588 LINE",
"172 508 LINE",
"172 -30 LINE SMOOTH",
"172 -83 OFFCURVE",
"148 -96 OFFCURVE",
"112 -96 CURVE SMOOTH",
"79 -96 OFFCURVE",
"46 -90 OFFCURVE",
"30 -86 CURVE",
"10 -146 LINE",
"10 -160 OFFCURVE",
"70 -176 OFFCURVE",
"129 -176 CURVE SMOOTH"
);
}
);
width = 908;
},
{
background = {
paths = (
{
closed = 1;
nodes = (
"172 -176 LINE SMOOTH",
"289 -176 OFFCURVE",
"374 -133 OFFCURVE",
"374 -9 CURVE SMOOTH",
"374 336 LINE",
"384 336 LINE",
"423 289 LINE",
"713 0 LINE",
"880 0 LINE",
"880 588 LINE",
"688 588 LINE",
"688 258 LINE",
"677 258 LINE",
"638 302 LINE",
"356 588 LINE",
"172 588 LINE",
"182 508 LINE",
"182 10 LINE SMOOTH",
"182 -43 OFFCURVE",
"158 -56 OFFCURVE",
"122 -56 CURVE SMOOTH",
"77 -56 OFFCURVE",
"40 -46 OFFCURVE",
"40 -46 CURVE",
"10 -135 LINE",
"10 -149 OFFCURVE",
"100 -176 OFFCURVE",
"159 -176 CURVE SMOOTH"
);
}
);
};
layerId = "C39E0A5F-5A43-41B0-A0DD-85C4534CF186";
paths = (
{
closed = 1;
nodes = (
"172 -176 LINE SMOOTH",
"289 -176 OFFCURVE",
"374 -133 OFFCURVE",
"374 -9 CURVE SMOOTH",
"374 336 LINE",
"384 336 LINE",
"423 289 LINE",
"713 0 LINE",
"880 0 LINE",
"880 588 LINE",
"688 588 LINE",
"688 258 LINE",
"677 258 LINE",
"638 302 LINE",
"356 588 LINE",
"172 588 LINE",
"182 508 LINE",
"182 10 LINE SMOOTH",
"182 -43 OFFCURVE",
"158 -56 OFFCURVE",
"122 -56 CURVE SMOOTH",
"89 -56 OFFCURVE",
"56 -50 OFFCURVE",
"40 -46 CURVE",
"10 -135 LINE",
"10 -149 OFFCURVE",
"100 -176 OFFCURVE",
"159 -176 CURVE SMOOTH"
);
}
);
width = 960;
},
{
associatedMasterId = "083550D2-F2E8-44E3-BE3D-E8BDF41EDFC4";
layerId = "73A46DDA-2723-4CA9-98D4-1BCC5D1C0CFE";
paths = (
{
closed = 1;
nodes = (
"696 588 LINE",
"696 168 LINE",
"656 222 LINE",
"296 588 LINE",
"162 588 LINE",
"172 508 LINE",
"172 0 LINE",
"304 0 LINE",
"304 420 LINE",
"343 373 LINE",
"712 0 LINE",
"828 0 LINE",
"828 588 LINE"
);
},
{
closed = 1;
nodes = (
"172 -30 LINE",
"172 -83 OFFCURVE",
"148 -96 OFFCURVE",
"112 -96 CURVE",
"67 -96 OFFCURVE",
"30 -86 OFFCURVE",
"30 -86 CURVE",
"10 -146 LINE",
"10 -160 OFFCURVE",
"70 -176 OFFCURVE",
"129 -176 CURVE",
"142 -176 LINE",
"227 -176 OFFCURVE",
"304 -141 OFFCURVE",
"304 -30 CURVE",
"304 70 OFFCURVE",
"304 188 OFFCURVE",
"304 188 CURVE",
"172 188 LINE"
);
}
);
width = 908;
}
);
leftKerningGroup = Nhookleft;
leftMetricsKey = J;
rightKerningGroup = Nhookleft;
rightMetricsKey = N;
unicode = 019D;
},
{
color = 1;
glyphname = O;
lastChange = "2020-07-18 19:04:58 +0000";
layers = (
{
anchors = (
{
name = bottom;
position = "{409, 0}";
},
{
name = center;
position = "{404, 300}";
},
{
name = ogonek;
position = "{459, 21}";
},
{
name = top;
position = "{399, 588}";
},
{
name = topleft;
position = "{40, 588}";
},
{
name = topright;
position = "{757, 468}";
}
);
background = {
anchors = (
{
name = bottom;
position = "{409, 0}";
},
{
name = center;
position = "{404, 300}";
},
{
name = ogonek;
position = "{639, 21}";
},
{
name = top;
position = "{399, 588}";
},
{
name = topleft;
position = "{40, 588}";
},
{
name = topright;
position = "{757, 468}";
}
);
paths = (
{
closed = 1;
nodes = (
"545 0 LINE SMOOTH",
"684 0 OFFCURVE",
"727 61 OFFCURVE",
"727 179 CURVE SMOOTH",
"727 410 LINE SMOOTH",
"727 525 OFFCURVE",
"685 588 OFFCURVE",
"545 588 CURVE SMOOTH",
"253 588 LINE SMOOTH",
"110 588 OFFCURVE",
"70 525 OFFCURVE",
"70 410 CURVE SMOOTH",
"70 179 LINE SMOOTH",
"70 61 OFFCURVE",
"112 0 OFFCURVE",
"253 0 CURVE SMOOTH"
);
},
{
closed = 1;
nodes = (
"233 96 OFFCURVE",
"202 122 OFFCURVE",
"202 167 CURVE SMOOTH",
"202 422 LINE SMOOTH",
"202 464 OFFCURVE",
"234 492 OFFCURVE",
"282 492 CURVE SMOOTH",
"517 492 LINE SMOOTH",
"565 492 OFFCURVE",
"595 460 OFFCURVE",
"595 422 CURVE SMOOTH",
"595 167 LINE SMOOTH",
"595 123 OFFCURVE",
"566 96 OFFCURVE",
"517 96 CURVE SMOOTH",
"282 96 LINE SMOOTH"
);
}
);
};
layerId = "083550D2-F2E8-44E3-BE3D-E8BDF41EDFC4";
paths = (
{
closed = 1;
nodes = (
"545 0 LINE SMOOTH",
"684 0 OFFCURVE",
"727 61 OFFCURVE",
"727 179 CURVE SMOOTH",
"727 410 LINE SMOOTH",
"727 525 OFFCURVE",
"685 588 OFFCURVE",
"545 588 CURVE SMOOTH",
"253 588 LINE SMOOTH",
"110 588 OFFCURVE",
"70 525 OFFCURVE",
"70 410 CURVE SMOOTH",
"70 179 LINE SMOOTH",
"70 61 OFFCURVE",
"112 0 OFFCURVE",
"253 0 CURVE SMOOTH"
);
},
{
closed = 1;
nodes = (
"233 96 OFFCURVE",
"202 122 OFFCURVE",
"202 167 CURVE SMOOTH",
"202 422 LINE SMOOTH",
"202 464 OFFCURVE",
"234 492 OFFCURVE",
"282 492 CURVE SMOOTH",
"517 492 LINE SMOOTH",
"565 492 OFFCURVE",
"595 460 OFFCURVE",
"595 422 CURVE SMOOTH",
"595 167 LINE SMOOTH",
"595 123 OFFCURVE",
"566 96 OFFCURVE",
"517 96 CURVE SMOOTH",
"282 96 LINE SMOOTH"
);
}
);
width = 797;
},
{
anchors = (
{
name = bottom;
position = "{429, 0}";
},
{
name = center;
position = "{424, 296}";
},
{
name = ogonek;
position = "{499, 21}";
},
{
name = top;
position = "{419, 588}";
},
{
name = topleft;
position = "{40, 588}";
},
{
name = topright;
position = "{807, 458}";
}
);
background = {
anchors = (
{
name = bottom;
position = "{429, 0}";
},
{
name = center;
position = "{424, 296}";
},
{
name = ogonek;
position = "{639, 21}";
},
{
name = top;
position = "{419, 588}";
},
{
name = topleft;
position = "{40, 588}";
},
{
name = topright;
position = "{807, 458}";
}
);
paths = (
{
closed = 1;
nodes = (
"565 0 LINE SMOOTH",
"704 0 OFFCURVE",
"767 60 OFFCURVE",
"767 199 CURVE SMOOTH",
"767 390 LINE SMOOTH",
"767 526 OFFCURVE",
"705 588 OFFCURVE",
"565 588 CURVE SMOOTH",
"273 588 LINE SMOOTH",
"130 588 OFFCURVE",
"70 526 OFFCURVE",
"70 390 CURVE SMOOTH",
"70 199 LINE SMOOTH",
"70 60 OFFCURVE",
"132 0 OFFCURVE",
"273 0 CURVE SMOOTH"
);
},
{
closed = 1;
nodes = (
"288 136 OFFCURVE",
"262 157 OFFCURVE",
"262 207 CURVE SMOOTH",
"262 382 LINE SMOOTH",
"262 432 OFFCURVE",
"289 452 OFFCURVE",
"342 452 CURVE SMOOTH",
"497 452 LINE SMOOTH",
"550 452 OFFCURVE",
"575 428 OFFCURVE",
"575 382 CURVE SMOOTH",
"575 207 LINE SMOOTH",
"575 158 OFFCURVE",
"551 136 OFFCURVE",
"497 136 CURVE SMOOTH",
"342 136 LINE SMOOTH"
);
}
);
};
layerId = "C39E0A5F-5A43-41B0-A0DD-85C4534CF186";
paths = (
{
closed = 1;
nodes = (
"565 0 LINE SMOOTH",
"704 0 OFFCURVE",
"767 60 OFFCURVE",
"767 199 CURVE SMOOTH",
"767 390 LINE SMOOTH",
"767 526 OFFCURVE",
"705 588 OFFCURVE",
"565 588 CURVE SMOOTH",
"273 588 LINE SMOOTH",
"130 588 OFFCURVE",
"70 526 OFFCURVE",
"70 390 CURVE SMOOTH",
"70 199 LINE SMOOTH",
"70 60 OFFCURVE",
"132 0 OFFCURVE",
"273 0 CURVE SMOOTH"
);
},
{
closed = 1;
nodes = (
"288 136 OFFCURVE",
"262 157 OFFCURVE",
"262 207 CURVE SMOOTH",
"262 382 LINE SMOOTH",
"262 432 OFFCURVE",
"289 452 OFFCURVE",
"342 452 CURVE SMOOTH",
"497 452 LINE SMOOTH",
"550 452 OFFCURVE",
"575 428 OFFCURVE",
"575 382 CURVE SMOOTH",
"575 207 LINE SMOOTH",
"575 158 OFFCURVE",
"551 136 OFFCURVE",
"497 136 CURVE SMOOTH",
"342 136 LINE SMOOTH"
);
}
);
width = 837;
},
{
anchors = (
{
name = bottom;
position = "{389, 0}";
},
{
name = center;
position = "{389, 304}";
},
{
name = ogonek;
position = "{629, 21}";
},
{
name = top;
position = "{389, 588}";
},
{
name = topleft;
position = "{30, 588}";
},
{
name = topright;
position = "{747, 448}";
}
);
associatedMasterId = "083550D2-F2E8-44E3-BE3D-E8BDF41EDFC4";
layerId = "73A46DDA-2723-4CA9-98D4-1BCC5D1C0CFE";
paths = (
{
closed = 1;
nodes = (
"535 0 LINE",
"674 0 OFFCURVE",
"717 61 OFFCURVE",
"717 179 CURVE",
"717 410 LINE",
"717 525 OFFCURVE",
"675 588 OFFCURVE",
"535 588 CURVE",
"243 588 LINE",
"100 588 OFFCURVE",
"60 525 OFFCURVE",
"60 410 CURVE",
"60 179 LINE",
"60 61 OFFCURVE",
"102 0 OFFCURVE",
"243 0 CURVE"
);
},
{
closed = 1;
nodes = (
"223 96 OFFCURVE",
"192 122 OFFCURVE",
"192 167 CURVE",
"192 422 LINE",
"192 464 OFFCURVE",
"224 492 OFFCURVE",
"272 492 CURVE",
"320 492 OFFCURVE",
"461 492 OFFCURVE",
"507 492 CURVE",
"555 492 OFFCURVE",
"585 460 OFFCURVE",
"585 422 CURVE",
"585 167 LINE",
"585 123 OFFCURVE",
"556 96 OFFCURVE",
"507 96 CURVE",
"458 96 OFFCURVE",
"320 96 OFFCURVE",
"272 96 CURVE"
);
}
);
width = 777;
}
);
leftKerningGroup = O;
rightKerningGroup = O;
unicode = 004F;
},
{
glyphname = OE;
lastChange = "2020-07-18 18:41:28 +0000";
layers = (
{
background = {
components = (
{
name = E;
transform = "{1, 0, 0, 1, 515, 0}";
}
);
paths = (
{
closed = 1;
nodes = (
"465 0 LINE SMOOTH",
"604 0 OFFCURVE",
"677 89 OFFCURVE",
"677 229 CURVE SMOOTH",
"677 360 LINE SMOOTH",
"677 501 OFFCURVE",
"605 588 OFFCURVE",
"465 588 CURVE SMOOTH",
"253 588 LINE SMOOTH",
"110 588 OFFCURVE",
"70 525 OFFCURVE",
"70 410 CURVE SMOOTH",
"70 179 LINE SMOOTH",
"70 61 OFFCURVE",
"112 0 OFFCURVE",
"253 0 CURVE SMOOTH"
);
},
{
closed = 1;
nodes = (
"233 96 OFFCURVE",
"202 122 OFFCURVE",
"202 167 CURVE SMOOTH",
"202 422 LINE SMOOTH",
"202 464 OFFCURVE",
"234 492 OFFCURVE",
"282 492 CURVE SMOOTH",
"457 492 LINE SMOOTH",
"559 492 OFFCURVE",
"595 463 OFFCURVE",
"595 372 CURVE SMOOTH",
"595 217 LINE SMOOTH",
"595 120 OFFCURVE",
"559 96 OFFCURVE",
"457 96 CURVE SMOOTH",
"282 96 LINE SMOOTH"
);
}
);
};
components = (
{
name = E;
transform = "{1, 0, 0, 1, 515, 0}";
}
);
layerId = "083550D2-F2E8-44E3-BE3D-E8BDF41EDFC4";
paths = (
{
closed = 1;
nodes = (
"465 0 LINE SMOOTH",
"604 0 OFFCURVE",
"677 89 OFFCURVE",
"677 229 CURVE SMOOTH",
"677 360 LINE SMOOTH",
"677 501 OFFCURVE",
"605 588 OFFCURVE",
"465 588 CURVE SMOOTH",
"253 588 LINE SMOOTH",
"110 588 OFFCURVE",
"70 525 OFFCURVE",
"70 410 CURVE SMOOTH",
"70 179 LINE SMOOTH",
"70 61 OFFCURVE",
"112 0 OFFCURVE",
"253 0 CURVE SMOOTH"
);
},
{
closed = 1;
nodes = (
"233 96 OFFCURVE",
"202 122 OFFCURVE",
"202 167 CURVE SMOOTH",
"202 422 LINE SMOOTH",
"202 464 OFFCURVE",
"234 492 OFFCURVE",
"282 492 CURVE SMOOTH",
"457 492 LINE SMOOTH",
"559 492 OFFCURVE",
"595 463 OFFCURVE",
"595 372 CURVE SMOOTH",
"595 217 LINE SMOOTH",
"595 120 OFFCURVE",
"559 96 OFFCURVE",
"457 96 CURVE SMOOTH",
"282 96 LINE SMOOTH"
);
}
);
width = 1281;
},
{
background = {
components = (
{
name = E;
transform = "{1, 0, 0, 1, 495, 0}";
}
);
paths = (
{
closed = 1;
nodes = (
"505 0 LINE SMOOTH",
"644 0 OFFCURVE",
"707 60 OFFCURVE",
"707 199 CURVE SMOOTH",
"707 390 LINE SMOOTH",
"707 526 OFFCURVE",
"645 588 OFFCURVE",
"505 588 CURVE SMOOTH",
"273 588 LINE SMOOTH",
"130 588 OFFCURVE",
"70 526 OFFCURVE",
"70 390 CURVE SMOOTH",
"70 199 LINE SMOOTH",
"70 60 OFFCURVE",
"132 0 OFFCURVE",
"273 0 CURVE SMOOTH"
);
},
{
closed = 1;
nodes = (
"288 136 OFFCURVE",
"262 157 OFFCURVE",
"262 207 CURVE SMOOTH",
"262 382 LINE SMOOTH",
"262 432 OFFCURVE",
"289 452 OFFCURVE",
"342 452 CURVE SMOOTH",
"497 452 LINE SMOOTH",
"550 452 OFFCURVE",
"575 428 OFFCURVE",
"575 382 CURVE SMOOTH",
"575 207 LINE SMOOTH",
"575 158 OFFCURVE",
"551 136 OFFCURVE",
"497 136 CURVE SMOOTH",
"342 136 LINE SMOOTH"
);
}
);
};
components = (
{
name = E;
transform = "{1, 0, 0, 1, 495, 0}";
}
);
layerId = "C39E0A5F-5A43-41B0-A0DD-85C4534CF186";
paths = (
{
closed = 1;
nodes = (
"505 0 LINE SMOOTH",
"644 0 OFFCURVE",
"707 60 OFFCURVE",
"707 199 CURVE SMOOTH",
"707 390 LINE SMOOTH",
"707 526 OFFCURVE",
"645 588 OFFCURVE",
"505 588 CURVE SMOOTH",
"273 588 LINE SMOOTH",
"130 588 OFFCURVE",
"70 526 OFFCURVE",
"70 390 CURVE SMOOTH",
"70 199 LINE SMOOTH",
"70 60 OFFCURVE",
"132 0 OFFCURVE",
"273 0 CURVE SMOOTH"
);
},
{
closed = 1;
nodes = (
"288 136 OFFCURVE",
"262 157 OFFCURVE",
"262 207 CURVE SMOOTH",
"262 382 LINE SMOOTH",
"262 432 OFFCURVE",
"289 452 OFFCURVE",
"342 452 CURVE SMOOTH",
"497 452 LINE SMOOTH",
"550 452 OFFCURVE",
"575 428 OFFCURVE",
"575 382 CURVE SMOOTH",
"575 207 LINE SMOOTH",
"575 158 OFFCURVE",
"551 136 OFFCURVE",
"497 136 CURVE SMOOTH",
"342 136 LINE SMOOTH"
);
}
);
width = 1281;
},
{
associatedMasterId = "083550D2-F2E8-44E3-BE3D-E8BDF41EDFC4";
components = (
{
name = E;
transform = "{1, 0, 0, 1, 505, 0}";
}
);
layerId = "73A46DDA-2723-4CA9-98D4-1BCC5D1C0CFE";
paths = (
{
closed = 1;
nodes = (
"243 588 LINE",
"100 588 OFFCURVE",
"60 525 OFFCURVE",
"60 410 CURVE",
"60 179 LINE",
"60 61 OFFCURVE",
"102 0 OFFCURVE",
"243 0 CURVE",
"455 0 LINE",
"594 0 OFFCURVE",
"667 89 OFFCURVE",
"667 229 CURVE",
"667 360 LINE",
"667 501 OFFCURVE",
"595 588 OFFCURVE",
"455 588 CURVE"
);
},
{
closed = 1;
nodes = (
"585 120 OFFCURVE",
"549 96 OFFCURVE",
"447 96 CURVE",
"398 96 OFFCURVE",
"320 96 OFFCURVE",
"272 96 CURVE",
"223 96 OFFCURVE",
"192 122 OFFCURVE",
"192 167 CURVE",
"192 422 LINE",
"192 464 OFFCURVE",
"224 492 OFFCURVE",
"272 492 CURVE",
"320 492 OFFCURVE",
"401 492 OFFCURVE",
"447 492 CURVE",
"549 492 OFFCURVE",
"585 463 OFFCURVE",
"585 372 CURVE",
"585 217 LINE"
);
}
);
width = 1271;
}
);
leftKerningGroup = O;
leftMetricsKey = O;
rightKerningGroup = E;
rightMetricsKey = E;
unicode = 0152;
},
{
color = 1;
glyphname = P;
lastChange = "2020-07-18 18:41:28 +0000";
layers = (
{
anchors = (
{
name = bottom;
position = "{388, 0}";
},
{
name = top;
position = "{388, 588}";
}
);
background = {
anchors = (
{
name = bottom;
position = "{388, 0}";
},
{
name = top;
position = "{388, 588}";
}
);
paths = (
{
closed = 1;
nodes = (
"222 0 LINE",
"222 191 LINE",
"222 191 OFFCURVE",
"306 183 OFFCURVE",
"421 183 CURVE SMOOTH",
"523 183 LINE SMOOTH",
"678 183 OFFCURVE",
"705 290 OFFCURVE",
"705 351 CURVE SMOOTH",
"705 410 LINE SMOOTH",
"705 485 OFFCURVE",
"693 589 OFFCURVE",
"523 589 CURVE SMOOTH",
"80 589 LINE",
"90 508 LINE",
"90 0 LINE"
);
},
{
closed = 1;
nodes = (
"222 493 LINE",
"495 493 LINE SMOOTH",
"554 493 OFFCURVE",
"573 460 OFFCURVE",
"573 417 CURVE SMOOTH",
"573 354 LINE SMOOTH",
"573 313 OFFCURVE",
"554 279 OFFCURVE",
"494 279 CURVE SMOOTH",
"222 279 LINE"
);
}
);
};
layerId = "083550D2-F2E8-44E3-BE3D-E8BDF41EDFC4";
paths = (
{
closed = 1;
nodes = (
"222 0 LINE",
"222 191 LINE",
"258 188 OFFCURVE",
"337 183 OFFCURVE",
"421 183 CURVE SMOOTH",
"523 183 LINE SMOOTH",
"678 183 OFFCURVE",
"705 290 OFFCURVE",
"705 351 CURVE SMOOTH",
"705 410 LINE SMOOTH",
"705 485 OFFCURVE",
"693 589 OFFCURVE",
"523 589 CURVE SMOOTH",
"80 589 LINE",
"90 508 LINE",
"90 0 LINE"
);
},
{
closed = 1;
nodes = (
"222 493 LINE",
"495 493 LINE SMOOTH",
"554 493 OFFCURVE",
"573 460 OFFCURVE",
"573 417 CURVE SMOOTH",
"573 354 LINE SMOOTH",
"573 313 OFFCURVE",
"554 279 OFFCURVE",
"494 279 CURVE SMOOTH",
"222 279 LINE"
);
}
);
width = 765;
},
{
anchors = (
{
name = bottom;
position = "{388, 0}";
},
{
name = top;
position = "{388, 588}";
}
);
background = {
anchors = (
{
name = bottom;
position = "{388, 0}";
},
{
name = top;
position = "{388, 588}";
}
);
paths = (
{
closed = 1;
nodes = (
"285 0 LINE",
"285 161 LINE",
"285 161 OFFCURVE",
"369 153 OFFCURVE",
"484 153 CURVE SMOOTH",
"553 153 LINE SMOOTH",
"708 153 OFFCURVE",
"745 235 OFFCURVE",
"745 331 CURVE SMOOTH",
"745 410 LINE SMOOTH",
"745 506 OFFCURVE",
"722 589 OFFCURVE",
"543 589 CURVE SMOOTH",
"80 589 LINE",
"90 508 LINE",
"90 0 LINE"
);
},
{
closed = 1;
nodes = (
"285 451 LINE",
"493 451 LINE SMOOTH",
"538 451 OFFCURVE",
"551 433 OFFCURVE",
"551 395 CURVE SMOOTH",
"551 344 LINE SMOOTH",
"551 305 OFFCURVE",
"536 289 OFFCURVE",
"492 289 CURVE SMOOTH",
"285 289 LINE"
);
}
);
};
layerId = "C39E0A5F-5A43-41B0-A0DD-85C4534CF186";
paths = (
{
closed = 1;
nodes = (
"285 0 LINE",
"285 161 LINE",
"321 158 OFFCURVE",
"400 153 OFFCURVE",
"484 153 CURVE SMOOTH",
"553 153 LINE SMOOTH",
"708 153 OFFCURVE",
"745 235 OFFCURVE",
"745 331 CURVE SMOOTH",
"745 410 LINE SMOOTH",
"745 506 OFFCURVE",
"722 589 OFFCURVE",
"543 589 CURVE SMOOTH",
"80 589 LINE",
"90 508 LINE",
"90 0 LINE"
);
},
{
closed = 1;
nodes = (
"285 451 LINE",
"493 451 LINE SMOOTH",
"538 451 OFFCURVE",
"551 433 OFFCURVE",
"551 395 CURVE SMOOTH",
"551 344 LINE SMOOTH",
"551 305 OFFCURVE",
"536 289 OFFCURVE",
"492 289 CURVE SMOOTH",
"285 289 LINE"
);
}
);
width = 805;
},
{
anchors = (
{
name = bottom;
position = "{388, 0}";
},
{
name = top;
position = "{388, 588}";
}
);
associatedMasterId = "083550D2-F2E8-44E3-BE3D-E8BDF41EDFC4";
layerId = "73A46DDA-2723-4CA9-98D4-1BCC5D1C0CFE";
paths = (
{
closed = 1;
nodes = (
"80 589 LINE",
"90 508 LINE",
"90 0 LINE",
"222 0 LINE",
"222 191 LINE",
"222 191 OFFCURVE",
"306 183 OFFCURVE",
"421 183 CURVE",
"523 183 LINE",
"678 183 OFFCURVE",
"705 290 OFFCURVE",
"705 351 CURVE",
"705 410 LINE",
"705 485 OFFCURVE",
"693 589 OFFCURVE",
"523 589 CURVE"
);
},
{
closed = 1;
nodes = (
"222 279 LINE",
"222 493 LINE",
"222 493 OFFCURVE",
"447 493 OFFCURVE",
"495 493 CURVE",
"554 493 OFFCURVE",
"573 460 OFFCURVE",
"573 417 CURVE",
"573 354 LINE",
"573 313 OFFCURVE",
"554 279 OFFCURVE",
"494 279 CURVE"
);
}
);
width = 765;
}
);
leftKerningGroup = H;
leftMetricsKey = H;
rightKerningGroup = P;
unicode = 0050;
},
{
glyphname = Thorn;
lastChange = "2020-07-18 18:41:28 +0000";
layers = (
{
background = {
paths = (
{
closed = 1;
nodes = (
"222 0 LINE",
"222 151 LINE",
"222 151 OFFCURVE",
"306 143 OFFCURVE",
"421 143 CURVE SMOOTH",
"573 143 LINE SMOOTH",
"704 143 OFFCURVE",
"705 223 OFFCURVE",
"705 271 CURVE SMOOTH",
"705 381 LINE SMOOTH",
"705 421 OFFCURVE",
"705 509 OFFCURVE",
"573 509 CURVE SMOOTH",
"222 509 LINE",
"222 629 LINE",
"80 629 LINE",
"90 549 LINE",
"90 0 LINE"
);
},
{
closed = 1;
nodes = (
"222 413 LINE",
"525 413 LINE SMOOTH",
"547 413 OFFCURVE",
"573 400 OFFCURVE",
"573 373 CURVE SMOOTH",
"573 279 LINE SMOOTH",
"573 252 OFFCURVE",
"549 239 OFFCURVE",
"525 239 CURVE SMOOTH",
"222 239 LINE"
);
}
);
};
layerId = "083550D2-F2E8-44E3-BE3D-E8BDF41EDFC4";
paths = (
{
closed = 1;
nodes = (
"222 0 LINE",
"222 151 LINE",
"258 148 OFFCURVE",
"337 143 OFFCURVE",
"421 143 CURVE SMOOTH",
"573 143 LINE SMOOTH",
"704 143 OFFCURVE",
"705 223 OFFCURVE",
"705 271 CURVE SMOOTH",
"705 381 LINE SMOOTH",
"705 421 OFFCURVE",
"705 509 OFFCURVE",
"573 509 CURVE SMOOTH",
"222 509 LINE",
"222 629 LINE",
"80 629 LINE",
"90 549 LINE",
"90 0 LINE"
);
},
{
closed = 1;
nodes = (
"222 413 LINE",
"525 413 LINE SMOOTH",
"547 413 OFFCURVE",
"573 400 OFFCURVE",
"573 373 CURVE SMOOTH",
"573 279 LINE SMOOTH",
"573 252 OFFCURVE",
"549 239 OFFCURVE",
"525 239 CURVE SMOOTH",
"222 239 LINE"
);
}
);
width = 765;
},
{
background = {
paths = (
{
closed = 1;
nodes = (
"285 0 LINE",
"285 151 LINE",
"285 151 OFFCURVE",
"348 143 OFFCURVE",
"463 143 CURVE SMOOTH",
"573 143 LINE SMOOTH",
"699 143 OFFCURVE",
"725 208 OFFCURVE",
"725 291 CURVE SMOOTH",
"725 360 LINE SMOOTH",
"725 432 OFFCURVE",
"694 509 OFFCURVE",
"573 509 CURVE SMOOTH",
"285 509 LINE",
"285 629 LINE",
"80 629 LINE",
"90 549 LINE",
"90 0 LINE"
);
},
{
closed = 1;
nodes = (
"285 372 LINE",
"483 372 LINE SMOOTH",
"519 372 OFFCURVE",
"531 361 OFFCURVE",
"531 332 CURVE SMOOTH",
"531 319 LINE SMOOTH",
"531 292 OFFCURVE",
"521 279 OFFCURVE",
"483 279 CURVE SMOOTH",
"285 279 LINE"
);
}
);
};
layerId = "C39E0A5F-5A43-41B0-A0DD-85C4534CF186";
paths = (
{
closed = 1;
nodes = (
"285 0 LINE",
"285 151 LINE",
"312 148 OFFCURVE",
"379 143 OFFCURVE",
"463 143 CURVE SMOOTH",
"573 143 LINE SMOOTH",
"699 143 OFFCURVE",
"725 208 OFFCURVE",
"725 291 CURVE SMOOTH",
"725 360 LINE SMOOTH",
"725 432 OFFCURVE",
"694 509 OFFCURVE",
"573 509 CURVE SMOOTH",
"285 509 LINE",
"285 629 LINE",
"80 629 LINE",
"90 549 LINE",
"90 0 LINE"
);
},
{
closed = 1;
nodes = (
"285 372 LINE",
"483 372 LINE SMOOTH",
"519 372 OFFCURVE",
"531 361 OFFCURVE",
"531 332 CURVE SMOOTH",
"531 319 LINE SMOOTH",
"531 292 OFFCURVE",
"521 279 OFFCURVE",
"483 279 CURVE SMOOTH",
"285 279 LINE"
);
}
);
width = 785;
},
{
associatedMasterId = "083550D2-F2E8-44E3-BE3D-E8BDF41EDFC4";
layerId = "73A46DDA-2723-4CA9-98D4-1BCC5D1C0CFE";
paths = (
{
closed = 1;
nodes = (
"222 509 LINE",
"222 629 LINE",
"80 629 LINE",
"90 549 LINE",
"90 0 LINE",
"222 0 LINE",
"222 151 LINE",
"222 151 OFFCURVE",
"306 143 OFFCURVE",
"421 143 CURVE",
"573 143 LINE",
"704 143 OFFCURVE",
"705 223 OFFCURVE",
"705 271 CURVE",
"705 381 LINE",
"705 421 OFFCURVE",
"705 509 OFFCURVE",
"573 509 CURVE"
);
},
{
closed = 1;
nodes = (
"222 239 LINE",
"222 413 LINE",
"222 413 OFFCURVE",
"477 413 OFFCURVE",
"525 413 CURVE",
"547 413 OFFCURVE",
"573 400 OFFCURVE",
"573 373 CURVE",
"573 279 LINE",
"573 252 OFFCURVE",
"549 239 OFFCURVE",
"525 239 CURVE"
);
}
);
width = 765;
}
);
leftKerningGroup = H;
leftMetricsKey = P;
rightKerningGroup = Thorn;
rightMetricsKey = P;
unicode = 00DE;
},
{
color = 8;
glyphname = Q;
lastChange = "2020-07-18 18:41:28 +0000";
layers = (
{
anchors = (
{
name = bottom;
position = "{423, 0}";
},
{
name = top;
position = "{423, 588}";
}
);
background = {
anchors = (
{
name = bottom;
position = "{423, 0}";
},
{
name = top;
position = "{423, 588}";
}
);
paths = (
{
closed = 1;
nodes = (
"394 0 LINE SMOOTH",
"450 0 OFFCURVE",
"472 25 OFFCURVE",
"521 36 CURVE SMOOTH",
"556 44 OFFCURVE",
"611 63 OFFCURVE",
"643 84 CURVE SMOOTH",
"706 125 OFFCURVE",
"727 179 OFFCURVE",
"727 279 CURVE SMOOTH",
"727 410 LINE SMOOTH",
"727 525 OFFCURVE",
"685 588 OFFCURVE",
"545 588 CURVE SMOOTH",
"253 588 LINE SMOOTH",
"110 588 OFFCURVE",
"70 525 OFFCURVE",
"70 410 CURVE SMOOTH",
"70 179 LINE SMOOTH",
"70 61 OFFCURVE",
"112 0 OFFCURVE",
"253 0 CURVE SMOOTH"
);
},
{
closed = 1;
nodes = (
"796 -104 OFFCURVE",
"819 -98 OFFCURVE",
"824 -96 CURVE",
"846 -10 LINE",
"833 -10 OFFCURVE",
"751 -2 OFFCURVE",
"686 11 CURVE SMOOTH",
"595 29 OFFCURVE",
"420 66 OFFCURVE",
"294 66 CURVE",
"253 0 LINE",
"433 0 OFFCURVE",
"487 -39 OFFCURVE",
"594 -73 CURVE SMOOTH",
"654 -92 OFFCURVE",
"700 -104 OFFCURVE",
"757 -104 CURVE SMOOTH"
);
},
{
closed = 1;
nodes = (
"233 96 OFFCURVE",
"202 122 OFFCURVE",
"202 167 CURVE SMOOTH",
"202 422 LINE SMOOTH",
"202 464 OFFCURVE",
"234 492 OFFCURVE",
"282 492 CURVE SMOOTH",
"517 492 LINE SMOOTH",
"565 492 OFFCURVE",
"595 460 OFFCURVE",
"595 422 CURVE SMOOTH",
"595 277 LINE SMOOTH",
"595 134 OFFCURVE",
"539 96 OFFCURVE",
"406 96 CURVE SMOOTH",
"282 96 LINE SMOOTH"
);
}
);
};
layerId = "083550D2-F2E8-44E3-BE3D-E8BDF41EDFC4";
paths = (
{
closed = 1;
nodes = (
"394 0 LINE SMOOTH",
"461 0 OFFCURVE",
"605 59 OFFCURVE",
"643 84 CURVE SMOOTH",
"706 125 OFFCURVE",
"727 179 OFFCURVE",
"727 279 CURVE SMOOTH",
"727 410 LINE SMOOTH",
"727 525 OFFCURVE",
"685 588 OFFCURVE",
"545 588 CURVE SMOOTH",
"253 588 LINE SMOOTH",
"110 588 OFFCURVE",
"70 525 OFFCURVE",
"70 410 CURVE SMOOTH",
"70 179 LINE SMOOTH",
"70 61 OFFCURVE",
"112 0 OFFCURVE",
"253 0 CURVE SMOOTH"
);
},
{
closed = 1;
nodes = (
"233 96 OFFCURVE",
"202 122 OFFCURVE",
"202 167 CURVE SMOOTH",
"202 422 LINE SMOOTH",
"202 464 OFFCURVE",
"234 492 OFFCURVE",
"282 492 CURVE SMOOTH",
"517 492 LINE SMOOTH",
"565 492 OFFCURVE",
"595 460 OFFCURVE",
"595 422 CURVE SMOOTH",
"595 277 LINE SMOOTH",
"595 134 OFFCURVE",
"539 96 OFFCURVE",
"406 96 CURVE SMOOTH",
"282 96 LINE SMOOTH"
);
},
{
closed = 1;
nodes = (
"796 -104 OFFCURVE",
"819 -98 OFFCURVE",
"824 -96 CURVE",
"846 -10 LINE",
"833 -9 OFFCURVE",
"751 -2 OFFCURVE",
"686 11 CURVE SMOOTH",
"595 29 OFFCURVE",
"420 66 OFFCURVE",
"294 66 CURVE",
"253 0 LINE",
"433 0 OFFCURVE",
"487 -39 OFFCURVE",
"594 -73 CURVE SMOOTH",
"654 -92 OFFCURVE",
"700 -104 OFFCURVE",
"757 -104 CURVE SMOOTH"
);
}
);
width = 806;
},
{
anchors = (
{
name = bottom;
position = "{423, 0}";
},
{
name = top;
position = "{423, 588}";
}
);
background = {
anchors = (
{
name = bottom;
position = "{423, 0}";
},
{
name = top;
position = "{423, 588}";
}
);
paths = (
{
closed = 1;
nodes = (
"297 86 LINE",
"386 86 OFFCURVE",
"500 64 OFFCURVE",
"596 43 CURVE",
"622 51 OFFCURVE",
"650 63 OFFCURVE",
"680 84 CURVE SMOOTH",
"745 131 OFFCURVE",
"770 183 OFFCURVE",
"770 299 CURVE SMOOTH",
"770 390 LINE SMOOTH",
"770 505 OFFCURVE",
"728 588 OFFCURVE",
"588 588 CURVE SMOOTH",
"253 588 LINE SMOOTH",
"110 588 OFFCURVE",
"70 525 OFFCURVE",
"70 410 CURVE SMOOTH",
"70 179 LINE SMOOTH",
"70 61 OFFCURVE",
"112 0 OFFCURVE",
"253 0 CURVE"
);
},
{
closed = 1;
nodes = (
"840 -136 OFFCURVE",
"862 -128 OFFCURVE",
"867 -126 CURVE",
"899 -10 LINE",
"871 -10 OFFCURVE",
"815 -5 OFFCURVE",
"739 11 CURVE SMOOTH",
"705 18 OFFCURVE",
"654 31 OFFCURVE",
"596 43 CURVE SMOOTH",
"500 64 OFFCURVE",
"386 86 OFFCURVE",
"297 86 CURVE",
"253 0 LINE",
"457 0 OFFCURVE",
"539 -76 OFFCURVE",
"650 -110 CURVE SMOOTH",
"710 -128 OFFCURVE",
"754 -136 OFFCURVE",
"800 -136 CURVE SMOOTH"
);
},
{
closed = 1;
nodes = (
"286 136 OFFCURVE",
"265 157 OFFCURVE",
"265 207 CURVE SMOOTH",
"265 382 LINE SMOOTH",
"265 429 OFFCURVE",
"287 452 OFFCURVE",
"345 452 CURVE SMOOTH",
"497 452 LINE SMOOTH",
"551 452 OFFCURVE",
"575 425 OFFCURVE",
"575 382 CURVE SMOOTH",
"575 317 LINE SMOOTH",
"575 172 OFFCURVE",
"528 136 OFFCURVE",
"386 136 CURVE SMOOTH",
"345 136 LINE SMOOTH"
);
}
);
};
layerId = "C39E0A5F-5A43-41B0-A0DD-85C4534CF186";
paths = (
{
closed = 1;
nodes = (
"386 0 LINE SMOOTH",
"485 0 OFFCURVE",
"610 35 OFFCURVE",
"680 84 CURVE SMOOTH",
"745 131 OFFCURVE",
"770 183 OFFCURVE",
"770 299 CURVE SMOOTH",
"770 390 LINE SMOOTH",
"770 505 OFFCURVE",
"728 588 OFFCURVE",
"588 588 CURVE SMOOTH",
"253 588 LINE SMOOTH",
"110 588 OFFCURVE",
"70 525 OFFCURVE",
"70 410 CURVE SMOOTH",
"70 179 LINE SMOOTH",
"70 61 OFFCURVE",
"112 0 OFFCURVE",
"253 0 CURVE SMOOTH"
);
},
{
closed = 1;
nodes = (
"286 136 OFFCURVE",
"265 157 OFFCURVE",
"265 207 CURVE SMOOTH",
"265 382 LINE SMOOTH",
"265 429 OFFCURVE",
"287 452 OFFCURVE",
"345 452 CURVE SMOOTH",
"497 452 LINE SMOOTH",
"551 452 OFFCURVE",
"575 425 OFFCURVE",
"575 382 CURVE SMOOTH",
"575 317 LINE SMOOTH",
"575 172 OFFCURVE",
"528 136 OFFCURVE",
"386 136 CURVE SMOOTH",
"345 136 LINE SMOOTH"
);
},
{
closed = 1;
nodes = (
"840 -136 OFFCURVE",
"857 -129 OFFCURVE",
"867 -126 CURVE",
"899 -10 LINE",
"871 -10 OFFCURVE",
"815 -6 OFFCURVE",
"710 17 CURVE SMOOTH",
"551 53 OFFCURVE",
"438 81 OFFCURVE",
"297 86 CURVE",
"253 0 LINE",
"457 0 OFFCURVE",
"539 -76 OFFCURVE",
"650 -110 CURVE SMOOTH",
"710 -128 OFFCURVE",
"754 -136 OFFCURVE",
"800 -136 CURVE SMOOTH"
);
}
);
width = 859;
},
{
anchors = (
{
name = bottom;
position = "{413, 0}";
},
{
name = top;
position = "{413, 588}";
}
);
associatedMasterId = "083550D2-F2E8-44E3-BE3D-E8BDF41EDFC4";
layerId = "73A46DDA-2723-4CA9-98D4-1BCC5D1C0CFE";
paths = (
{
closed = 1;
nodes = (
"223 96 OFFCURVE",
"192 122 OFFCURVE",
"192 167 CURVE",
"192 422 LINE",
"192 464 OFFCURVE",
"224 492 OFFCURVE",
"272 492 CURVE",
"320 492 OFFCURVE",
"461 492 OFFCURVE",
"507 492 CURVE",
"555 492 OFFCURVE",
"585 460 OFFCURVE",
"585 422 CURVE",
"585 277 LINE",
"585 134 OFFCURVE",
"529 96 OFFCURVE",
"396 96 CURVE",
"347 96 OFFCURVE",
"320 96 OFFCURVE",
"272 96 CURVE"
);
},
{
closed = 1;
nodes = (
"384 0 LINE",
"440 0 OFFCURVE",
"462 25 OFFCURVE",
"511 36 CURVE",
"546 44 OFFCURVE",
"601 63 OFFCURVE",
"633 84 CURVE",
"696 125 OFFCURVE",
"717 179 OFFCURVE",
"717 279 CURVE",
"717 410 LINE",
"717 525 OFFCURVE",
"675 588 OFFCURVE",
"535 588 CURVE",
"243 588 LINE",
"100 588 OFFCURVE",
"60 525 OFFCURVE",
"60 410 CURVE",
"60 179 LINE",
"60 61 OFFCURVE",
"102 0 OFFCURVE",
"243 0 CURVE"
);
},
{
closed = 1;
nodes = (
"585 39 OFFCURVE",
"410 66 OFFCURVE",
"284 66 CURVE",
"243 0 LINE",
"423 0 OFFCURVE",
"477 -29 OFFCURVE",
"584 -63 CURVE",
"644 -82 OFFCURVE",
"708 -94 OFFCURVE",
"747 -94 CURVE",
"799 -94 OFFCURVE",
"814 -86 OFFCURVE",
"814 -86 CURVE",
"836 0 LINE",
"823 0 OFFCURVE",
"741 8 OFFCURVE",
"676 21 CURVE"
);
}
);
width = 806;
}
);
leftKerningGroup = O;
leftMetricsKey = O;
rightKerningGroup = O;
unicode = 0051;
},
{
color = 8;
glyphname = R;
lastChange = "2020-07-21 04:26:35 +0000";
layers = (
{
anchors = (
{
name = bottom;
position = "{424, 0}";
},
{
name = top;
position = "{384, 588}";
}
);
background = {
anchors = (
{
name = bottom;
position = "{424, 0}";
},
{
name = top;
position = "{384, 588}";
}
);
paths = (
{
closed = 1;
nodes = (
"770 -10 OFFCURVE",
"798 0 OFFCURVE",
"798 0 CURVE",
"818 81 LINE",
"811 81 OFFCURVE",
"758 77 OFFCURVE",
"687 120 CURVE SMOOTH",
"636 151 OFFCURVE",
"618 176 OFFCURVE",
"569 210 CURVE",
"561 215 OFFCURVE",
"553 220 OFFCURVE",
"545 224 CURVE",
"681 233 OFFCURVE",
"705 333 OFFCURVE",
"705 391 CURVE SMOOTH",
"705 410 LINE SMOOTH",
"705 485 OFFCURVE",
"693 589 OFFCURVE",
"523 589 CURVE SMOOTH",
"80 589 LINE",
"90 508 LINE",
"90 0 LINE",
"222 0 LINE",
"222 223 LINE",
"253 223 LINE SMOOTH",
"358 223 OFFCURVE",
"422 196 OFFCURVE",
"481 136 CURVE SMOOTH",
"553 64 LINE SMOOTH",
"618 -1 OFFCURVE",
"666 -10 OFFCURVE",
"719 -10 CURVE SMOOTH"
);
},
{
closed = 1;
nodes = (
"222 493 LINE",
"495 493 LINE SMOOTH",
"554 493 OFFCURVE",
"573 460 OFFCURVE",
"573 417 CURVE SMOOTH",
"573 394 LINE SMOOTH",
"573 353 OFFCURVE",
"552 325 OFFCURVE",
"494 319 CURVE SMOOTH",
"434 313 OFFCURVE",
"346 311 OFFCURVE",
"222 319 CURVE"
);
}
);
};
layerId = "083550D2-F2E8-44E3-BE3D-E8BDF41EDFC4";
paths = (
{
closed = 1;
nodes = (
"756 -10 OFFCURVE",
"786 -4 OFFCURVE",
"798 0 CURVE",
"818 81 LINE",
"811 81 OFFCURVE",
"758 77 OFFCURVE",
"687 120 CURVE SMOOTH",
"661 136 OFFCURVE",
"580 206 OFFCURVE",
"545 224 CURVE",
"681 233 OFFCURVE",
"705 333 OFFCURVE",
"705 391 CURVE SMOOTH",
"705 410 LINE SMOOTH",
"705 485 OFFCURVE",
"693 589 OFFCURVE",
"523 589 CURVE SMOOTH",
"80 589 LINE",
"90 508 LINE",
"90 0 LINE",
"222 0 LINE",
"222 223 LINE",
"253 223 LINE SMOOTH",
"358 223 OFFCURVE",
"422 196 OFFCURVE",
"481 136 CURVE SMOOTH",
"553 64 LINE SMOOTH",
"618 -1 OFFCURVE",
"666 -10 OFFCURVE",
"719 -10 CURVE SMOOTH"
);
},
{
closed = 1;
nodes = (
"329 314 OFFCURVE",
"280 315 OFFCURVE",
"222 319 CURVE",
"222 493 LINE",
"495 493 LINE SMOOTH",
"554 493 OFFCURVE",
"573 460 OFFCURVE",
"573 417 CURVE SMOOTH",
"573 394 LINE SMOOTH",
"573 353 OFFCURVE",
"552 325 OFFCURVE",
"494 319 CURVE SMOOTH",
"462 316 OFFCURVE",
"422 314 OFFCURVE",
"372 314 CURVE SMOOTH"
);
}
);
width = 828;
},
{
anchors = (
{
name = bottom;
position = "{424, 0}";
},
{
name = top;
position = "{384, 588}";
}
);
background = {
anchors = (
{
name = bottom;
position = "{424, 0}";
},
{
name = top;
position = "{384, 588}";
}
);
paths = (
{
closed = 1;
nodes = (
"780 -10 OFFCURVE",
"818 0 OFFCURVE",
"818 0 CURVE",
"848 113 LINE",
"841 113 OFFCURVE",
"783 115 OFFCURVE",
"717 153 CURVE SMOOTH",
"678 175 OFFCURVE",
"651 196 OFFCURVE",
"618 216 CURVE",
"706 243 OFFCURVE",
"745 311 OFFCURVE",
"745 391 CURVE SMOOTH",
"745 410 LINE SMOOTH",
"745 498 OFFCURVE",
"713 589 OFFCURVE",
"543 589 CURVE SMOOTH",
"80 589 LINE",
"90 508 LINE",
"90 0 LINE",
"285 0 LINE",
"285 193 LINE",
"293 193 LINE SMOOTH",
"398 193 OFFCURVE",
"441 165 OFFCURVE",
"501 106 CURVE SMOOTH",
"543 64 LINE SMOOTH",
"607 -1 OFFCURVE",
"676 -10 OFFCURVE",
"729 -10 CURVE SMOOTH"
);
},
{
closed = 1;
nodes = (
"360 326 OFFCURVE",
"318 328 OFFCURVE",
"285 330 CURVE",
"285 451 LINE",
"493 451 LINE SMOOTH",
"537 451 OFFCURVE",
"551 434 OFFCURVE",
"551 405 CURVE SMOOTH",
"551 394 LINE SMOOTH",
"551 360 OFFCURVE",
"537 335 OFFCURVE",
"492 330 CURVE SMOOTH",
"466 327 OFFCURVE",
"434 326 OFFCURVE",
"401 326 CURVE SMOOTH"
);
}
);
};
layerId = "C39E0A5F-5A43-41B0-A0DD-85C4534CF186";
paths = (
{
closed = 1;
nodes = (
"766 -10 OFFCURVE",
"802 -4 OFFCURVE",
"818 0 CURVE",
"848 113 LINE",
"841 113 OFFCURVE",
"783 115 OFFCURVE",
"717 153 CURVE SMOOTH",
"678 175 OFFCURVE",
"651 196 OFFCURVE",
"618 216 CURVE",
"706 243 OFFCURVE",
"745 311 OFFCURVE",
"745 391 CURVE SMOOTH",
"745 410 LINE SMOOTH",
"745 498 OFFCURVE",
"713 589 OFFCURVE",
"543 589 CURVE SMOOTH",
"80 589 LINE",
"90 508 LINE",
"90 0 LINE",
"285 0 LINE",
"285 193 LINE",
"293 193 LINE SMOOTH",
"398 193 OFFCURVE",
"441 165 OFFCURVE",
"501 106 CURVE SMOOTH",
"543 64 LINE SMOOTH",
"607 -1 OFFCURVE",
"676 -10 OFFCURVE",
"729 -10 CURVE SMOOTH"
);
},
{
closed = 1;
nodes = (
"360 326 OFFCURVE",
"318 328 OFFCURVE",
"285 330 CURVE",
"285 451 LINE",
"493 451 LINE SMOOTH",
"537 451 OFFCURVE",
"551 434 OFFCURVE",
"551 405 CURVE SMOOTH",
"551 394 LINE SMOOTH",
"551 360 OFFCURVE",
"537 335 OFFCURVE",
"492 330 CURVE SMOOTH",
"466 327 OFFCURVE",
"434 326 OFFCURVE",
"401 326 CURVE SMOOTH"
);
}
);
width = 858;
},
{
anchors = (
{
name = bottom;
position = "{424, 0}";
},
{
name = top;
position = "{424, 588}";
}
);
associatedMasterId = "083550D2-F2E8-44E3-BE3D-E8BDF41EDFC4";
layerId = "73A46DDA-2723-4CA9-98D4-1BCC5D1C0CFE";
paths = (
{
closed = 1;
nodes = (
"80 589 LINE",
"90 508 LINE",
"90 0 LINE",
"222 0 LINE",
"222 231 LINE",
"222 231 OFFCURVE",
"306 223 OFFCURVE",
"421 223 CURVE",
"523 223 LINE",
"678 223 OFFCURVE",
"705 330 OFFCURVE",
"705 391 CURVE",
"705 410 LINE",
"705 485 OFFCURVE",
"693 589 OFFCURVE",
"523 589 CURVE"
);
},
{
closed = 1;
nodes = (
"434 313 OFFCURVE",
"346 311 OFFCURVE",
"222 319 CURVE",
"222 493 LINE",
"222 493 OFFCURVE",
"447 493 OFFCURVE",
"495 493 CURVE",
"554 493 OFFCURVE",
"573 460 OFFCURVE",
"573 417 CURVE",
"573 394 LINE",
"573 353 OFFCURVE",
"552 325 OFFCURVE",
"494 319 CURVE"
);
},
{
closed = 1;
nodes = (
"636 151 OFFCURVE",
"618 176 OFFCURVE",
"569 210 CURVE",
"514 248 OFFCURVE",
"424 251 OFFCURVE",
"371 251 CURVE",
"213 251 OFFCURVE",
"180 223 OFFCURVE",
"180 223 CURVE",
"253 223 LINE",
"358 223 OFFCURVE",
"422 196 OFFCURVE",
"481 136 CURVE",
"553 64 LINE",
"618 -1 OFFCURVE",
"666 -10 OFFCURVE",
"719 -10 CURVE",
"770 -10 OFFCURVE",
"798 0 OFFCURVE",
"798 0 CURVE",
"818 81 LINE",
"811 81 OFFCURVE",
"758 77 OFFCURVE",
"687 120 CURVE"
);
}
);
width = 808;
}
);
leftKerningGroup = H;
leftMetricsKey = H;
rightKerningGroup = R;
unicode = 0052;
},
{
color = 1;
glyphname = S;
lastChange = "2020-07-18 18:41:28 +0000";
layers = (
{
anchors = (
{
name = bottom;
position = "{388, 0}";
},
{
name = top;
position = "{388, 588}";
}
);
background = {
anchors = (
{
name = bottom;
position = "{388, 0}";
},
{
name = top;
position = "{388, 588}";
}
);
paths = (
{
closed = 1;
nodes = (
"524 0 LINE SMOOTH",
"651 0 OFFCURVE",
"696 67 OFFCURVE",
"696 167 CURVE SMOOTH",
"696 183 LINE SMOOTH",
"696 316 OFFCURVE",
"622 345 OFFCURVE",
"494 345 CURVE SMOOTH",
"272 345 LINE SMOOTH",
"214 345 OFFCURVE",
"192 367 OFFCURVE",
"192 411 CURVE SMOOTH",
"192 428 LINE SMOOTH",
"193 465 OFFCURVE",
"209 493 OFFCURVE",
"271 493 CURVE",
"282 492 LINE",
"565 492 OFFCURVE",
"647 482 OFFCURVE",
"647 482 CURVE",
"667 566 LINE",
"667 577 OFFCURVE",
"606 588 OFFCURVE",
"515 588 CURVE SMOOTH",
"243 588 LINE SMOOTH",
"102 588 OFFCURVE",
"60 513 OFFCURVE",
"60 425 CURVE SMOOTH",
"60 409 LINE SMOOTH",
"60 296 OFFCURVE",
"118 249 OFFCURVE",
"253 249 CURVE SMOOTH",
"485 249 LINE SMOOTH",
"552 249 OFFCURVE",
"564 230 OFFCURVE",
"564 184 CURVE SMOOTH",
"564 164 LINE SMOOTH",
"564 114 OFFCURVE",
"542 96 OFFCURVE",
"485 96 CURVE SMOOTH",
"466 96 LINE SMOOTH",
"173 96 OFFCURVE",
"100 107 OFFCURVE",
"100 107 CURVE",
"60 20 LINE",
"60 9 OFFCURVE",
"101 0 OFFCURVE",
"192 0 CURVE SMOOTH"
);
}
);
};
layerId = "083550D2-F2E8-44E3-BE3D-E8BDF41EDFC4";
paths = (
{
closed = 1;
nodes = (
"524 0 LINE SMOOTH",
"651 0 OFFCURVE",
"696 67 OFFCURVE",
"696 167 CURVE SMOOTH",
"696 183 LINE SMOOTH",
"696 316 OFFCURVE",
"622 345 OFFCURVE",
"494 345 CURVE SMOOTH",
"272 345 LINE SMOOTH",
"214 345 OFFCURVE",
"192 367 OFFCURVE",
"192 411 CURVE SMOOTH",
"192 428 LINE SMOOTH",
"193 465 OFFCURVE",
"209 493 OFFCURVE",
"271 493 CURVE",
"282 492 LINE",
"489 492 OFFCURVE",
"612 486 OFFCURVE",
"647 482 CURVE",
"667 566 LINE",
"667 577 OFFCURVE",
"606 588 OFFCURVE",
"515 588 CURVE SMOOTH",
"243 588 LINE SMOOTH",
"102 588 OFFCURVE",
"60 513 OFFCURVE",
"60 425 CURVE SMOOTH",
"60 409 LINE SMOOTH",
"60 296 OFFCURVE",
"118 249 OFFCURVE",
"253 249 CURVE SMOOTH",
"485 249 LINE SMOOTH",
"552 249 OFFCURVE",
"564 230 OFFCURVE",
"564 184 CURVE SMOOTH",
"564 164 LINE SMOOTH",
"564 114 OFFCURVE",
"542 96 OFFCURVE",
"485 96 CURVE SMOOTH",
"466 96 LINE SMOOTH",
"252 96 OFFCURVE",
"131 102 OFFCURVE",
"100 107 CURVE",
"60 20 LINE",
"60 9 OFFCURVE",
"101 0 OFFCURVE",
"192 0 CURVE SMOOTH"
);
}
);
width = 756;
},
{
anchors = (
{
name = bottom;
position = "{388, 0}";
},
{
name = top;
position = "{388, 588}";
}
);
background = {
anchors = (
{
name = bottom;
position = "{388, 0}";
},
{
name = top;
position = "{388, 588}";
}
);
paths = (
{
closed = 1;
nodes = (
"564 0 LINE SMOOTH",
"691 0 OFFCURVE",
"736 67 OFFCURVE",
"736 167 CURVE SMOOTH",
"736 203 LINE SMOOTH",
"736 336 OFFCURVE",
"662 365 OFFCURVE",
"534 365 CURVE SMOOTH",
"314 365 LINE SMOOTH",
"272 365 OFFCURVE",
"255 375 OFFCURVE",
"255 406 CURVE SMOOTH",
"255 413 LINE SMOOTH",
"256 444 OFFCURVE",
"271 453 OFFCURVE",
"313 453 CURVE SMOOTH",
"385 452 LINE SMOOTH",
"602 452 OFFCURVE",
"687 442 OFFCURVE",
"687 442 CURVE",
"717 566 LINE",
"717 577 OFFCURVE",
"656 588 OFFCURVE",
"575 588 CURVE SMOOTH",
"243 588 LINE SMOOTH",
"102 588 OFFCURVE",
"60 513 OFFCURVE",
"60 425 CURVE SMOOTH",
"60 389 LINE SMOOTH",
"60 276 OFFCURVE",
"118 229 OFFCURVE",
"253 229 CURVE SMOOTH",
"482 229 LINE SMOOTH",
"529 229 OFFCURVE",
"541 219 OFFCURVE",
"541 187 CURVE SMOOTH",
"541 177 LINE SMOOTH",
"541 151 OFFCURVE",
"528 138 OFFCURVE",
"482 138 CURVE SMOOTH",
"403 138 LINE SMOOTH",
"194 138 OFFCURVE",
"121 149 OFFCURVE",
"121 149 CURVE",
"61 20 LINE",
"61 9 OFFCURVE",
"102 0 OFFCURVE",
"193 0 CURVE SMOOTH"
);
}
);
};
layerId = "C39E0A5F-5A43-41B0-A0DD-85C4534CF186";
paths = (
{
closed = 1;
nodes = (
"564 0 LINE SMOOTH",
"691 0 OFFCURVE",
"736 67 OFFCURVE",
"736 167 CURVE SMOOTH",
"736 203 LINE SMOOTH",
"736 336 OFFCURVE",
"662 365 OFFCURVE",
"534 365 CURVE SMOOTH",
"314 365 LINE SMOOTH",
"272 365 OFFCURVE",
"255 375 OFFCURVE",
"255 406 CURVE SMOOTH",
"255 413 LINE SMOOTH",
"256 444 OFFCURVE",
"271 453 OFFCURVE",
"313 453 CURVE SMOOTH",
"385 452 LINE SMOOTH",
"543 452 OFFCURVE",
"650 446 OFFCURVE",
"687 442 CURVE",
"717 566 LINE",
"717 577 OFFCURVE",
"656 588 OFFCURVE",
"575 588 CURVE SMOOTH",
"243 588 LINE SMOOTH",
"102 588 OFFCURVE",
"60 513 OFFCURVE",
"60 425 CURVE SMOOTH",
"60 389 LINE SMOOTH",
"60 276 OFFCURVE",
"118 229 OFFCURVE",
"253 229 CURVE SMOOTH",
"482 229 LINE SMOOTH",
"529 229 OFFCURVE",
"541 219 OFFCURVE",
"541 187 CURVE SMOOTH",
"541 177 LINE SMOOTH",
"541 151 OFFCURVE",
"528 138 OFFCURVE",
"482 138 CURVE SMOOTH",
"403 138 LINE SMOOTH",
"250 138 OFFCURVE",
"152 144 OFFCURVE",
"121 149 CURVE",
"61 20 LINE",
"61 9 OFFCURVE",
"102 0 OFFCURVE",
"193 0 CURVE SMOOTH"
);
}
);
width = 796;
},
{
anchors = (
{
name = bottom;
position = "{388, 0}";
},
{
name = top;
position = "{388, 588}";
}
);
associatedMasterId = "083550D2-F2E8-44E3-BE3D-E8BDF41EDFC4";
layerId = "73A46DDA-2723-4CA9-98D4-1BCC5D1C0CFE";
paths = (
{
closed = 1;
nodes = (
"214 345 OFFCURVE",
"192 367 OFFCURVE",
"192 411 CURVE",
"192 428 LINE",
"193 465 OFFCURVE",
"209 493 OFFCURVE",
"271 493 CURVE",
"282 492 LINE",
"575 492 OFFCURVE",
"657 482 OFFCURVE",
"657 482 CURVE",
"677 566 LINE",
"677 577 OFFCURVE",
"616 588 OFFCURVE",
"525 588 CURVE",
"434 588 OFFCURVE",
"243 588 OFFCURVE",
"243 588 CURVE",
"102 588 OFFCURVE",
"60 513 OFFCURVE",
"60 425 CURVE",
"60 409 LINE",
"60 296 OFFCURVE",
"118 249 OFFCURVE",
"253 249 CURVE",
"345 249 OFFCURVE",
"436 249 OFFCURVE",
"485 249 CURVE",
"552 249 OFFCURVE",
"564 230 OFFCURVE",
"564 184 CURVE",
"564 164 LINE",
"564 114 OFFCURVE",
"542 96 OFFCURVE",
"485 96 CURVE",
"466 96 LINE",
"173 96 OFFCURVE",
"100 107 OFFCURVE",
"100 107 CURVE",
"60 20 LINE",
"60 9 OFFCURVE",
"101 0 OFFCURVE",
"192 0 CURVE",
"524 0 LINE",
"651 0 OFFCURVE",
"696 67 OFFCURVE",
"696 167 CURVE",
"696 183 LINE",
"696 316 OFFCURVE",
"622 345 OFFCURVE",
"494 345 CURVE",
"404 345 OFFCURVE",
"320 345 OFFCURVE",
"272 345 CURVE"
);
}
);
width = 756;
}
);
leftKerningGroup = S;
rightKerningGroup = S;
unicode = 0053;
},
{
glyphname = Germandbls;
lastChange = "2020-07-18 18:41:28 +0000";
layers = (
{
background = {
paths = (
{
closed = 1;
nodes = (
"211 0 LINE",
"211 417 LINE SMOOTH",
"211 531 OFFCURVE",
"253 581 OFFCURVE",
"366 581 CURVE SMOOTH",
"444 581 LINE",
"444 578 LINE",
"352 384 LINE",
"352 341 LINE SMOOTH",
"352 324 OFFCURVE",
"363 311 OFFCURVE",
"383 311 CURVE SMOOTH",
"555 310 LINE SMOOTH",
"591 310 OFFCURVE",
"604 297 OFFCURVE",
"603 268 CURVE SMOOTH",
"603 136 LINE",
"604 111 OFFCURVE",
"594 96 OFFCURVE",
"555 96 CURVE SMOOTH",
"505 96 LINE SMOOTH",
"366 96 OFFCURVE",
"309 107 OFFCURVE",
"309 107 CURVE",
"269 20 LINE",
"269 9 OFFCURVE",
"310 0 OFFCURVE",
"401 0 CURVE SMOOTH",
"603 0 LINE SMOOTH",
"734 0 OFFCURVE",
"735 80 OFFCURVE",
"735 128 CURVE SMOOTH",
"735 286 LINE SMOOTH",
"735 351 OFFCURVE",
"697 406 OFFCURVE",
"593 406 CURVE SMOOTH",
"482 406 LINE",
"586 579 LINE",
"586 661 LINE",
"572 670 OFFCURVE",
"501 689 OFFCURVE",
"374 689 CURVE SMOOTH",
"212 689 OFFCURVE",
"80 630 OFFCURVE",
"80 424 CURVE SMOOTH",
"80 0 LINE"
);
}
);
};
layerId = "083550D2-F2E8-44E3-BE3D-E8BDF41EDFC4";
paths = (
{
closed = 1;
nodes = (
"211 0 LINE",
"211 417 LINE SMOOTH",
"211 531 OFFCURVE",
"253 581 OFFCURVE",
"366 581 CURVE SMOOTH",
"444 581 LINE",
"444 578 LINE",
"352 384 LINE",
"352 341 LINE SMOOTH",
"352 324 OFFCURVE",
"363 311 OFFCURVE",
"383 311 CURVE SMOOTH",
"555 310 LINE SMOOTH",
"591 310 OFFCURVE",
"604 297 OFFCURVE",
"603 268 CURVE SMOOTH",
"603 136 LINE SMOOTH",
"604 111 OFFCURVE",
"594 96 OFFCURVE",
"555 96 CURVE SMOOTH",
"505 96 LINE SMOOTH",
"404 96 OFFCURVE",
"334 102 OFFCURVE",
"309 107 CURVE",
"269 20 LINE",
"269 9 OFFCURVE",
"310 0 OFFCURVE",
"401 0 CURVE SMOOTH",
"603 0 LINE SMOOTH",
"734 0 OFFCURVE",
"735 80 OFFCURVE",
"735 128 CURVE SMOOTH",
"735 286 LINE SMOOTH",
"735 351 OFFCURVE",
"697 406 OFFCURVE",
"593 406 CURVE SMOOTH",
"482 406 LINE",
"586 579 LINE",
"586 661 LINE",
"572 670 OFFCURVE",
"501 689 OFFCURVE",
"374 689 CURVE SMOOTH",
"212 689 OFFCURVE",
"80 630 OFFCURVE",
"80 424 CURVE SMOOTH",
"80 0 LINE"
);
}
);
width = 795;
},
{
background = {
paths = (
{
closed = 1;
nodes = (
"271 0 LINE",
"271 377 LINE SMOOTH",
"271 491 OFFCURVE",
"293 541 OFFCURVE",
"406 541 CURVE SMOOTH",
"424 541 LINE",
"424 538 LINE",
"352 405 LINE",
"352 321 LINE SMOOTH",
"352 304 OFFCURVE",
"363 291 OFFCURVE",
"383 291 CURVE SMOOTH",
"534 290 LINE SMOOTH",
"571 290 OFFCURVE",
"583 277 OFFCURVE",
"582 248 CURVE SMOOTH",
"582 178 LINE SMOOTH",
"583 145 OFFCURVE",
"573 138 OFFCURVE",
"534 138 CURVE SMOOTH",
"505 138 LINE SMOOTH",
"405 138 OFFCURVE",
"359 149 OFFCURVE",
"359 149 CURVE",
"309 30 LINE",
"309 19 OFFCURVE",
"357 0 OFFCURVE",
"481 0 CURVE SMOOTH",
"643 0 LINE SMOOTH",
"774 0 OFFCURVE",
"775 80 OFFCURVE",
"775 128 CURVE SMOOTH",
"775 307 LINE SMOOTH",
"775 372 OFFCURVE",
"737 427 OFFCURVE",
"633 427 CURVE SMOOTH",
"532 427 LINE",
"626 559 LINE",
"626 661 LINE",
"612 670 OFFCURVE",
"501 689 OFFCURVE",
"374 689 CURVE SMOOTH",
"212 689 OFFCURVE",
"80 630 OFFCURVE",
"80 424 CURVE SMOOTH",
"80 0 LINE"
);
}
);
};
layerId = "C39E0A5F-5A43-41B0-A0DD-85C4534CF186";
paths = (
{
closed = 1;
nodes = (
"271 0 LINE",
"271 377 LINE SMOOTH",
"271 491 OFFCURVE",
"293 541 OFFCURVE",
"406 541 CURVE SMOOTH",
"424 541 LINE",
"424 538 LINE",
"352 405 LINE",
"352 321 LINE SMOOTH",
"352 304 OFFCURVE",
"363 291 OFFCURVE",
"383 291 CURVE SMOOTH",
"534 290 LINE SMOOTH",
"571 290 OFFCURVE",
"583 277 OFFCURVE",
"582 248 CURVE SMOOTH",
"582 178 LINE SMOOTH",
"583 145 OFFCURVE",
"573 138 OFFCURVE",
"534 138 CURVE SMOOTH",
"505 138 LINE SMOOTH",
"432 138 OFFCURVE",
"379 144 OFFCURVE",
"359 149 CURVE",
"309 30 LINE",
"309 19 OFFCURVE",
"357 0 OFFCURVE",
"481 0 CURVE SMOOTH",
"643 0 LINE SMOOTH",
"774 0 OFFCURVE",
"775 80 OFFCURVE",
"775 128 CURVE SMOOTH",
"775 307 LINE SMOOTH",
"775 372 OFFCURVE",
"737 427 OFFCURVE",
"633 427 CURVE SMOOTH",
"532 427 LINE",
"626 559 LINE",
"626 661 LINE",
"612 670 OFFCURVE",
"501 689 OFFCURVE",
"374 689 CURVE SMOOTH",
"212 689 OFFCURVE",
"80 630 OFFCURVE",
"80 424 CURVE SMOOTH",
"80 0 LINE"
);
}
);
width = 835;
},
{
associatedMasterId = "083550D2-F2E8-44E3-BE3D-E8BDF41EDFC4";
layerId = "73A46DDA-2723-4CA9-98D4-1BCC5D1C0CFE";
paths = (
{
closed = 1;
nodes = (
"482 406 LINE",
"586 579 LINE",
"586 661 LINE",
"572 670 OFFCURVE",
"501 689 OFFCURVE",
"374 689 CURVE",
"212 689 OFFCURVE",
"80 630 OFFCURVE",
"80 424 CURVE",
"80 0 LINE",
"211 0 LINE",
"211 417 LINE",
"211 531 OFFCURVE",
"253 581 OFFCURVE",
"366 581 CURVE",
"418 581 OFFCURVE",
"444 581 OFFCURVE",
"444 581 CURVE",
"444 578 LINE",
"352 384 LINE",
"352 384 OFFCURVE",
"352 358 OFFCURVE",
"352 341 CURVE",
"352 324 OFFCURVE",
"363 311 OFFCURVE",
"383 311 CURVE",
"403 311 OFFCURVE",
"555 310 OFFCURVE",
"555 310 CURVE",
"591 310 OFFCURVE",
"604 297 OFFCURVE",
"603 268 CURVE",
"603 136 LINE",
"604 111 OFFCURVE",
"594 96 OFFCURVE",
"555 96 CURVE",
"505 96 LINE",
"366 96 OFFCURVE",
"309 107 OFFCURVE",
"309 107 CURVE",
"269 20 LINE",
"269 9 OFFCURVE",
"310 0 OFFCURVE",
"401 0 CURVE",
"603 0 LINE",
"734 0 OFFCURVE",
"735 80 OFFCURVE",
"735 128 CURVE",
"735 286 LINE",
"735 351 OFFCURVE",
"697 406 OFFCURVE",
"593 406 CURVE"
);
}
);
width = 795;
}
);
leftKerningGroup = Germandbls;
leftMetricsKey = H;
rightKerningGroup = Germandbls;
rightMetricsKey = B;
unicode = 1E9E;
},
{
glyphname = Schwa;
lastChange = "2020-07-18 18:41:28 +0000";
layers = (
{
background = {
paths = (
{
closed = 1;
nodes = (
"367 0 LINE SMOOTH",
"442 0 OFFCURVE",
"528 0 OFFCURVE",
"588 32 CURVE SMOOTH",
"638 58 OFFCURVE",
"664 96 OFFCURVE",
"664 162 CURVE SMOOTH",
"664 450 LINE SMOOTH",
"664 490 OFFCURVE",
"664 588 OFFCURVE",
"532 588 CURVE SMOOTH",
"482 588 LINE SMOOTH",
"245 588 OFFCURVE",
"152 587 OFFCURVE",
"152 568 CURVE",
"163 482 LINE",
"163 482 OFFCURVE",
"245 492 OFFCURVE",
"444 492 CURVE SMOOTH",
"483 492 LINE SMOOTH",
"531 492 OFFCURVE",
"531 452 OFFCURVE",
"531 452 CURVE",
"531 311 LINE",
"477 317 OFFCURVE",
"407 319 OFFCURVE",
"297 319 CURVE SMOOTH",
"50 319 LINE",
"50 133 LINE SMOOTH",
"50 50 OFFCURVE",
"93 0 OFFCURVE",
"194 0 CURVE SMOOTH"
);
},
{
closed = 1;
nodes = (
"199 96 OFFCURVE",
"182 111 OFFCURVE",
"182 148 CURVE SMOOTH",
"182 233 LINE",
"531 233 LINE",
"531 186 LINE SMOOTH",
"531 112 OFFCURVE",
"496 96 OFFCURVE",
"440 96 CURVE SMOOTH",
"230 96 LINE SMOOTH"
);
}
);
};
layerId = "083550D2-F2E8-44E3-BE3D-E8BDF41EDFC4";
paths = (
{
closed = 1;
nodes = (
"367 0 LINE SMOOTH",
"442 0 OFFCURVE",
"528 0 OFFCURVE",
"588 32 CURVE SMOOTH",
"638 58 OFFCURVE",
"664 96 OFFCURVE",
"664 162 CURVE SMOOTH",
"664 450 LINE SMOOTH",
"664 490 OFFCURVE",
"664 588 OFFCURVE",
"532 588 CURVE SMOOTH",
"482 588 LINE SMOOTH",
"245 588 OFFCURVE",
"152 587 OFFCURVE",
"152 568 CURVE",
"163 482 LINE",
"198 486 OFFCURVE",
"299 492 OFFCURVE",
"444 492 CURVE SMOOTH",
"483 492 LINE SMOOTH",
"518 492 OFFCURVE",
"531 469 OFFCURVE",
"531 452 CURVE SMOOTH",
"531 311 LINE",
"477 317 OFFCURVE",
"407 319 OFFCURVE",
"297 319 CURVE SMOOTH",
"50 319 LINE",
"50 133 LINE SMOOTH",
"50 50 OFFCURVE",
"93 0 OFFCURVE",
"194 0 CURVE SMOOTH"
);
},
{
closed = 1;
nodes = (
"199 96 OFFCURVE",
"182 111 OFFCURVE",
"182 148 CURVE SMOOTH",
"182 233 LINE",
"531 233 LINE",
"531 186 LINE SMOOTH",
"531 112 OFFCURVE",
"496 96 OFFCURVE",
"440 96 CURVE SMOOTH",
"230 96 LINE SMOOTH"
);
}
);
width = 719;
},
{
background = {
paths = (
{
closed = 1;
nodes = (
"387 0 LINE SMOOTH",
"462 0 OFFCURVE",
"548 0 OFFCURVE",
"608 32 CURVE SMOOTH",
"658 58 OFFCURVE",
"684 97 OFFCURVE",
"684 182 CURVE SMOOTH",
"684 450 LINE SMOOTH",
"684 490 OFFCURVE",
"684 588 OFFCURVE",
"552 588 CURVE SMOOTH",
"441 588 LINE SMOOTH",
"204 588 OFFCURVE",
"111 587 OFFCURVE",
"111 568 CURVE",
"122 442 LINE",
"122 442 OFFCURVE",
"141 452 OFFCURVE",
"340 452 CURVE SMOOTH",
"440 452 LINE SMOOTH",
"488 452 OFFCURVE",
"488 412 OFFCURVE",
"488 412 CURVE",
"488 353 LINE",
"434 359 OFFCURVE",
"364 361 OFFCURVE",
"254 361 CURVE SMOOTH",
"50 361 LINE",
"50 133 LINE SMOOTH",
"50 50 OFFCURVE",
"113 0 OFFCURVE",
"214 0 CURVE SMOOTH"
);
},
{
closed = 1;
nodes = (
"255 137 OFFCURVE",
"244 152 OFFCURVE",
"244 189 CURVE SMOOTH",
"244 233 LINE",
"488 233 LINE",
"488 186 LINE SMOOTH",
"488 152 OFFCURVE",
"473 137 OFFCURVE",
"428 137 CURVE SMOOTH",
"292 137 LINE SMOOTH"
);
}
);
};
layerId = "C39E0A5F-5A43-41B0-A0DD-85C4534CF186";
paths = (
{
closed = 1;
nodes = (
"387 0 LINE SMOOTH",
"462 0 OFFCURVE",
"548 0 OFFCURVE",
"608 32 CURVE SMOOTH",
"658 58 OFFCURVE",
"684 97 OFFCURVE",
"684 182 CURVE SMOOTH",
"684 450 LINE SMOOTH",
"684 490 OFFCURVE",
"684 588 OFFCURVE",
"552 588 CURVE SMOOTH",
"441 588 LINE SMOOTH",
"204 588 OFFCURVE",
"111 587 OFFCURVE",
"111 568 CURVE",
"122 442 LINE",
"130 446 OFFCURVE",
"195 452 OFFCURVE",
"340 452 CURVE SMOOTH",
"440 452 LINE SMOOTH",
"475 452 OFFCURVE",
"488 429 OFFCURVE",
"488 412 CURVE SMOOTH",
"488 353 LINE",
"434 359 OFFCURVE",
"364 361 OFFCURVE",
"254 361 CURVE SMOOTH",
"50 361 LINE",
"50 133 LINE SMOOTH",
"50 50 OFFCURVE",
"113 0 OFFCURVE",
"214 0 CURVE SMOOTH"
);
},
{
closed = 1;
nodes = (
"255 137 OFFCURVE",
"244 152 OFFCURVE",
"244 189 CURVE SMOOTH",
"244 233 LINE",
"488 233 LINE",
"488 186 LINE SMOOTH",
"488 152 OFFCURVE",
"473 137 OFFCURVE",
"428 137 CURVE SMOOTH",
"292 137 LINE SMOOTH"
);
}
);
width = 739;
},
{
associatedMasterId = "083550D2-F2E8-44E3-BE3D-E8BDF41EDFC4";
layerId = "73A46DDA-2723-4CA9-98D4-1BCC5D1C0CFE";
paths = (
{
closed = 1;
nodes = (
"534 314 OFFCURVE",
"460 319 OFFCURVE",
"297 319 CURVE",
"50 319 LINE",
"50 319 OFFCURVE",
"50 219 OFFCURVE",
"50 133 CURVE",
"50 50 OFFCURVE",
"93 0 OFFCURVE",
"194 0 CURVE",
"367 0 LINE",
"442 0 OFFCURVE",
"528 0 OFFCURVE",
"588 32 CURVE",
"638 58 OFFCURVE",
"664 96 OFFCURVE",
"664 162 CURVE",
"664 170 OFFCURVE",
"664 186 OFFCURVE",
"664 186 CURVE",
"531 186 LINE",
"531 112 OFFCURVE",
"496 96 OFFCURVE",
"440 96 CURVE",
"230 96 LINE",
"199 96 OFFCURVE",
"182 111 OFFCURVE",
"182 148 CURVE",
"182 185 OFFCURVE",
"182 233 OFFCURVE",
"182 233 CURVE",
"333 233 LINE",
"530 233 OFFCURVE",
"530 233 OFFCURVE",
"602 233 CURVE",
"602 299 LINE"
);
},
{
closed = 1;
nodes = (
"483 492 LINE",
"531 492 OFFCURVE",
"531 452 OFFCURVE",
"531 452 CURVE",
"531 121 LINE",
"664 162 LINE",
"664 450 LINE",
"664 490 OFFCURVE",
"664 588 OFFCURVE",
"532 588 CURVE",
"482 588 LINE",
"245 588 OFFCURVE",
"152 587 OFFCURVE",
"152 568 CURVE",
"163 482 LINE",
"163 482 OFFCURVE",
"245 492 OFFCURVE",
"444 492 CURVE"
);
}
);
width = 724;
}
);
leftKerningGroup = O;
rightKerningGroup = O;
rightMetricsKey = a;
unicode = 018F;
},
{
color = 1;
glyphname = T;
lastChange = "2020-07-21 04:37:03 +0000";
layers = (
{
anchors = (
{
name = bottom;
position = "{348, 0}";
},
{
name = center;
position = "{347, 294}";
},
{
name = top;
position = "{347, 588}";
}
);
background = {
anchors = (
{
name = bottom;
position = "{347, 0}";
},
{
name = center;
position = "{347, 294}";
},
{
name = top;
position = "{347, 588}";
}
);
paths = (
{
closed = 1;
nodes = (
"413 0 LINE",
"413 493 LINE",
"674 493 LINE",
"674 589 LINE",
"20 589 LINE",
"20 493 LINE",
"280 493 LINE",
"281 0 LINE"
);
}
);
};
layerId = "083550D2-F2E8-44E3-BE3D-E8BDF41EDFC4";
paths = (
{
closed = 1;
nodes = (
"413 0 LINE",
"413 493 LINE",
"674 493 LINE",
"674 589 LINE",
"20 589 LINE",
"20 493 LINE",
"280 493 LINE",
"281 0 LINE"
);
}
);
width = 694;
},
{
anchors = (
{
name = bottom;
position = "{357, 0}";
},
{
name = center;
position = "{357, 294}";
},
{
name = top;
position = "{357, 588}";
}
);
background = {
anchors = (
{
name = bottom;
position = "{357, 0}";
},
{
name = center;
position = "{357, 294}";
},
{
name = top;
position = "{357, 588}";
}
);
paths = (
{
closed = 1;
nodes = (
"452 0 LINE",
"452 453 LINE",
"693 453 LINE",
"693 589 LINE",
"20 589 LINE",
"20 453 LINE",
"258 453 LINE",
"258 0 LINE"
);
}
);
};
layerId = "C39E0A5F-5A43-41B0-A0DD-85C4534CF186";
paths = (
{
closed = 1;
nodes = (
"452 0 LINE",
"452 453 LINE",
"693 453 LINE",
"693 589 LINE",
"20 589 LINE",
"20 453 LINE",
"258 453 LINE",
"258 0 LINE"
);
}
);
width = 713;
},
{
anchors = (
{
name = bottom;
position = "{347, 0}";
},
{
name = center;
position = "{347, 294}";
},
{
name = top;
position = "{347, 588}";
}
);
associatedMasterId = "083550D2-F2E8-44E3-BE3D-E8BDF41EDFC4";
layerId = "73A46DDA-2723-4CA9-98D4-1BCC5D1C0CFE";
paths = (
{
closed = 1;
nodes = (
"413 0 LINE",
"413 493 LINE",
"674 493 LINE",
"674 589 LINE",
"20 589 LINE",
"20 493 LINE",
"280 493 LINE",
"281 0 LINE"
);
}
);
width = 694;
}
);
leftKerningGroup = T;
rightKerningGroup = T;
unicode = 0054;
},
{
color = 1;
glyphname = U;
lastChange = "2020-07-21 04:44:24 +0000";
layers = (
{
anchors = (
{
name = bottom;
position = "{383, 0}";
},
{
name = ogonek;
position = "{452, 8}";
},
{
name = top;
position = "{385, 578}";
},
{
name = topright;
position = "{741, 588}";
}
);
background = {
anchors = (
{
name = bottom;
position = "{383, 0}";
},
{
name = ogonek;
position = "{642, 28}";
},
{
name = top;
position = "{385, 578}";
},
{
name = topright;
position = "{741, 588}";
}
);
paths = (
{
closed = 1;
nodes = (
"539 -10 LINE SMOOTH",
"662 -10 OFFCURVE",
"701 61 OFFCURVE",
"701 169 CURVE SMOOTH",
"701 588 LINE",
"569 588 LINE",
"569 165 LINE SMOOTH",
"569 103 OFFCURVE",
"532 86 OFFCURVE",
"489 86 CURVE SMOOTH",
"277 86 LINE SMOOTH",
"231 86 OFFCURVE",
"197 102 OFFCURVE",
"197 165 CURVE SMOOTH",
"197 588 LINE",
"65 588 LINE",
"65 169 LINE SMOOTH",
"65 61 OFFCURVE",
"106 -10 OFFCURVE",
"228 -10 CURVE SMOOTH"
);
}
);
};
layerId = "083550D2-F2E8-44E3-BE3D-E8BDF41EDFC4";
paths = (
{
closed = 1;
nodes = (
"539 -10 LINE SMOOTH",
"662 -10 OFFCURVE",
"701 61 OFFCURVE",
"701 169 CURVE SMOOTH",
"701 588 LINE",
"569 588 LINE",
"569 165 LINE SMOOTH",
"569 103 OFFCURVE",
"532 86 OFFCURVE",
"489 86 CURVE SMOOTH",
"277 86 LINE SMOOTH",
"231 86 OFFCURVE",
"197 102 OFFCURVE",
"197 165 CURVE SMOOTH",
"197 588 LINE",
"65 588 LINE",
"65 169 LINE SMOOTH",
"65 61 OFFCURVE",
"106 -10 OFFCURVE",
"228 -10 CURVE SMOOTH"
);
}
);
width = 766;
},
{
anchors = (
{
name = bottom;
position = "{413, 0}";
},
{
name = ogonek;
position = "{482, 8}";
},
{
name = top;
position = "{405, 588}";
},
{
name = topright;
position = "{741, 588}";
}
);
background = {
anchors = (
{
name = bottom;
position = "{413, 0}";
},
{
name = ogonek;
position = "{642, 28}";
},
{
name = top;
position = "{405, 588}";
},
{
name = topright;
position = "{741, 588}";
}
);
paths = (
{
closed = 1;
nodes = (
"539 -10 LINE SMOOTH",
"673 -10 OFFCURVE",
"741 49 OFFCURVE",
"741 189 CURVE SMOOTH",
"741 588 LINE",
"549 588 LINE",
"549 207 LINE SMOOTH",
"549 145 OFFCURVE",
"512 128 OFFCURVE",
"469 128 CURVE SMOOTH",
"340 128 LINE SMOOTH",
"294 128 OFFCURVE",
"260 144 OFFCURVE",
"260 207 CURVE SMOOTH",
"260 588 LINE",
"65 588 LINE",
"65 189 LINE SMOOTH",
"65 49 OFFCURVE",
"135 -10 OFFCURVE",
"268 -10 CURVE SMOOTH"
);
}
);
};
layerId = "C39E0A5F-5A43-41B0-A0DD-85C4534CF186";
paths = (
{
closed = 1;
nodes = (
"539 -10 LINE SMOOTH",
"673 -10 OFFCURVE",
"741 49 OFFCURVE",
"741 189 CURVE SMOOTH",
"741 588 LINE",
"549 588 LINE",
"549 207 LINE SMOOTH",
"549 145 OFFCURVE",
"512 128 OFFCURVE",
"469 128 CURVE SMOOTH",
"340 128 LINE SMOOTH",
"294 128 OFFCURVE",
"260 144 OFFCURVE",
"260 207 CURVE SMOOTH",
"260 588 LINE",
"65 588 LINE",
"65 189 LINE SMOOTH",
"65 49 OFFCURVE",
"135 -10 OFFCURVE",
"268 -10 CURVE SMOOTH"
);
}
);
width = 806;
},
{
anchors = (
{
name = bottom;
position = "{398, 0}";
},
{
name = ogonek;
position = "{657, 28}";
},
{
name = top;
position = "{400, 578}";
},
{
name = topright;
position = "{756, 588}";
}
);
associatedMasterId = "083550D2-F2E8-44E3-BE3D-E8BDF41EDFC4";
layerId = "73A46DDA-2723-4CA9-98D4-1BCC5D1C0CFE";
paths = (
{
closed = 1;
nodes = (
"584 588 OFFCURVE",
"584 223 OFFCURVE",
"584 175 CURVE",
"584 113 OFFCURVE",
"547 96 OFFCURVE",
"504 96 CURVE",
"292 96 LINE",
"246 96 OFFCURVE",
"212 112 OFFCURVE",
"212 175 CURVE",
"212 222 OFFCURVE",
"212 588 OFFCURVE",
"212 588 CURVE",
"80 588 OFFCURVE",
"80 588 OFFCURVE",
"80 588 CURVE",
"80 179 LINE",
"80 71 OFFCURVE",
"121 0 OFFCURVE",
"243 0 CURVE",
"554 0 LINE",
"677 0 OFFCURVE",
"716 71 OFFCURVE",
"716 179 CURVE",
"716 588 LINE",
"584 588 LINE"
);
}
);
width = 796;
}
);
leftKerningGroup = U;
leftMetricsKey = "=H-15";
rightKerningGroup = U;
rightMetricsKey = "=H-15";
unicode = 0055;
},
{
color = 1;
glyphname = V;
lastChange = "2020-07-21 04:40:39 +0000";
layers = (
{
anchors = (
{
name = bottom;
position = "{347, 0}";
},
{
name = top;
position = "{347, 588}";
}
);
background = {
anchors = (
{
name = bottom;
position = "{347, 0}";
},
{
name = top;
position = "{347, 588}";
}
);
paths = (
{
closed = 1;
nodes = (
"449 0 LINE",
"710 527 LINE",
"726 587 LINE",
"590 587 LINE",
"400 182 LINE",
"374 110 LINE",
"365 110 LINE",
"338 182 LINE",
"150 587 LINE",
"10 587 LINE",
"289 0 LINE"
);
}
);
};
layerId = "083550D2-F2E8-44E3-BE3D-E8BDF41EDFC4";
paths = (
{
closed = 1;
nodes = (
"449 0 LINE",
"710 527 LINE",
"726 587 LINE",
"590 587 LINE",
"400 182 LINE",
"374 110 LINE",
"365 110 LINE",
"338 182 LINE",
"150 587 LINE",
"10 587 LINE",
"289 0 LINE"
);
}
);
width = 736;
},
{
anchors = (
{
name = bottom;
position = "{358, 0}";
},
{
name = top;
position = "{358, 588}";
}
);
background = {
anchors = (
{
name = bottom;
position = "{358, 0}";
},
{
name = top;
position = "{358, 588}";
}
);
paths = (
{
closed = 1;
nodes = (
"511 0 LINE",
"762 527 LINE",
"778 587 LINE",
"572 587 LINE",
"421 233 LINE",
"395 151 LINE",
"386 151 LINE",
"359 233 LINE",
"211 587 LINE",
"0 587 LINE",
"270 0 LINE"
);
}
);
};
layerId = "C39E0A5F-5A43-41B0-A0DD-85C4534CF186";
paths = (
{
closed = 1;
nodes = (
"511 0 LINE",
"762 527 LINE",
"778 587 LINE",
"572 587 LINE",
"421 233 LINE",
"395 151 LINE",
"386 151 LINE",
"359 233 LINE",
"211 587 LINE",
"0 587 LINE",
"270 0 LINE"
);
}
);
width = 778;
},
{
anchors = (
{
name = bottom;
position = "{357, 0}";
},
{
name = top;
position = "{357, 588}";
}
);
associatedMasterId = "083550D2-F2E8-44E3-BE3D-E8BDF41EDFC4";
layerId = "73A46DDA-2723-4CA9-98D4-1BCC5D1C0CFE";
paths = (
{
closed = 1;
nodes = (
"600 587 LINE",
"410 192 LINE",
"384 120 LINE",
"375 120 LINE",
"348 192 LINE",
"160 587 LINE",
"20 587 LINE",
"299 0 LINE",
"459 0 LINE",
"720 527 LINE",
"736 587 LINE"
);
}
);
width = 756;
}
);
leftKerningGroup = V;
rightKerningGroup = V;
unicode = 0056;
},
{
color = 1;
glyphname = W;
lastChange = "2020-07-21 04:43:06 +0000";
layers = (
{
anchors = (
{
name = bottom;
position = "{556, 0}";
},
{
name = top;
position = "{556, 588}";
}
);
background = {
anchors = (
{
name = bottom;
position = "{556, 0}";
},
{
name = top;
position = "{556, 588}";
}
);
paths = (
{
closed = 1;
nodes = (
"395 0 LINE",
"530 393 LINE",
"549 457 LINE",
"559 457 LINE",
"579 393 LINE",
"715 0 LINE",
"885 0 LINE",
"1091 527 LINE",
"1101 587 LINE",
"961 587 LINE",
"830 203 LINE",
"807 106 LINE",
"797 106 LINE",
"779 174 LINE",
"640 587 LINE",
"470 587 LINE",
"337 174 LINE",
"324 106 LINE",
"314 106 LINE",
"291 203 LINE",
"150 587 LINE",
"10 587 LINE",
"225 0 LINE"
);
}
);
};
layerId = "083550D2-F2E8-44E3-BE3D-E8BDF41EDFC4";
paths = (
{
closed = 1;
nodes = (
"395 0 LINE",
"530 393 LINE",
"549 457 LINE",
"559 457 LINE",
"579 393 LINE",
"715 0 LINE",
"885 0 LINE",
"1091 527 LINE",
"1101 587 LINE",
"961 587 LINE",
"830 203 LINE",
"807 106 LINE",
"797 106 LINE",
"779 174 LINE",
"640 587 LINE",
"470 587 LINE",
"337 174 LINE",
"324 106 LINE",
"314 106 LINE",
"291 203 LINE",
"150 587 LINE",
"10 587 LINE",
"225 0 LINE"
);
}
);
width = 1111;
},
{
anchors = (
{
name = bottom;
position = "{576, 0}";
},
{
name = top;
position = "{576, 588}";
}
);
background = {
anchors = (
{
name = bottom;
position = "{576, 0}";
},
{
name = top;
position = "{576, 588}";
}
);
paths = (
{
closed = 1;
nodes = (
"447 0 LINE",
"552 323 LINE",
"571 407 LINE",
"581 407 LINE",
"601 323 LINE",
"707 0 LINE",
"937 0 LINE",
"1143 527 LINE",
"1153 587 LINE",
"943 587 LINE",
"852 253 LINE",
"829 166 LINE",
"819 166 LINE",
"801 224 LINE",
"692 587 LINE",
"462 587 LINE",
"359 224 LINE",
"346 166 LINE",
"336 166 LINE",
"313 253 LINE",
"213 587 LINE",
"0 587 LINE",
"214 0 LINE"
);
}
);
};
layerId = "C39E0A5F-5A43-41B0-A0DD-85C4534CF186";
paths = (
{
closed = 1;
nodes = (
"447 0 LINE",
"552 323 LINE",
"571 407 LINE",
"581 407 LINE",
"601 323 LINE",
"707 0 LINE",
"937 0 LINE",
"1143 527 LINE",
"1153 587 LINE",
"943 587 LINE",
"852 253 LINE",
"829 166 LINE",
"819 166 LINE",
"801 224 LINE",
"692 587 LINE",
"462 587 LINE",
"359 224 LINE",
"346 166 LINE",
"336 166 LINE",
"313 253 LINE",
"213 587 LINE",
"0 587 LINE",
"214 0 LINE"
);
}
);
width = 1153;
},
{
anchors = (
{
name = bottom;
position = "{566, 0}";
},
{
name = top;
position = "{566, 588}";
}
);
associatedMasterId = "083550D2-F2E8-44E3-BE3D-E8BDF41EDFC4";
layerId = "73A46DDA-2723-4CA9-98D4-1BCC5D1C0CFE";
paths = (
{
closed = 1;
nodes = (
"405 0 LINE",
"540 373 LINE",
"559 457 LINE",
"569 457 LINE",
"589 373 LINE",
"725 0 LINE",
"895 0 LINE",
"1101 527 LINE",
"1111 587 LINE",
"971 587 LINE",
"840 213 LINE",
"817 116 LINE",
"807 116 LINE",
"789 184 LINE",
"650 587 LINE",
"480 587 LINE",
"347 184 LINE",
"334 116 LINE",
"324 116 LINE",
"301 213 LINE",
"160 587 LINE",
"20 587 LINE",
"235 0 LINE"
);
}
);
width = 1131;
}
);
leftKerningGroup = W;
leftMetricsKey = V;
rightKerningGroup = W;
rightMetricsKey = V;
unicode = 0057;
},
{
color = 8;
glyphname = X;
lastChange = "2020-07-21 04:50:14 +0000";
layers = (
{
anchors = (
{
name = bottom;
position = "{369, 0}";
},
{
name = top;
position = "{369, 588}";
}
);
background = {
anchors = (
{
name = bottom;
position = "{369, 0}";
},
{
name = top;
position = "{369, 588}";
}
);
paths = (
{
closed = 1;
nodes = (
"170 0 LINE",
"363 223 LINE",
"374 223 LINE",
"568 0 LINE",
"728 0 LINE",
"497 263 LINE",
"468 294 LINE",
"497 327 LINE",
"689 529 LINE",
"728 588 LINE",
"568 588 LINE",
"374 367 LINE",
"363 367 LINE",
"170 588 LINE",
"10 588 LINE",
"270 294 LINE",
"241 263 LINE",
"48 60 LINE",
"10 0 LINE"
);
}
);
};
layerId = "083550D2-F2E8-44E3-BE3D-E8BDF41EDFC4";
paths = (
{
closed = 1;
nodes = (
"170 0 LINE",
"363 223 LINE",
"374 223 LINE",
"568 0 LINE",
"728 0 LINE",
"468 294 LINE",
"689 529 LINE",
"728 588 LINE",
"568 588 LINE",
"374 367 LINE",
"363 367 LINE",
"170 588 LINE",
"10 588 LINE",
"270 294 LINE",
"48 60 LINE",
"10 0 LINE"
);
}
);
width = 738;
},
{
anchors = (
{
name = bottom;
position = "{369, 0}";
},
{
name = top;
position = "{369, 588}";
}
);
background = {
anchors = (
{
name = bottom;
position = "{369, 0}";
},
{
name = top;
position = "{369, 588}";
}
);
paths = (
{
closed = 1;
nodes = (
"251 0 LINE",
"374 182 LINE",
"385 182 LINE",
"508 0 LINE",
"759 0 LINE",
"538 263 LINE",
"509 294 LINE",
"538 327 LINE",
"720 529 LINE",
"759 588 LINE",
"508 588 LINE",
"385 407 LINE",
"374 407 LINE",
"251 588 LINE",
"0 588 LINE",
"221 327 LINE",
"250 294 LINE",
"221 263 LINE",
"38 60 LINE",
"0 0 LINE"
);
}
);
};
layerId = "C39E0A5F-5A43-41B0-A0DD-85C4534CF186";
paths = (
{
closed = 1;
nodes = (
"251 0 LINE",
"374 182 LINE",
"385 182 LINE",
"508 0 LINE",
"759 0 LINE",
"509 294 LINE",
"720 529 LINE",
"759 588 LINE",
"508 588 LINE",
"385 407 LINE",
"374 407 LINE",
"251 588 LINE",
"0 588 LINE",
"250 294 LINE",
"38 60 LINE",
"0 0 LINE"
);
}
);
width = 759;
},
{
anchors = (
{
name = bottom;
position = "{379, 0}";
},
{
name = top;
position = "{379, 588}";
}
);
associatedMasterId = "083550D2-F2E8-44E3-BE3D-E8BDF41EDFC4";
layerId = "73A46DDA-2723-4CA9-98D4-1BCC5D1C0CFE";
paths = (
{
closed = 1;
nodes = (
"180 0 LINE",
"373 223 LINE",
"384 223 LINE",
"578 0 LINE",
"738 0 LINE",
"507 263 LINE",
"478 294 LINE",
"507 327 LINE",
"699 529 LINE",
"738 588 LINE",
"578 588 LINE",
"384 367 LINE",
"373 367 LINE",
"373 367 OFFCURVE",
"180 588 OFFCURVE",
"180 588 CURVE",
"20 588 LINE",
"251 327 LINE",
"280 294 LINE",
"251 263 LINE",
"58 60 LINE",
"20 0 LINE"
);
}
);
width = 758;
}
);
leftKerningGroup = X;
leftMetricsKey = V;
rightKerningGroup = X;
rightMetricsKey = V;
unicode = 0058;
},
{
color = 1;
glyphname = Y;
lastChange = "2020-07-21 04:43:30 +0000";
layers = (
{
anchors = (
{
name = bottom;
position = "{369, 0}";
},
{
name = top;
position = "{369, 588}";
},
{
name = topleft;
position = "{20, 588}";
}
);
background = {
anchors = (
{
name = bottom;
position = "{369, 0}";
},
{
name = top;
position = "{369, 588}";
},
{
name = topleft;
position = "{20, 588}";
}
);
paths = (
{
closed = 1;
nodes = (
"433 0 LINE",
"433 240 LINE",
"689 528 LINE",
"728 588 LINE",
"568 588 LINE",
"420 401 LINE",
"374 339 LINE",
"364 339 LINE",
"318 401 LINE",
"170 588 LINE",
"10 588 LINE",
"301 244 LINE",
"301 0 LINE"
);
}
);
};
layerId = "083550D2-F2E8-44E3-BE3D-E8BDF41EDFC4";
paths = (
{
closed = 1;
nodes = (
"433 0 LINE",
"433 240 LINE",
"689 528 LINE",
"728 588 LINE",
"568 588 LINE",
"420 401 LINE",
"374 339 LINE",
"364 339 LINE",
"318 401 LINE",
"170 588 LINE",
"10 588 LINE",
"301 244 LINE",
"301 0 LINE"
);
}
);
width = 738;
},
{
anchors = (
{
name = bottom;
position = "{391, 0}";
},
{
name = top;
position = "{391, 588}";
},
{
name = topleft;
position = "{20, 588}";
}
);
background = {
anchors = (
{
name = bottom;
position = "{391, 0}";
},
{
name = top;
position = "{391, 588}";
},
{
name = topleft;
position = "{20, 588}";
}
);
paths = (
{
closed = 1;
nodes = (
"485 0 LINE",
"485 239 LINE",
"741 528 LINE",
"780 588 LINE",
"539 588 LINE",
"442 451 LINE",
"396 378 LINE",
"386 378 LINE",
"340 451 LINE",
"241 588 LINE",
"0 588 LINE",
"292 243 LINE",
"292 0 LINE"
);
}
);
};
layerId = "C39E0A5F-5A43-41B0-A0DD-85C4534CF186";
paths = (
{
closed = 1;
nodes = (
"485 0 LINE",
"485 239 LINE",
"741 528 LINE",
"780 588 LINE",
"539 588 LINE",
"442 451 LINE",
"396 378 LINE",
"386 378 LINE",
"340 451 LINE",
"241 588 LINE",
"0 588 LINE",
"292 243 LINE",
"292 0 LINE"
);
}
);
width = 780;
},
{
anchors = (
{
name = bottom;
position = "{369, 0}";
},
{
name = top;
position = "{369, 588}";
},
{
name = topleft;
position = "{20, 588}";
}
);
associatedMasterId = "083550D2-F2E8-44E3-BE3D-E8BDF41EDFC4";
layerId = "73A46DDA-2723-4CA9-98D4-1BCC5D1C0CFE";
paths = (
{
closed = 1;
nodes = (
"433 0 LINE",
"433 240 LINE",
"689 528 LINE",
"728 588 LINE",
"568 588 LINE",
"420 401 LINE",
"374 339 LINE",
"364 339 LINE",
"318 401 LINE",
"318 401 OFFCURVE",
"170 588 OFFCURVE",
"170 588 CURVE",
"10 588 LINE",
"301 244 LINE",
"301 0 LINE"
);
}
);
width = 738;
}
);
leftKerningGroup = Y;
leftMetricsKey = V;
rightKerningGroup = Y;
rightMetricsKey = V;
unicode = 0059;
},
{
color = 1;
glyphname = Z;
lastChange = "2020-07-21 04:49:34 +0000";
layers = (
{
anchors = (
{
name = bottom;
position = "{383, 0}";
},
{
name = top;
position = "{383, 588}";
}
);
background = {
anchors = (
{
name = bottom;
position = "{383, 0}";
},
{
name = top;
position = "{383, 588}";
}
);
paths = (
{
closed = 1;
nodes = (
"586 0 LINE SMOOTH",
"706 0 OFFCURVE",
"706 11 OFFCURVE",
"706 11 CURVE",
"666 96 LINE",
"218 96 LINE",
"671 492 LINE",
"671 588 LINE",
"50 588 LINE",
"50 492 LINE",
"494 492 LINE",
"50 97 LINE",
"50 0 LINE"
);
}
);
};
layerId = "083550D2-F2E8-44E3-BE3D-E8BDF41EDFC4";
paths = (
{
closed = 1;
nodes = (
"586 0 LINE SMOOTH",
"674 0 OFFCURVE",
"706 6 OFFCURVE",
"706 11 CURVE",
"666 96 LINE",
"218 96 LINE",
"671 492 LINE",
"671 588 LINE",
"50 588 LINE",
"50 492 LINE",
"494 492 LINE",
"50 97 LINE",
"50 0 LINE"
);
}
);
width = 732;
},
{
anchors = (
{
name = bottom;
position = "{383, 0}";
},
{
name = top;
position = "{383, 588}";
}
);
background = {
anchors = (
{
name = bottom;
position = "{383, 0}";
},
{
name = top;
position = "{383, 588}";
}
);
paths = (
{
closed = 1;
nodes = (
"626 0 LINE SMOOTH",
"746 0 OFFCURVE",
"746 11 OFFCURVE",
"746 11 CURVE",
"686 137 LINE",
"318 137 LINE",
"711 472 LINE",
"711 588 LINE",
"50 588 LINE",
"50 452 LINE",
"434 452 LINE",
"50 117 LINE",
"50 0 LINE"
);
}
);
};
layerId = "C39E0A5F-5A43-41B0-A0DD-85C4534CF186";
paths = (
{
closed = 1;
nodes = (
"626 0 LINE SMOOTH",
"714 0 OFFCURVE",
"746 6 OFFCURVE",
"746 11 CURVE",
"686 137 LINE",
"318 137 LINE",
"711 472 LINE",
"711 588 LINE",
"50 588 LINE",
"50 452 LINE",
"434 452 LINE",
"50 117 LINE",
"50 0 LINE"
);
}
);
width = 776;
},
{
anchors = (
{
name = bottom;
position = "{373, 0}";
},
{
name = top;
position = "{373, 588}";
}
);
associatedMasterId = "083550D2-F2E8-44E3-BE3D-E8BDF41EDFC4";
layerId = "73A46DDA-2723-4CA9-98D4-1BCC5D1C0CFE";
paths = (
{
closed = 1;
nodes = (
"208 96 LINE",
"661 492 LINE",
"661 588 LINE",
"40 588 LINE",
"40 492 LINE",
"484 492 LINE",
"40 97 LINE",
"40 0 LINE",
"40 0 OFFCURVE",
"456 0 OFFCURVE",
"576 0 CURVE",
"696 0 OFFCURVE",
"696 11 OFFCURVE",
"696 11 CURVE",
"656 96 LINE"
);
}
);
width = 736;
}
);
leftKerningGroup = Z;
rightKerningGroup = Z;
unicode = 005A;
},
{
color = 1;
glyphname = a;
lastChange = "2020-07-18 18:41:28 +0000";
layers = (
{
anchors = (
{
name = bottom;
position = "{346, 0}";
},
{
name = ogonek;
position = "{582, 10}";
},
{
name = top;
position = "{346, 448}";
}
);
background = {
anchors = (
{
name = bottom;
position = "{346, 0}";
},
{
name = ogonek;
position = "{582, 10}";
},
{
name = top;
position = "{346, 448}";
}
);
paths = (
{
closed = 1;
nodes = (
"239 0 LINE SMOOTH",
"340 0 OFFCURVE",
"419 10 OFFCURVE",
"475 20 CURVE",
"514 0 LINE",
"596 0 LINE",
"596 320 LINE SMOOTH",
"596 360 OFFCURVE",
"596 448 OFFCURVE",
"464 448 CURVE SMOOTH",
"414 448 LINE SMOOTH",
"177 448 OFFCURVE",
"84 447 OFFCURVE",
"84 428 CURVE",
"95 352 LINE",
"95 352 OFFCURVE",
"177 362 OFFCURVE",
"376 362 CURVE SMOOTH",
"426 362 LINE SMOOTH",
"474 362 OFFCURVE",
"474 340 OFFCURVE",
"474 322 CURVE SMOOTH",
"474 256 LINE",
"422 261 OFFCURVE",
"340 268 OFFCURVE",
"240 268 CURVE SMOOTH",
"189 268 LINE SMOOTH",
"91 268 OFFCURVE",
"45 219 OFFCURVE",
"45 133 CURVE SMOOTH",
"45 50 OFFCURVE",
"88 0 OFFCURVE",
"189 0 CURVE SMOOTH"
);
},
{
closed = 1;
nodes = (
"183 86 OFFCURVE",
"167 101 OFFCURVE",
"167 138 CURVE SMOOTH",
"167 175 OFFCURVE",
"179 192 OFFCURVE",
"215 192 CURVE SMOOTH",
"474 192 LINE",
"474 115 LINE SMOOTH",
"474 87 OFFCURVE",
"473 86 OFFCURVE",
"444 86 CURVE SMOOTH",
"215 86 LINE SMOOTH"
);
}
);
};
layerId = "083550D2-F2E8-44E3-BE3D-E8BDF41EDFC4";
paths = (
{
closed = 1;
nodes = (
"239 0 LINE SMOOTH",
"340 0 OFFCURVE",
"419 10 OFFCURVE",
"475 20 CURVE",
"514 0 LINE",
"596 0 LINE",
"596 320 LINE SMOOTH",
"596 360 OFFCURVE",
"596 448 OFFCURVE",
"464 448 CURVE SMOOTH",
"414 448 LINE SMOOTH",
"177 448 OFFCURVE",
"84 447 OFFCURVE",
"84 428 CURVE",
"95 352 LINE",
"130 356 OFFCURVE",
"231 362 OFFCURVE",
"376 362 CURVE SMOOTH",
"426 362 LINE SMOOTH",
"474 362 OFFCURVE",
"474 340 OFFCURVE",
"474 322 CURVE SMOOTH",
"474 256 LINE",
"422 261 OFFCURVE",
"340 268 OFFCURVE",
"240 268 CURVE SMOOTH",
"189 268 LINE SMOOTH",
"91 268 OFFCURVE",
"45 219 OFFCURVE",
"45 133 CURVE SMOOTH",
"45 50 OFFCURVE",
"88 0 OFFCURVE",
"189 0 CURVE SMOOTH"
);
},
{
closed = 1;
nodes = (
"183 86 OFFCURVE",
"167 101 OFFCURVE",
"167 138 CURVE SMOOTH",
"167 175 OFFCURVE",
"179 192 OFFCURVE",
"215 192 CURVE SMOOTH",
"474 192 LINE",
"474 115 LINE SMOOTH",
"474 87 OFFCURVE",
"473 86 OFFCURVE",
"444 86 CURVE SMOOTH",
"215 86 LINE SMOOTH"
);
}
);
width = 651;
},
{
anchors = (
{
name = bottom;
position = "{346, 0}";
},
{
name = ogonek;
position = "{582, 10}";
},
{
name = top;
position = "{346, 448}";
}
);
background = {
anchors = (
{
name = bottom;
position = "{346, 0}";
},
{
name = ogonek;
position = "{582, 10}";
},
{
name = top;
position = "{346, 448}";
}
);
paths = (
{
closed = 1;
nodes = (
"239 0 LINE SMOOTH",
"330 0 OFFCURVE",
"404 13 OFFCURVE",
"436 20 CURVE",
"475 0 LINE",
"617 0 LINE",
"617 300 LINE SMOOTH",
"617 385 OFFCURVE",
"587 448 OFFCURVE",
"455 448 CURVE SMOOTH",
"355 448 LINE SMOOTH",
"199 448 OFFCURVE",
"85 437 OFFCURVE",
"85 418 CURVE",
"96 312 LINE",
"96 312 OFFCURVE",
"138 322 OFFCURVE",
"337 322 CURVE SMOOTH",
"387 322 LINE SMOOTH",
"435 322 OFFCURVE",
"435 301 OFFCURVE",
"435 282 CURVE SMOOTH",
"435 266 LINE",
"386 271 OFFCURVE",
"314 278 OFFCURVE",
"240 278 CURVE SMOOTH",
"209 278 LINE SMOOTH",
"95 278 OFFCURVE",
"45 237 OFFCURVE",
"45 143 CURVE SMOOTH",
"45 40 OFFCURVE",
"92 0 OFFCURVE",
"209 0 CURVE SMOOTH"
);
},
{
closed = 1;
nodes = (
"241 118 OFFCURVE",
"230 123 OFFCURVE",
"230 148 CURVE SMOOTH",
"230 174 OFFCURVE",
"241 182 OFFCURVE",
"267 182 CURVE SMOOTH",
"435 182 LINE",
"435 147 LINE SMOOTH",
"435 119 OFFCURVE",
"434 118 OFFCURVE",
"405 118 CURVE SMOOTH",
"267 118 LINE SMOOTH"
);
}
);
};
layerId = "C39E0A5F-5A43-41B0-A0DD-85C4534CF186";
paths = (
{
closed = 1;
nodes = (
"239 0 LINE SMOOTH",
"330 0 OFFCURVE",
"404 13 OFFCURVE",
"436 20 CURVE",
"475 0 LINE",
"617 0 LINE",
"617 300 LINE SMOOTH",
"617 385 OFFCURVE",
"587 448 OFFCURVE",
"455 448 CURVE SMOOTH",
"355 448 LINE SMOOTH",
"199 448 OFFCURVE",
"85 437 OFFCURVE",
"85 418 CURVE",
"96 312 LINE",
"114 316 OFFCURVE",
"192 322 OFFCURVE",
"337 322 CURVE SMOOTH",
"387 322 LINE SMOOTH",
"435 322 OFFCURVE",
"435 301 OFFCURVE",
"435 282 CURVE SMOOTH",
"435 266 LINE",
"386 271 OFFCURVE",
"314 278 OFFCURVE",
"240 278 CURVE SMOOTH",
"209 278 LINE SMOOTH",
"95 278 OFFCURVE",
"45 237 OFFCURVE",
"45 143 CURVE SMOOTH",
"45 40 OFFCURVE",
"92 0 OFFCURVE",
"209 0 CURVE SMOOTH"
);
},
{
closed = 1;
nodes = (
"241 118 OFFCURVE",
"230 123 OFFCURVE",
"230 148 CURVE SMOOTH",
"230 174 OFFCURVE",
"241 182 OFFCURVE",
"267 182 CURVE SMOOTH",
"435 182 LINE",
"435 147 LINE SMOOTH",
"435 119 OFFCURVE",
"434 118 OFFCURVE",
"405 118 CURVE SMOOTH",
"267 118 LINE SMOOTH"
);
}
);
width = 672;
},
{
anchors = (
{
name = bottom;
position = "{331, 0}";
},
{
name = ogonek;
position = "{587, 10}";
},
{
name = top;
position = "{351, 448}";
}
);
associatedMasterId = "083550D2-F2E8-44E3-BE3D-E8BDF41EDFC4";
layerId = "73A46DDA-2723-4CA9-98D4-1BCC5D1C0CFE";
paths = (
{
closed = 1;
nodes = (
"601 0 LINE",
"601 320 LINE",
"601 360 OFFCURVE",
"601 448 OFFCURVE",
"469 448 CURVE",
"419 448 LINE",
"182 448 OFFCURVE",
"89 447 OFFCURVE",
"89 428 CURVE",
"100 352 LINE",
"100 352 OFFCURVE",
"182 362 OFFCURVE",
"381 362 CURVE",
"431 362 LINE",
"479 362 OFFCURVE",
"479 322 OFFCURVE",
"479 322 CURVE",
"479 21 LINE",
"519 0 LINE"
);
},
{
closed = 1;
nodes = (
"244 0 LINE",
"478 0 OFFCURVE",
"591 51 OFFCURVE",
"591 51 CURVE",
"591 116 LINE",
"479 116 LINE",
"479 87 OFFCURVE",
"478 86 OFFCURVE",
"449 86 CURVE",
"220 86 LINE",
"188 86 OFFCURVE",
"172 101 OFFCURVE",
"172 138 CURVE",
"172 175 OFFCURVE",
"184 192 OFFCURVE",
"220 192 CURVE",
"270 192 LINE",
"478 192 OFFCURVE",
"539 192 OFFCURVE",
"539 192 CURVE",
"539 248 LINE",
"539 248 OFFCURVE",
"419 268 OFFCURVE",
"245 268 CURVE",
"194 268 LINE",
"96 268 OFFCURVE",
"50 219 OFFCURVE",
"50 133 CURVE",
"50 50 OFFCURVE",
"93 0 OFFCURVE",
"194 0 CURVE"
);
}
);
width = 661;
}
);
leftKerningGroup = a;
rightKerningGroup = n;
rightMetricsKey = n;
unicode = 0061;
},
{
color = 1;
glyphname = a.alt;
lastChange = "2020-07-18 18:41:28 +0000";
layers = (
{
background = {
paths = (
{
closed = 1;
nodes = (
"227 0 LINE SMOOTH",
"329 0 OFFCURVE",
"408 10 OFFCURVE",
"464 20 CURVE",
"503 0 LINE",
"585 0 LINE",
"585 448 LINE",
"503 448 LINE",
"463 437 LINE",
"423 442 OFFCURVE",
"351 448 OFFCURVE",
"228 448 CURVE SMOOTH",
"177 448 LINE SMOOTH",
"45 448 OFFCURVE",
"45 360 OFFCURVE",
"45 320 CURVE SMOOTH",
"45 128 LINE SMOOTH",
"45 80 OFFCURVE",
"44 0 OFFCURVE",
"177 0 CURVE SMOOTH"
);
},
{
closed = 1;
nodes = (
"181 86 OFFCURVE",
"166 99 OFFCURVE",
"167 126 CURVE",
"167 322 LINE SMOOTH",
"167 349 OFFCURVE",
"181 362 OFFCURVE",
"215 362 CURVE SMOOTH",
"266 362 LINE SMOOTH",
"344 362 OFFCURVE",
"418 358 OFFCURVE",
"463 355 CURVE",
"463 116 LINE SMOOTH",
"463 89 OFFCURVE",
"460 86 OFFCURVE",
"432 86 CURVE SMOOTH",
"215 86 LINE SMOOTH"
);
}
);
};
layerId = "083550D2-F2E8-44E3-BE3D-E8BDF41EDFC4";
paths = (
{
closed = 1;
nodes = (
"227 0 LINE SMOOTH",
"329 0 OFFCURVE",
"408 10 OFFCURVE",
"464 20 CURVE",
"503 0 LINE",
"585 0 LINE",
"585 448 LINE",
"503 448 LINE",
"463 437 LINE",
"423 442 OFFCURVE",
"351 448 OFFCURVE",
"228 448 CURVE SMOOTH",
"177 448 LINE SMOOTH",
"45 448 OFFCURVE",
"45 360 OFFCURVE",
"45 320 CURVE SMOOTH",
"45 128 LINE SMOOTH",
"45 80 OFFCURVE",
"44 0 OFFCURVE",
"177 0 CURVE SMOOTH"
);
},
{
closed = 1;
nodes = (
"181 86 OFFCURVE",
"166 99 OFFCURVE",
"167 126 CURVE SMOOTH",
"167 322 LINE SMOOTH",
"167 349 OFFCURVE",
"181 362 OFFCURVE",
"215 362 CURVE SMOOTH",
"266 362 LINE SMOOTH",
"344 362 OFFCURVE",
"418 358 OFFCURVE",
"463 355 CURVE",
"463 116 LINE SMOOTH",
"463 89 OFFCURVE",
"460 86 OFFCURVE",
"432 86 CURVE SMOOTH",
"215 86 LINE SMOOTH"
);
}
);
width = 640;
},
{
background = {
paths = (
{
closed = 1;
nodes = (
"227 0 LINE SMOOTH",
"329 0 OFFCURVE",
"387 10 OFFCURVE",
"443 20 CURVE",
"482 0 LINE",
"627 0 LINE",
"627 448 LINE",
"482 448 LINE",
"442 437 LINE",
"413 441 OFFCURVE",
"325 448 OFFCURVE",
"228 448 CURVE SMOOTH",
"197 448 LINE SMOOTH",
"65 448 OFFCURVE",
"45 375 OFFCURVE",
"45 300 CURVE SMOOTH",
"45 149 LINE SMOOTH",
"45 63 OFFCURVE",
"64 0 OFFCURVE",
"197 0 CURVE SMOOTH"
);
},
{
closed = 1;
nodes = (
"243 126 OFFCURVE",
"229 139 OFFCURVE",
"230 166 CURVE",
"230 282 LINE SMOOTH",
"230 309 OFFCURVE",
"244 322 OFFCURVE",
"278 322 CURVE SMOOTH",
"308 322 LINE SMOOTH",
"362 322 OFFCURVE",
"408 318 OFFCURVE",
"442 315 CURVE",
"442 156 LINE SMOOTH",
"442 129 OFFCURVE",
"439 126 OFFCURVE",
"411 126 CURVE SMOOTH",
"278 126 LINE SMOOTH"
);
}
);
};
layerId = "C39E0A5F-5A43-41B0-A0DD-85C4534CF186";
paths = (
{
closed = 1;
nodes = (
"227 0 LINE SMOOTH",
"329 0 OFFCURVE",
"387 10 OFFCURVE",
"443 20 CURVE",
"482 0 LINE",
"627 0 LINE",
"627 448 LINE",
"482 448 LINE",
"442 437 LINE",
"413 441 OFFCURVE",
"325 448 OFFCURVE",
"228 448 CURVE SMOOTH",
"197 448 LINE SMOOTH",
"65 448 OFFCURVE",
"45 375 OFFCURVE",
"45 300 CURVE SMOOTH",
"45 149 LINE SMOOTH",
"45 63 OFFCURVE",
"64 0 OFFCURVE",
"197 0 CURVE SMOOTH"
);
},
{
closed = 1;
nodes = (
"243 126 OFFCURVE",
"229 139 OFFCURVE",
"230 166 CURVE SMOOTH",
"230 282 LINE SMOOTH",
"230 309 OFFCURVE",
"244 322 OFFCURVE",
"278 322 CURVE SMOOTH",
"308 322 LINE SMOOTH",
"362 322 OFFCURVE",
"408 318 OFFCURVE",
"442 315 CURVE",
"442 156 LINE SMOOTH",
"442 129 OFFCURVE",
"439 126 OFFCURVE",
"411 126 CURVE SMOOTH",
"278 126 LINE SMOOTH"
);
}
);
width = 682;
}
);
leftKerningGroup = a.alt;
leftMetricsKey = a;
rightKerningGroup = a.alt;
rightMetricsKey = a;
},
{
color = 8;
glyphname = ae;
lastChange = "2020-07-18 18:59:51 +0000";
layers = (
{
anchors = (
{
name = bottom;
position = "{529, 0}";
},
{
name = top;
position = "{529, 448}";
}
);
background = {
anchors = (
{
name = bottom;
position = "{529, 0}";
},
{
name = top;
position = "{529, 448}";
}
);
components = (
{
name = e;
transform = "{1, 0, 0, 1, 424, 0}";
}
);
paths = (
{
closed = 1;
nodes = (
"238 0 LINE SMOOTH",
"472 0 OFFCURVE",
"595 71 OFFCURVE",
"595 71 CURVE",
"595 210 LINE SMOOTH",
"595 266 OFFCURVE",
"577 325 OFFCURVE",
"526 379 CURVE SMOOTH",
"484 423 OFFCURVE",
"431 448 OFFCURVE",
"313 448 CURVE SMOOTH",
"293 448 LINE SMOOTH",
"163 448 OFFCURVE",
"83 447 OFFCURVE",
"83 428 CURVE",
"94 352 LINE",
"94 352 OFFCURVE",
"174 362 OFFCURVE",
"305 362 CURVE SMOOTH",
"325 362 LINE SMOOTH",
"432 362 OFFCURVE",
"473 329 OFFCURVE",
"473 272 CURVE SMOOTH",
"473 235 LINE",
"444 264 OFFCURVE",
"339 268 OFFCURVE",
"239 268 CURVE SMOOTH",
"188 268 LINE SMOOTH",
"90 268 OFFCURVE",
"44 219 OFFCURVE",
"44 133 CURVE SMOOTH",
"44 50 OFFCURVE",
"87 0 OFFCURVE",
"188 0 CURVE SMOOTH"
);
},
{
closed = 1;
nodes = (
"182 86 OFFCURVE",
"166 101 OFFCURVE",
"166 138 CURVE SMOOTH",
"166 175 OFFCURVE",
"178 192 OFFCURVE",
"214 192 CURVE SMOOTH",
"312 192 LINE SMOOTH",
"412 192 OFFCURVE",
"473 170 OFFCURVE",
"473 132 CURVE SMOOTH",
"473 115 LINE SMOOTH",
"473 87 OFFCURVE",
"472 86 OFFCURVE",
"443 86 CURVE SMOOTH",
"214 86 LINE SMOOTH"
);
}
);
};
layerId = "083550D2-F2E8-44E3-BE3D-E8BDF41EDFC4";
paths = (
{
closed = 1;
nodes = (
"239 0 LINE SMOOTH",
"405 0 OFFCURVE",
"541 20 OFFCURVE",
"586 71 CURVE",
"586 210 LINE SMOOTH",
"586 378 OFFCURVE",
"485 448 OFFCURVE",
"326 448 CURVE SMOOTH",
"294 448 LINE SMOOTH",
"172 448 OFFCURVE",
"106 440 OFFCURVE",
"83 431 CURVE",
"95 352 LINE",
"129 356 OFFCURVE",
"210 362 OFFCURVE",
"306 362 CURVE SMOOTH",
"326 362 LINE SMOOTH",
"433 362 OFFCURVE",
"474 329 OFFCURVE",
"474 272 CURVE SMOOTH",
"474 235 LINE",
"445 264 OFFCURVE",
"340 268 OFFCURVE",
"240 268 CURVE SMOOTH",
"189 268 LINE SMOOTH",
"91 268 OFFCURVE",
"45 219 OFFCURVE",
"45 133 CURVE SMOOTH",
"45 50 OFFCURVE",
"88 0 OFFCURVE",
"189 0 CURVE SMOOTH"
);
},
{
closed = 1;
nodes = (
"182 86 OFFCURVE",
"166 101 OFFCURVE",
"166 138 CURVE SMOOTH",
"166 175 OFFCURVE",
"178 192 OFFCURVE",
"214 192 CURVE SMOOTH",
"342 192 LINE SMOOTH",
"442 192 OFFCURVE",
"473 166 OFFCURVE",
"473 132 CURVE SMOOTH",
"473 115 LINE SMOOTH",
"473 87 OFFCURVE",
"452 86 OFFCURVE",
"413 86 CURVE SMOOTH",
"214 86 LINE SMOOTH"
);
},
{
closed = 1;
nodes = (
"807 0 LINE SMOOTH",
"938 0 OFFCURVE",
"1004 12 OFFCURVE",
"1004 31 CURVE",
"964 96 LINE",
"911 92 OFFCURVE",
"802 86 OFFCURVE",
"695 86 CURVE SMOOTH",
"644 86 LINE SMOOTH",
"610 86 OFFCURVE",
"595 99 OFFCURVE",
"596 126 CURVE SMOOTH",
"596 181 LINE",
"621 179 OFFCURVE",
"698 172 OFFCURVE",
"818 172 CURVE SMOOTH",
"993 172 LINE",
"993 320 LINE SMOOTH",
"993 413 OFFCURVE",
"953 448 OFFCURVE",
"821 448 CURVE SMOOTH",
"606 448 LINE SMOOTH",
"474 448 OFFCURVE",
"474 360 OFFCURVE",
"474 320 CURVE SMOOTH",
"474 128 LINE SMOOTH",
"474 80 OFFCURVE",
"473 0 OFFCURVE",
"606 0 CURVE SMOOTH"
);
},
{
closed = 1;
nodes = (
"596 322 LINE SMOOTH",
"596 349 OFFCURVE",
"610 362 OFFCURVE",
"644 362 CURVE SMOOTH",
"765 362 LINE SMOOTH",
"871 362 OFFCURVE",
"871 361 OFFCURVE",
"871 322 CURVE SMOOTH",
"871 258 LINE",
"596 258 LINE"
);
}
);
width = 1044;
},
{
anchors = (
{
name = bottom;
position = "{490, 0}";
},
{
name = top;
position = "{510, 448}";
}
);
background = {
anchors = (
{
name = bottom;
position = "{490, 0}";
},
{
name = top;
position = "{510, 448}";
}
);
components = (
{
name = e;
transform = "{1, 0, 0, 1, 385, 0}";
}
);
paths = (
{
closed = 1;
nodes = (
"239 0 LINE SMOOTH",
"470 0 OFFCURVE",
"557 71 OFFCURVE",
"557 71 CURVE",
"557 260 LINE SMOOTH",
"557 345 OFFCURVE",
"505 448 OFFCURVE",
"334 448 CURVE SMOOTH",
"315 448 LINE SMOOTH",
"159 448 OFFCURVE",
"85 437 OFFCURVE",
"85 418 CURVE",
"96 312 LINE",
"96 312 OFFCURVE",
"138 322 OFFCURVE",
"337 322 CURVE SMOOTH",
"387 322 LINE SMOOTH",
"435 322 OFFCURVE",
"435 301 OFFCURVE",
"435 282 CURVE SMOOTH",
"435 256 LINE",
"393 272 OFFCURVE",
"314 278 OFFCURVE",
"240 278 CURVE SMOOTH",
"209 278 LINE SMOOTH",
"95 278 OFFCURVE",
"45 237 OFFCURVE",
"45 143 CURVE SMOOTH",
"45 40 OFFCURVE",
"92 0 OFFCURVE",
"209 0 CURVE SMOOTH"
);
},
{
closed = 1;
nodes = (
"241 118 OFFCURVE",
"230 123 OFFCURVE",
"230 148 CURVE SMOOTH",
"230 174 OFFCURVE",
"241 182 OFFCURVE",
"267 182 CURVE SMOOTH",
"328 182 LINE SMOOTH",
"429 182 OFFCURVE",
"435 158 OFFCURVE",
"435 142 CURVE SMOOTH",
"435 137 LINE SMOOTH",
"435 124 OFFCURVE",
"431 118 OFFCURVE",
"405 118 CURVE SMOOTH",
"267 118 LINE SMOOTH"
);
}
);
};
layerId = "C39E0A5F-5A43-41B0-A0DD-85C4534CF186";
paths = (
{
closed = 1;
nodes = (
"279 0 LINE SMOOTH",
"448 0 OFFCURVE",
"530 50 OFFCURVE",
"557 131 CURVE",
"557 260 LINE SMOOTH",
"557 345 OFFCURVE",
"505 448 OFFCURVE",
"334 448 CURVE SMOOTH",
"295 448 LINE SMOOTH",
"203 448 OFFCURVE",
"128 437 OFFCURVE",
"81 424 CURVE",
"96 312 LINE",
"114 318 OFFCURVE",
"190 326 OFFCURVE",
"313 326 CURVE SMOOTH",
"363 326 LINE SMOOTH",
"435 326 OFFCURVE",
"435 303 OFFCURVE",
"435 282 CURVE SMOOTH",
"435 256 LINE",
"393 272 OFFCURVE",
"314 278 OFFCURVE",
"240 278 CURVE SMOOTH",
"209 278 LINE SMOOTH",
"95 278 OFFCURVE",
"45 237 OFFCURVE",
"45 143 CURVE SMOOTH",
"45 40 OFFCURVE",
"92 0 OFFCURVE",
"209 0 CURVE SMOOTH"
);
},
{
closed = 1;
nodes = (
"241 118 OFFCURVE",
"230 123 OFFCURVE",
"230 148 CURVE SMOOTH",
"230 174 OFFCURVE",
"241 182 OFFCURVE",
"267 182 CURVE SMOOTH",
"328 182 LINE SMOOTH",
"429 182 OFFCURVE",
"435 158 OFFCURVE",
"435 142 CURVE SMOOTH",
"435 137 LINE SMOOTH",
"435 124 OFFCURVE",
"431 118 OFFCURVE",
"405 118 CURVE SMOOTH",
"267 118 LINE SMOOTH"
);
},
{
closed = 1;
nodes = (
"811 0 LINE SMOOTH",
"966 0 OFFCURVE",
"1008 22 OFFCURVE",
"1008 41 CURVE",
"948 136 LINE",
"904 132 OFFCURVE",
"806 126 OFFCURVE",
"699 126 CURVE SMOOTH",
"668 126 LINE SMOOTH",
"634 126 OFFCURVE",
"619 139 OFFCURVE",
"620 166 CURVE SMOOTH",
"620 181 LINE",
"645 179 OFFCURVE",
"702 172 OFFCURVE",
"822 172 CURVE SMOOTH",
"997 172 LINE",
"997 300 LINE SMOOTH",
"997 388 OFFCURVE",
"961 448 OFFCURVE",
"805 448 CURVE SMOOTH",
"598 448 LINE SMOOTH",
"466 448 OFFCURVE",
"435 380 OFFCURVE",
"435 300 CURVE SMOOTH",
"435 149 LINE SMOOTH",
"435 61 OFFCURVE",
"465 0 OFFCURVE",
"598 0 CURVE SMOOTH"
);
},
{
closed = 1;
nodes = (
"620 282 LINE SMOOTH",
"620 309 OFFCURVE",
"634 322 OFFCURVE",
"668 322 CURVE SMOOTH",
"726 322 LINE SMOOTH",
"812 322 OFFCURVE",
"812 321 OFFCURVE",
"812 282 CURVE SMOOTH",
"812 268 LINE",
"620 268 LINE"
);
}
);
width = 1048;
},
{
anchors = (
{
name = bottom;
position = "{535, 0}";
},
{
name = top;
position = "{535, 448}";
}
);
associatedMasterId = "083550D2-F2E8-44E3-BE3D-E8BDF41EDFC4";
components = (
{
name = e;
transform = "{1, 0, 0, 1, 430, 0}";
}
);
layerId = "73A46DDA-2723-4CA9-98D4-1BCC5D1C0CFE";
paths = (
{
closed = 1;
nodes = (
"601 266 OFFCURVE",
"583 325 OFFCURVE",
"532 379 CURVE",
"490 423 OFFCURVE",
"437 448 OFFCURVE",
"319 448 CURVE",
"299 448 LINE",
"169 448 OFFCURVE",
"89 447 OFFCURVE",
"89 428 CURVE",
"100 352 LINE",
"100 352 OFFCURVE",
"180 362 OFFCURVE",
"311 362 CURVE",
"331 362 LINE",
"438 362 OFFCURVE",
"479 329 OFFCURVE",
"479 272 CURVE",
"479 235 LINE",
"450 264 OFFCURVE",
"345 268 OFFCURVE",
"245 268 CURVE",
"194 268 LINE",
"96 268 OFFCURVE",
"50 219 OFFCURVE",
"50 133 CURVE",
"50 50 OFFCURVE",
"93 0 OFFCURVE",
"194 0 CURVE",
"244 0 LINE",
"478 0 OFFCURVE",
"601 71 OFFCURVE",
"601 71 CURVE",
"601 210 LINE"
);
},
{
closed = 1;
nodes = (
"220 86 LINE",
"188 86 OFFCURVE",
"172 101 OFFCURVE",
"172 138 CURVE",
"172 175 OFFCURVE",
"184 192 OFFCURVE",
"220 192 CURVE",
"318 192 LINE",
"418 192 OFFCURVE",
"479 170 OFFCURVE",
"479 132 CURVE",
"479 115 LINE",
"479 87 OFFCURVE",
"478 86 OFFCURVE",
"449 86 CURVE"
);
}
);
width = 1070;
}
);
leftKerningGroup = a;
leftMetricsKey = a;
rightKerningGroup = e;
rightMetricsKey = e;
unicode = 00E6;
},
{
color = 1;
glyphname = b;
lastChange = "2020-07-18 18:41:28 +0000";
layers = (
{
anchors = (
{
name = bottom;
position = "{320, 0}";
},
{
name = top;
position = "{320, 448}";
}
);
background = {
anchors = (
{
name = bottom;
position = "{320, 0}";
},
{
name = top;
position = "{320, 448}";
}
);
paths = (
{
closed = 1;
nodes = (
"142 0 LINE",
"169 14 LINE",
"224 7 OFFCURVE",
"306 0 OFFCURVE",
"417 0 CURVE SMOOTH",
"468 0 LINE SMOOTH",
"600 0 OFFCURVE",
"600 88 OFFCURVE",
"600 128 CURVE SMOOTH",
"600 320 LINE SMOOTH",
"600 368 OFFCURVE",
"601 448 OFFCURVE",
"468 448 CURVE SMOOTH",
"417 448 LINE SMOOTH",
"317 448 OFFCURVE",
"239 442 OFFCURVE",
"182 436 CURVE",
"182 634 LINE",
"60 634 LINE",
"60 0 LINE"
);
},
{
closed = 1;
nodes = (
"184 86 OFFCURVE",
"182 89 OFFCURVE",
"182 117 CURVE SMOOTH",
"182 354 LINE",
"229 358 OFFCURVE",
"295 362 OFFCURVE",
"380 362 CURVE SMOOTH",
"430 362 LINE SMOOTH",
"469 362 OFFCURVE",
"479 351 OFFCURVE",
"478 322 CURVE SMOOTH",
"478 126 LINE SMOOTH",
"478 99 OFFCURVE",
"463 86 OFFCURVE",
"430 86 CURVE SMOOTH",
"213 86 LINE SMOOTH"
);
}
);
};
layerId = "083550D2-F2E8-44E3-BE3D-E8BDF41EDFC4";
paths = (
{
closed = 1;
nodes = (
"142 0 LINE",
"169 14 LINE",
"224 7 OFFCURVE",
"306 0 OFFCURVE",
"417 0 CURVE SMOOTH",
"468 0 LINE SMOOTH",
"600 0 OFFCURVE",
"600 88 OFFCURVE",
"600 128 CURVE SMOOTH",
"600 320 LINE SMOOTH",
"600 368 OFFCURVE",
"601 448 OFFCURVE",
"468 448 CURVE SMOOTH",
"417 448 LINE SMOOTH",
"317 448 OFFCURVE",
"239 442 OFFCURVE",
"182 436 CURVE",
"182 634 LINE",
"60 634 LINE",
"60 0 LINE"
);
},
{
closed = 1;
nodes = (
"184 86 OFFCURVE",
"182 89 OFFCURVE",
"182 117 CURVE SMOOTH",
"182 354 LINE",
"229 358 OFFCURVE",
"295 362 OFFCURVE",
"380 362 CURVE SMOOTH",
"430 362 LINE SMOOTH",
"469 362 OFFCURVE",
"479 351 OFFCURVE",
"478 322 CURVE SMOOTH",
"478 126 LINE SMOOTH",
"478 99 OFFCURVE",
"463 86 OFFCURVE",
"430 86 CURVE SMOOTH",
"213 86 LINE SMOOTH"
);
}
);
width = 650;
},
{
anchors = (
{
name = bottom;
position = "{330, 0}";
},
{
name = top;
position = "{330, 448}";
}
);
background = {
anchors = (
{
name = bottom;
position = "{330, 0}";
},
{
name = top;
position = "{330, 448}";
}
);
paths = (
{
closed = 1;
nodes = (
"202 0 LINE",
"229 14 LINE",
"284 7 OFFCURVE",
"366 0 OFFCURVE",
"477 0 CURVE SMOOTH",
"487 0 LINE SMOOTH",
"611 0 OFFCURVE",
"640 74 OFFCURVE",
"640 149 CURVE SMOOTH",
"640 300 LINE SMOOTH",
"640 383 OFFCURVE",
"617 448 OFFCURVE",
"487 448 CURVE SMOOTH",
"477 448 LINE SMOOTH",
"377 448 OFFCURVE",
"299 442 OFFCURVE",
"242 436 CURVE",
"242 634 LINE",
"60 634 LINE",
"60 0 LINE"
);
},
{
closed = 1;
nodes = (
"244 127 OFFCURVE",
"242 130 OFFCURVE",
"242 158 CURVE SMOOTH",
"242 314 LINE",
"267 317 OFFCURVE",
"327 322 OFFCURVE",
"397 322 CURVE SMOOTH",
"407 322 LINE SMOOTH",
"446 322 OFFCURVE",
"456 311 OFFCURVE",
"455 282 CURVE SMOOTH",
"455 167 LINE SMOOTH",
"455 140 OFFCURVE",
"440 127 OFFCURVE",
"407 127 CURVE SMOOTH",
"273 127 LINE SMOOTH"
);
}
);
};
layerId = "C39E0A5F-5A43-41B0-A0DD-85C4534CF186";
paths = (
{
closed = 1;
nodes = (
"202 0 LINE",
"229 14 LINE",
"284 7 OFFCURVE",
"366 0 OFFCURVE",
"477 0 CURVE SMOOTH",
"487 0 LINE SMOOTH",
"611 0 OFFCURVE",
"640 74 OFFCURVE",
"640 149 CURVE SMOOTH",
"640 300 LINE SMOOTH",
"640 383 OFFCURVE",
"617 448 OFFCURVE",
"487 448 CURVE SMOOTH",
"477 448 LINE SMOOTH",
"377 448 OFFCURVE",
"299 442 OFFCURVE",
"242 436 CURVE",
"242 634 LINE",
"60 634 LINE",
"60 0 LINE"
);
},
{
closed = 1;
nodes = (
"244 127 OFFCURVE",
"242 130 OFFCURVE",
"242 158 CURVE SMOOTH",
"242 314 LINE",
"267 317 OFFCURVE",
"327 322 OFFCURVE",
"397 322 CURVE SMOOTH",
"407 322 LINE SMOOTH",
"446 322 OFFCURVE",
"456 311 OFFCURVE",
"455 282 CURVE SMOOTH",
"455 167 LINE SMOOTH",
"455 140 OFFCURVE",
"440 127 OFFCURVE",
"407 127 CURVE SMOOTH",
"273 127 LINE SMOOTH"
);
}
);
width = 690;
},
{
anchors = (
{
name = bottom;
position = "{330, 0}";
},
{
name = top;
position = "{330, 448}";
}
);
associatedMasterId = "083550D2-F2E8-44E3-BE3D-E8BDF41EDFC4";
layerId = "73A46DDA-2723-4CA9-98D4-1BCC5D1C0CFE";
paths = (
{
closed = 1;
nodes = (
"478 0 LINE",
"610 0 OFFCURVE",
"610 88 OFFCURVE",
"610 128 CURVE",
"610 320 LINE",
"610 368 OFFCURVE",
"611 448 OFFCURVE",
"478 448 CURVE",
"427 448 LINE",
"194 448 OFFCURVE",
"70 418 OFFCURVE",
"70 418 CURVE",
"100 342 LINE",
"100 342 OFFCURVE",
"194 362 OFFCURVE",
"390 362 CURVE",
"440 362 LINE",
"474 362 OFFCURVE",
"489 351 OFFCURVE",
"488 322 CURVE",
"488 126 LINE",
"488 99 OFFCURVE",
"465 86 OFFCURVE",
"440 86 CURVE",
"223 86 LINE",
"193 86 OFFCURVE",
"192 87 OFFCURVE",
"192 117 CURVE",
"100 86 LINE",
"90 30 LINE",
"90 30 OFFCURVE",
"195 0 OFFCURVE",
"427 0 CURVE"
);
},
{
closed = 1;
nodes = (
"152 0 LINE",
"192 21 LINE",
"192 648 LINE",
"70 648 LINE",
"70 0 LINE"
);
}
);
width = 660;
}
);
leftKerningGroup = h;
leftMetricsKey = n;
rightKerningGroup = o;
rightMetricsKey = o;
unicode = 0062;
},
{
color = 1;
glyphname = c;
lastChange = "2020-07-18 18:41:28 +0000";
layers = (
{
anchors = (
{
name = bottom;
position = "{300, 0}";
},
{
name = top;
position = "{320, 448}";
}
);
background = {
anchors = (
{
name = bottom;
position = "{300, 0}";
},
{
name = top;
position = "{320, 448}";
}
);
paths = (
{
closed = 1;
nodes = (
"383 0 LINE SMOOTH",
"514 0 OFFCURVE",
"580 12 OFFCURVE",
"580 31 CURVE",
"540 96 LINE",
"540 96 OFFCURVE",
"417 86 OFFCURVE",
"271 86 CURVE SMOOTH",
"220 86 LINE SMOOTH",
"186 86 OFFCURVE",
"171 99 OFFCURVE",
"172 126 CURVE",
"172 322 LINE SMOOTH",
"172 349 OFFCURVE",
"186 362 OFFCURVE",
"220 362 CURVE SMOOTH",
"271 362 LINE SMOOTH",
"400 362 OFFCURVE",
"531 352 OFFCURVE",
"531 352 CURVE",
"551 428 LINE",
"551 428 OFFCURVE",
"550 448 OFFCURVE",
"321 448 CURVE SMOOTH",
"182 448 LINE SMOOTH",
"50 448 OFFCURVE",
"50 360 OFFCURVE",
"50 320 CURVE SMOOTH",
"50 128 LINE SMOOTH",
"50 80 OFFCURVE",
"49 0 OFFCURVE",
"182 0 CURVE SMOOTH"
);
}
);
};
layerId = "083550D2-F2E8-44E3-BE3D-E8BDF41EDFC4";
paths = (
{
closed = 1;
nodes = (
"383 0 LINE SMOOTH",
"514 0 OFFCURVE",
"580 12 OFFCURVE",
"580 31 CURVE",
"540 96 LINE",
"487 92 OFFCURVE",
"378 86 OFFCURVE",
"271 86 CURVE SMOOTH",
"220 86 LINE SMOOTH",
"186 86 OFFCURVE",
"171 99 OFFCURVE",
"172 126 CURVE SMOOTH",
"172 322 LINE SMOOTH",
"172 349 OFFCURVE",
"186 362 OFFCURVE",
"220 362 CURVE SMOOTH",
"271 362 LINE SMOOTH",
"365 362 OFFCURVE",
"475 356 OFFCURVE",
"531 352 CURVE",
"551 428 LINE",
"551 437 OFFCURVE",
"488 448 OFFCURVE",
"321 448 CURVE SMOOTH",
"182 448 LINE SMOOTH",
"50 448 OFFCURVE",
"50 360 OFFCURVE",
"50 320 CURVE SMOOTH",
"50 128 LINE SMOOTH",
"50 80 OFFCURVE",
"49 0 OFFCURVE",
"182 0 CURVE SMOOTH"
);
}
);
width = 590;
},
{
anchors = (
{
name = bottom;
position = "{300, 0}";
},
{
name = top;
position = "{340, 448}";
}
);
background = {
anchors = (
{
name = bottom;
position = "{300, 0}";
},
{
name = top;
position = "{340, 448}";
}
);
paths = (
{
closed = 1;
nodes = (
"403 0 LINE SMOOTH",
"534 0 OFFCURVE",
"600 22 OFFCURVE",
"600 41 CURVE",
"540 136 LINE",
"507 132 OFFCURVE",
"433 126 OFFCURVE",
"334 126 CURVE SMOOTH",
"283 126 LINE SMOOTH",
"246 126 OFFCURVE",
"235 139 OFFCURVE",
"235 166 CURVE SMOOTH",
"235 282 LINE SMOOTH",
"235 309 OFFCURVE",
"248 322 OFFCURVE",
"283 322 CURVE SMOOTH",
"344 322 LINE SMOOTH",
"432 322 OFFCURVE",
"513 315 OFFCURVE",
"541 312 CURVE",
"571 418 LINE",
"571 418 OFFCURVE",
"550 448 OFFCURVE",
"341 448 CURVE SMOOTH",
"213 448 LINE SMOOTH",
"81 448 OFFCURVE",
"50 380 OFFCURVE",
"50 300 CURVE SMOOTH",
"50 149 LINE SMOOTH",
"50 61 OFFCURVE",
"80 0 OFFCURVE",
"213 0 CURVE SMOOTH"
);
}
);
};
layerId = "C39E0A5F-5A43-41B0-A0DD-85C4534CF186";
paths = (
{
closed = 1;
nodes = (
"403 0 LINE SMOOTH",
"534 0 OFFCURVE",
"600 22 OFFCURVE",
"600 41 CURVE",
"540 136 LINE",
"507 132 OFFCURVE",
"433 126 OFFCURVE",
"334 126 CURVE SMOOTH",
"283 126 LINE SMOOTH",
"246 126 OFFCURVE",
"235 139 OFFCURVE",
"235 166 CURVE SMOOTH",
"235 282 LINE SMOOTH",
"235 309 OFFCURVE",
"248 322 OFFCURVE",
"283 322 CURVE SMOOTH",
"344 322 LINE SMOOTH",
"432 322 OFFCURVE",
"513 315 OFFCURVE",
"541 312 CURVE",
"571 418 LINE",
"562 431 OFFCURVE",
"494 448 OFFCURVE",
"341 448 CURVE SMOOTH",
"213 448 LINE SMOOTH",
"81 448 OFFCURVE",
"50 380 OFFCURVE",
"50 300 CURVE SMOOTH",
"50 149 LINE SMOOTH",
"50 61 OFFCURVE",
"80 0 OFFCURVE",
"213 0 CURVE SMOOTH"
);
}
);
width = 610;
},
{
anchors = (
{
name = bottom;
position = "{300, 0}";
},
{
name = top;
position = "{300, 448}";
}
);
associatedMasterId = "083550D2-F2E8-44E3-BE3D-E8BDF41EDFC4";
layerId = "73A46DDA-2723-4CA9-98D4-1BCC5D1C0CFE";
paths = (
{
closed = 1;
nodes = (
"383 0 LINE",
"514 0 OFFCURVE",
"590 2 OFFCURVE",
"590 21 CURVE",
"540 96 LINE",
"540 96 OFFCURVE",
"417 86 OFFCURVE",
"271 86 CURVE",
"220 86 LINE",
"186 86 OFFCURVE",
"171 99 OFFCURVE",
"172 126 CURVE",
"172 322 LINE",
"172 349 OFFCURVE",
"186 362 OFFCURVE",
"220 362 CURVE",
"271 362 LINE",
"400 362 OFFCURVE",
"531 352 OFFCURVE",
"531 352 CURVE",
"551 428 LINE",
"551 428 OFFCURVE",
"550 448 OFFCURVE",
"321 448 CURVE",
"182 448 LINE",
"50 448 OFFCURVE",
"50 360 OFFCURVE",
"50 320 CURVE",
"50 128 LINE",
"50 80 OFFCURVE",
"49 0 OFFCURVE",
"182 0 CURVE"
);
}
);
width = 600;
}
);
leftKerningGroup = o;
leftMetricsKey = o;
rightKerningGroup = c;
unicode = 0063;
},
{
color = 1;
glyphname = d;
lastChange = "2020-07-18 18:41:28 +0000";
layers = (
{
anchors = (
{
name = bottom;
position = "{330, 0}";
},
{
name = center;
position = "{490, 534}";
},
{
name = top;
position = "{270, 458}";
},
{
name = topright;
position = "{627, 588}";
}
);
background = {
anchors = (
{
name = bottom;
position = "{330, 0}";
},
{
name = center;
position = "{490, 534}";
},
{
name = top;
position = "{270, 458}";
},
{
name = topright;
position = "{630, 448}";
}
);
paths = (
{
closed = 1;
nodes = (
"232 0 LINE SMOOTH",
"334 0 OFFCURVE",
"413 10 OFFCURVE",
"469 20 CURVE",
"508 0 LINE",
"590 0 LINE",
"590 634 LINE",
"468 634 LINE",
"468 437 LINE",
"428 442 OFFCURVE",
"356 448 OFFCURVE",
"233 448 CURVE SMOOTH",
"182 448 LINE SMOOTH",
"50 448 OFFCURVE",
"50 360 OFFCURVE",
"50 320 CURVE SMOOTH",
"50 128 LINE SMOOTH",
"50 80 OFFCURVE",
"49 0 OFFCURVE",
"182 0 CURVE SMOOTH"
);
},
{
closed = 1;
nodes = (
"186 86 OFFCURVE",
"171 99 OFFCURVE",
"172 126 CURVE",
"172 322 LINE SMOOTH",
"172 349 OFFCURVE",
"186 362 OFFCURVE",
"220 362 CURVE SMOOTH",
"271 362 LINE SMOOTH",
"349 362 OFFCURVE",
"423 358 OFFCURVE",
"468 355 CURVE",
"468 116 LINE SMOOTH",
"468 89 OFFCURVE",
"465 86 OFFCURVE",
"437 86 CURVE SMOOTH",
"220 86 LINE SMOOTH"
);
}
);
};
layerId = "083550D2-F2E8-44E3-BE3D-E8BDF41EDFC4";
paths = (
{
closed = 1;
nodes = (
"232 0 LINE SMOOTH",
"334 0 OFFCURVE",
"413 10 OFFCURVE",
"469 20 CURVE",
"508 0 LINE",
"590 0 LINE",
"590 634 LINE",
"468 634 LINE",
"468 437 LINE",
"428 442 OFFCURVE",
"356 448 OFFCURVE",
"233 448 CURVE SMOOTH",
"182 448 LINE SMOOTH",
"50 448 OFFCURVE",
"50 360 OFFCURVE",
"50 320 CURVE SMOOTH",
"50 128 LINE SMOOTH",
"50 80 OFFCURVE",
"49 0 OFFCURVE",
"182 0 CURVE SMOOTH"
);
},
{
closed = 1;
nodes = (
"186 86 OFFCURVE",
"172 99 OFFCURVE",
"172 126 CURVE SMOOTH",
"172 322 LINE SMOOTH",
"172 349 OFFCURVE",
"186 362 OFFCURVE",
"220 362 CURVE SMOOTH",
"271 362 LINE SMOOTH",
"349 362 OFFCURVE",
"423 358 OFFCURVE",
"468 355 CURVE",
"468 116 LINE SMOOTH",
"468 89 OFFCURVE",
"465 86 OFFCURVE",
"437 86 CURVE SMOOTH",
"220 86 LINE SMOOTH"
);
}
);
width = 660;
},
{
anchors = (
{
name = bottom;
position = "{340, 10}";
},
{
name = center;
position = "{540, 534}";
},
{
name = top;
position = "{230, 458}";
},
{
name = topright;
position = "{598, 588}";
}
);
background = {
anchors = (
{
name = bottom;
position = "{340, 10}";
},
{
name = center;
position = "{540, 534}";
},
{
name = top;
position = "{230, 458}";
},
{
name = topright;
position = "{620, 448}";
}
);
paths = (
{
closed = 1;
nodes = (
"232 0 LINE SMOOTH",
"334 0 OFFCURVE",
"392 10 OFFCURVE",
"448 20 CURVE",
"487 0 LINE",
"632 0 LINE",
"632 634 LINE",
"447 634 LINE",
"447 437 LINE",
"418 441 OFFCURVE",
"330 448 OFFCURVE",
"233 448 CURVE SMOOTH",
"202 448 LINE SMOOTH",
"70 448 OFFCURVE",
"50 375 OFFCURVE",
"50 300 CURVE SMOOTH",
"50 149 LINE SMOOTH",
"50 63 OFFCURVE",
"69 0 OFFCURVE",
"202 0 CURVE SMOOTH"
);
},
{
closed = 1;
nodes = (
"248 126 OFFCURVE",
"234 139 OFFCURVE",
"235 166 CURVE",
"235 282 LINE SMOOTH",
"235 309 OFFCURVE",
"249 322 OFFCURVE",
"283 322 CURVE SMOOTH",
"313 322 LINE SMOOTH",
"367 322 OFFCURVE",
"413 318 OFFCURVE",
"447 315 CURVE",
"447 156 LINE SMOOTH",
"447 129 OFFCURVE",
"444 126 OFFCURVE",
"416 126 CURVE SMOOTH",
"283 126 LINE SMOOTH"
);
}
);
};
layerId = "C39E0A5F-5A43-41B0-A0DD-85C4534CF186";
paths = (
{
closed = 1;
nodes = (
"232 0 LINE SMOOTH",
"334 0 OFFCURVE",
"392 10 OFFCURVE",
"448 20 CURVE",
"487 0 LINE",
"632 0 LINE",
"632 634 LINE",
"447 634 LINE",
"447 437 LINE",
"418 441 OFFCURVE",
"330 448 OFFCURVE",
"233 448 CURVE SMOOTH",
"202 448 LINE SMOOTH",
"70 448 OFFCURVE",
"50 375 OFFCURVE",
"50 300 CURVE SMOOTH",
"50 149 LINE SMOOTH",
"50 63 OFFCURVE",
"69 0 OFFCURVE",
"202 0 CURVE SMOOTH"
);
},
{
closed = 1;
nodes = (
"248 126 OFFCURVE",
"235 139 OFFCURVE",
"235 166 CURVE SMOOTH",
"235 282 LINE SMOOTH",
"235 309 OFFCURVE",
"249 322 OFFCURVE",
"283 322 CURVE SMOOTH",
"313 322 LINE SMOOTH",
"367 322 OFFCURVE",
"413 318 OFFCURVE",
"447 315 CURVE",
"447 156 LINE SMOOTH",
"447 129 OFFCURVE",
"444 126 OFFCURVE",
"416 126 CURVE SMOOTH",
"283 126 LINE SMOOTH"
);
}
);
width = 692;
},
{
anchors = (
{
name = bottom;
position = "{320, 0}";
},
{
name = center;
position = "{480, 534}";
},
{
name = top;
position = "{270, 458}";
},
{
name = topright;
position = "{620, 448}";
}
);
associatedMasterId = "083550D2-F2E8-44E3-BE3D-E8BDF41EDFC4";
layerId = "73A46DDA-2723-4CA9-98D4-1BCC5D1C0CFE";
paths = (
{
closed = 1;
nodes = (
"222 0 LINE",
"458 0 OFFCURVE",
"570 51 OFFCURVE",
"570 51 CURVE",
"570 116 LINE",
"458 116 LINE",
"458 87 OFFCURVE",
"457 86 OFFCURVE",
"427 86 CURVE",
"210 86 LINE",
"176 86 OFFCURVE",
"161 99 OFFCURVE",
"162 126 CURVE",
"162 322 LINE",
"162 349 OFFCURVE",
"176 362 OFFCURVE",
"210 362 CURVE",
"261 362 LINE",
"390 362 OFFCURVE",
"505 352 OFFCURVE",
"505 352 CURVE",
"505 428 LINE",
"505 428 OFFCURVE",
"458 448 OFFCURVE",
"223 448 CURVE",
"172 448 LINE",
"40 448 OFFCURVE",
"40 360 OFFCURVE",
"40 320 CURVE",
"40 128 LINE",
"40 80 OFFCURVE",
"39 0 OFFCURVE",
"172 0 CURVE"
);
},
{
closed = 1;
nodes = (
"580 0 LINE",
"580 648 LINE",
"458 648 LINE",
"458 21 LINE",
"498 0 LINE"
);
}
);
width = 640;
}
);
leftKerningGroup = o;
leftMetricsKey = o;
rightKerningGroup = l;
unicode = 0064;
},
{
color = 8;
glyphname = eth;
lastChange = "2020-07-18 19:40:33 +0000";
layers = (
{
background = {
paths = (
{
closed = 1;
nodes = (
"392 0 LINE SMOOTH",
"528 0 OFFCURVE",
"588 84 OFFCURVE",
"590 191 CURVE SMOOTH",
"590 212 LINE SMOOTH",
"590 323 OFFCURVE",
"549 409 OFFCURVE",
"433 525 CURVE SMOOTH",
"409 549 OFFCURVE",
"364 595 OFFCURVE",
"319 639 CURVE",
"412 733 LINE",
"357 787 LINE",
"265 694 LINE",
"229 729 OFFCURVE",
"203 756 OFFCURVE",
"203 756 CURVE",
"119 671 LINE",
"182 610 LINE",
"122 549 LINE",
"177 495 LINE",
"238 557 LINE",
"360 439 LINE",
"355 430 LINE",
"315 442 OFFCURVE",
"283 448 OFFCURVE",
"225 448 CURVE SMOOTH",
"214 448 LINE SMOOTH",
"79 448 OFFCURVE",
"50 349 OFFCURVE",
"50 290 CURVE SMOOTH",
"50 149 LINE SMOOTH",
"50 87 OFFCURVE",
"64 0 OFFCURVE",
"203 0 CURVE SMOOTH"
);
},
{
closed = 1;
nodes = (
"186 86 OFFCURVE",
"171 101 OFFCURVE",
"172 136 CURVE SMOOTH",
"172 292 LINE SMOOTH",
"172 335 OFFCURVE",
"197 362 OFFCURVE",
"241 362 CURVE SMOOTH",
"282 362 LINE SMOOTH",
"435 362 OFFCURVE",
"468 310 OFFCURVE",
"468 214 CURVE SMOOTH",
"468 176 LINE SMOOTH",
"468 120 OFFCURVE",
"434 86 OFFCURVE",
"377 86 CURVE SMOOTH",
"220 86 LINE SMOOTH"
);
}
);
};
layerId = "083550D2-F2E8-44E3-BE3D-E8BDF41EDFC4";
paths = (
{
closed = 1;
nodes = (
"392 0 LINE SMOOTH",
"528 0 OFFCURVE",
"588 84 OFFCURVE",
"590 191 CURVE SMOOTH",
"590 212 LINE SMOOTH",
"590 323 OFFCURVE",
"549 409 OFFCURVE",
"433 525 CURVE SMOOTH",
"409 549 OFFCURVE",
"364 595 OFFCURVE",
"319 639 CURVE",
"384 703 LINE",
"329 757 LINE",
"265 694 LINE",
"203 756 LINE",
"119 671 LINE",
"182 610 LINE",
"122 549 LINE",
"177 495 LINE",
"238 557 LINE",
"360 439 LINE",
"355 430 LINE",
"315 442 OFFCURVE",
"283 448 OFFCURVE",
"225 448 CURVE SMOOTH",
"214 448 LINE SMOOTH",
"79 448 OFFCURVE",
"50 349 OFFCURVE",
"50 290 CURVE SMOOTH",
"50 149 LINE SMOOTH",
"50 87 OFFCURVE",
"64 0 OFFCURVE",
"203 0 CURVE SMOOTH"
);
},
{
closed = 1;
nodes = (
"186 86 OFFCURVE",
"171 101 OFFCURVE",
"172 136 CURVE SMOOTH",
"172 292 LINE SMOOTH",
"172 335 OFFCURVE",
"197 362 OFFCURVE",
"241 362 CURVE SMOOTH",
"282 362 LINE SMOOTH",
"435 362 OFFCURVE",
"468 310 OFFCURVE",
"468 214 CURVE SMOOTH",
"468 176 LINE SMOOTH",
"468 120 OFFCURVE",
"434 86 OFFCURVE",
"377 86 CURVE SMOOTH",
"220 86 LINE SMOOTH"
);
}
);
width = 640;
},
{
background = {
paths = (
{
closed = 1;
nodes = (
"412 0 LINE SMOOTH",
"548 0 OFFCURVE",
"611 83 OFFCURVE",
"611 201 CURVE SMOOTH",
"611 242 LINE SMOOTH",
"611 329 OFFCURVE",
"586 392 OFFCURVE",
"513 465 CURVE SMOOTH",
"485 493 OFFCURVE",
"405 568 OFFCURVE",
"334 634 CURVE",
"412 713 LINE",
"337 787 LINE",
"257 706 LINE",
"203 756 LINE",
"89 631 LINE",
"144 592 LINE",
"102 549 LINE",
"177 475 LINE",
"231 530 LINE",
"360 439 LINE",
"355 430 LINE",
"315 442 OFFCURVE",
"283 448 OFFCURVE",
"225 448 CURVE SMOOTH",
"214 448 LINE SMOOTH",
"79 448 OFFCURVE",
"50 349 OFFCURVE",
"50 290 CURVE SMOOTH",
"50 149 LINE SMOOTH",
"50 65 OFFCURVE",
"98 0 OFFCURVE",
"234 0 CURVE SMOOTH"
);
},
{
closed = 1;
nodes = (
"242 126 OFFCURVE",
"232 139 OFFCURVE",
"233 176 CURVE SMOOTH",
"233 252 LINE SMOOTH",
"233 295 OFFCURVE",
"258 322 OFFCURVE",
"302 322 CURVE SMOOTH",
"322 322 LINE SMOOTH",
"405 322 OFFCURVE",
"426 296 OFFCURVE",
"426 214 CURVE SMOOTH",
"426 196 LINE SMOOTH",
"426 154 OFFCURVE",
"402 126 OFFCURVE",
"355 126 CURVE SMOOTH",
"281 126 LINE SMOOTH"
);
}
);
};
layerId = "C39E0A5F-5A43-41B0-A0DD-85C4534CF186";
paths = (
{
closed = 1;
nodes = (
"412 0 LINE SMOOTH",
"548 0 OFFCURVE",
"611 83 OFFCURVE",
"611 201 CURVE SMOOTH",
"611 242 LINE SMOOTH",
"611 329 OFFCURVE",
"586 392 OFFCURVE",
"513 465 CURVE SMOOTH",
"485 493 OFFCURVE",
"418 561 OFFCURVE",
"357 617 CURVE",
"432 683 LINE",
"357 757 LINE",
"288 683 LINE",
"203 756 LINE",
"107 651 LINE",
"194 586 LINE",
"132 529 LINE",
"205 471 LINE",
"261 530 LINE",
"360 439 LINE",
"355 430 LINE",
"315 442 OFFCURVE",
"283 448 OFFCURVE",
"225 448 CURVE SMOOTH",
"214 448 LINE SMOOTH",
"79 448 OFFCURVE",
"50 349 OFFCURVE",
"50 290 CURVE SMOOTH",
"50 149 LINE SMOOTH",
"50 65 OFFCURVE",
"98 0 OFFCURVE",
"234 0 CURVE SMOOTH"
);
},
{
closed = 1;
nodes = (
"242 126 OFFCURVE",
"232 139 OFFCURVE",
"233 176 CURVE SMOOTH",
"233 252 LINE SMOOTH",
"233 295 OFFCURVE",
"258 322 OFFCURVE",
"302 322 CURVE SMOOTH",
"322 322 LINE SMOOTH",
"405 322 OFFCURVE",
"426 296 OFFCURVE",
"426 214 CURVE SMOOTH",
"426 196 LINE SMOOTH",
"426 154 OFFCURVE",
"402 126 OFFCURVE",
"355 126 CURVE SMOOTH",
"281 126 LINE SMOOTH"
);
}
);
width = 661;
},
{
associatedMasterId = "083550D2-F2E8-44E3-BE3D-E8BDF41EDFC4";
layerId = "73A46DDA-2723-4CA9-98D4-1BCC5D1C0CFE";
paths = (
{
closed = 1;
nodes = (
"112 549 LINE",
"167 495 LINE",
"402 733 LINE",
"347 787 LINE"
);
},
{
closed = 1;
nodes = (
"367 581 OFFCURVE",
"193 756 OFFCURVE",
"193 756 CURVE",
"109 671 LINE",
"350 439 LINE",
"345 430 LINE",
"305 442 OFFCURVE",
"273 448 OFFCURVE",
"215 448 CURVE",
"204 448 LINE",
"69 448 OFFCURVE",
"40 349 OFFCURVE",
"40 290 CURVE",
"40 149 LINE",
"40 87 OFFCURVE",
"54 0 OFFCURVE",
"193 0 CURVE",
"382 0 LINE",
"518 0 OFFCURVE",
"578 84 OFFCURVE",
"580 191 CURVE",
"580 191 LINE",
"580 212 LINE",
"580 323 OFFCURVE",
"539 409 OFFCURVE",
"423 525 CURVE"
);
},
{
closed = 1;
nodes = (
"210 86 LINE",
"176 86 OFFCURVE",
"161 101 OFFCURVE",
"162 136 CURVE",
"162 292 LINE",
"162 335 OFFCURVE",
"187 362 OFFCURVE",
"231 362 CURVE",
"272 362 LINE",
"425 362 OFFCURVE",
"458 310 OFFCURVE",
"458 214 CURVE",
"458 176 LINE",
"458 120 OFFCURVE",
"424 86 OFFCURVE",
"367 86 CURVE"
);
}
);
width = 630;
}
);
leftKerningGroup = eth;
leftMetricsKey = d;
rightKerningGroup = eth;
rightMetricsKey = o;
unicode = 00F0;
},
{
color = 1;
glyphname = e;
lastChange = "2020-07-18 18:41:28 +0000";
layers = (
{
anchors = (
{
name = bottom;
position = "{315, 0}";
},
{
name = ogonek;
position = "{526, 23}";
},
{
name = top;
position = "{315, 448}";
}
);
background = {
anchors = (
{
name = bottom;
position = "{315, 0}";
},
{
name = ogonek;
position = "{526, 23}";
},
{
name = top;
position = "{315, 448}";
}
);
paths = (
{
closed = 1;
nodes = (
"383 0 LINE SMOOTH",
"514 0 OFFCURVE",
"580 12 OFFCURVE",
"580 31 CURVE",
"540 96 LINE",
"540 96 OFFCURVE",
"417 86 OFFCURVE",
"271 86 CURVE SMOOTH",
"220 86 LINE SMOOTH",
"186 86 OFFCURVE",
"171 99 OFFCURVE",
"172 126 CURVE",
"172 181 LINE",
"197 179 OFFCURVE",
"274 172 OFFCURVE",
"394 172 CURVE SMOOTH",
"569 172 LINE",
"569 320 LINE SMOOTH",
"569 413 OFFCURVE",
"529 448 OFFCURVE",
"397 448 CURVE SMOOTH",
"182 448 LINE SMOOTH",
"50 448 OFFCURVE",
"50 360 OFFCURVE",
"50 320 CURVE SMOOTH",
"50 128 LINE SMOOTH",
"50 80 OFFCURVE",
"49 0 OFFCURVE",
"182 0 CURVE SMOOTH"
);
},
{
closed = 1;
nodes = (
"172 322 LINE SMOOTH",
"172 349 OFFCURVE",
"186 362 OFFCURVE",
"220 362 CURVE SMOOTH",
"341 362 LINE SMOOTH",
"447 362 OFFCURVE",
"447 361 OFFCURVE",
"447 322 CURVE SMOOTH",
"447 258 LINE",
"172 258 LINE"
);
}
);
};
layerId = "083550D2-F2E8-44E3-BE3D-E8BDF41EDFC4";
paths = (
{
closed = 1;
nodes = (
"383 0 LINE SMOOTH",
"514 0 OFFCURVE",
"580 12 OFFCURVE",
"580 31 CURVE",
"540 96 LINE",
"487 92 OFFCURVE",
"378 86 OFFCURVE",
"271 86 CURVE SMOOTH",
"220 86 LINE SMOOTH",
"186 86 OFFCURVE",
"171 99 OFFCURVE",
"172 126 CURVE SMOOTH",
"172 181 LINE",
"197 179 OFFCURVE",
"274 172 OFFCURVE",
"394 172 CURVE SMOOTH",
"569 172 LINE",
"569 320 LINE SMOOTH",
"569 413 OFFCURVE",
"529 448 OFFCURVE",
"397 448 CURVE SMOOTH",
"182 448 LINE SMOOTH",
"50 448 OFFCURVE",
"50 360 OFFCURVE",
"50 320 CURVE SMOOTH",
"50 128 LINE SMOOTH",
"50 80 OFFCURVE",
"49 0 OFFCURVE",
"182 0 CURVE SMOOTH"
);
},
{
closed = 1;
nodes = (
"172 322 LINE SMOOTH",
"172 349 OFFCURVE",
"186 362 OFFCURVE",
"220 362 CURVE SMOOTH",
"341 362 LINE SMOOTH",
"447 362 OFFCURVE",
"447 361 OFFCURVE",
"447 322 CURVE SMOOTH",
"447 258 LINE",
"172 258 LINE"
);
}
);
width = 620;
},
{
anchors = (
{
name = bottom;
position = "{315, 0}";
},
{
name = ogonek;
position = "{537, 19}";
},
{
name = top;
position = "{335, 448}";
}
);
background = {
anchors = (
{
name = bottom;
position = "{315, 0}";
},
{
name = ogonek;
position = "{537, 19}";
},
{
name = top;
position = "{335, 448}";
}
);
paths = (
{
closed = 1;
nodes = (
"426 0 LINE SMOOTH",
"581 0 OFFCURVE",
"623 22 OFFCURVE",
"623 41 CURVE",
"563 136 LINE",
"563 136 OFFCURVE",
"460 126 OFFCURVE",
"314 126 CURVE SMOOTH",
"283 126 LINE SMOOTH",
"249 126 OFFCURVE",
"234 139 OFFCURVE",
"235 166 CURVE",
"235 181 LINE",
"260 179 OFFCURVE",
"317 172 OFFCURVE",
"437 172 CURVE SMOOTH",
"612 172 LINE",
"612 300 LINE SMOOTH",
"612 388 OFFCURVE",
"576 448 OFFCURVE",
"420 448 CURVE SMOOTH",
"213 448 LINE SMOOTH",
"81 448 OFFCURVE",
"50 380 OFFCURVE",
"50 300 CURVE SMOOTH",
"50 149 LINE SMOOTH",
"50 61 OFFCURVE",
"80 0 OFFCURVE",
"213 0 CURVE SMOOTH"
);
},
{
closed = 1;
nodes = (
"235 282 LINE SMOOTH",
"235 309 OFFCURVE",
"249 322 OFFCURVE",
"283 322 CURVE SMOOTH",
"341 322 LINE SMOOTH",
"427 322 OFFCURVE",
"427 321 OFFCURVE",
"427 282 CURVE SMOOTH",
"427 268 LINE",
"235 268 LINE"
);
}
);
};
layerId = "C39E0A5F-5A43-41B0-A0DD-85C4534CF186";
paths = (
{
closed = 1;
nodes = (
"426 0 LINE SMOOTH",
"581 0 OFFCURVE",
"623 22 OFFCURVE",
"623 41 CURVE",
"563 136 LINE",
"519 132 OFFCURVE",
"421 126 OFFCURVE",
"314 126 CURVE SMOOTH",
"283 126 LINE SMOOTH",
"249 126 OFFCURVE",
"234 139 OFFCURVE",
"235 166 CURVE SMOOTH",
"235 181 LINE",
"260 179 OFFCURVE",
"317 172 OFFCURVE",
"437 172 CURVE SMOOTH",
"612 172 LINE",
"612 300 LINE SMOOTH",
"612 388 OFFCURVE",
"576 448 OFFCURVE",
"420 448 CURVE SMOOTH",
"213 448 LINE SMOOTH",
"81 448 OFFCURVE",
"50 380 OFFCURVE",
"50 300 CURVE SMOOTH",
"50 149 LINE SMOOTH",
"50 61 OFFCURVE",
"80 0 OFFCURVE",
"213 0 CURVE SMOOTH"
);
},
{
closed = 1;
nodes = (
"235 282 LINE SMOOTH",
"235 309 OFFCURVE",
"249 322 OFFCURVE",
"283 322 CURVE SMOOTH",
"341 322 LINE SMOOTH",
"427 322 OFFCURVE",
"427 321 OFFCURVE",
"427 282 CURVE SMOOTH",
"427 268 LINE",
"235 268 LINE"
);
}
);
width = 663;
},
{
anchors = (
{
name = bottom;
position = "{315, 0}";
},
{
name = ogonek;
position = "{537, 19}";
},
{
name = top;
position = "{315, 448}";
}
);
associatedMasterId = "083550D2-F2E8-44E3-BE3D-E8BDF41EDFC4";
layerId = "73A46DDA-2723-4CA9-98D4-1BCC5D1C0CFE";
paths = (
{
closed = 1;
nodes = (
"383 0 LINE",
"514 0 OFFCURVE",
"590 2 OFFCURVE",
"590 21 CURVE",
"540 96 LINE",
"540 96 OFFCURVE",
"417 86 OFFCURVE",
"271 86 CURVE",
"220 86 LINE",
"186 86 OFFCURVE",
"171 99 OFFCURVE",
"172 126 CURVE",
"172 322 LINE",
"172 349 OFFCURVE",
"186 362 OFFCURVE",
"220 362 CURVE",
"271 362 LINE",
"400 362 OFFCURVE",
"531 362 OFFCURVE",
"531 362 CURVE",
"531 362 OFFCURVE",
"550 448 OFFCURVE",
"321 448 CURVE",
"182 448 LINE",
"50 448 OFFCURVE",
"50 360 OFFCURVE",
"50 320 CURVE",
"50 128 LINE",
"50 80 OFFCURVE",
"49 0 OFFCURVE",
"182 0 CURVE"
);
},
{
closed = 1;
nodes = (
"569 172 LINE",
"569 320 LINE",
"569 413 OFFCURVE",
"529 448 OFFCURVE",
"397 448 CURVE",
"341 448 LINE",
"341 362 LINE",
"447 362 OFFCURVE",
"447 361 OFFCURVE",
"447 322 CURVE",
"447 258 LINE",
"163 258 LINE",
"163 182 LINE",
"163 182 OFFCURVE",
"245 172 OFFCURVE",
"394 172 CURVE"
);
}
);
width = 640;
}
);
leftKerningGroup = o;
leftMetricsKey = o;
rightKerningGroup = e;
unicode = 0065;
},
{
glyphname = schwa;
lastChange = "2020-07-18 18:41:28 +0000";
layers = (
{
background = {
paths = (
{
closed = 1;
nodes = (
"274 0 LINE SMOOTH",
"396 0 OFFCURVE",
"490 7 OFFCURVE",
"535 27 CURVE SMOOTH",
"586 50 OFFCURVE",
"601 78 OFFCURVE",
"601 131 CURVE SMOOTH",
"601 320 LINE SMOOTH",
"601 360 OFFCURVE",
"601 448 OFFCURVE",
"469 448 CURVE SMOOTH",
"419 448 LINE SMOOTH",
"182 448 OFFCURVE",
"89 447 OFFCURVE",
"89 428 CURVE",
"100 352 LINE",
"100 352 OFFCURVE",
"182 362 OFFCURVE",
"381 362 CURVE SMOOTH",
"431 362 LINE SMOOTH",
"479 362 OFFCURVE",
"479 322 OFFCURVE",
"479 322 CURVE",
"479 256 LINE",
"427 261 OFFCURVE",
"345 268 OFFCURVE",
"245 268 CURVE SMOOTH",
"50 268 LINE",
"50 133 LINE SMOOTH",
"50 50 OFFCURVE",
"93 0 OFFCURVE",
"194 0 CURVE SMOOTH"
);
},
{
closed = 1;
nodes = (
"188 86 OFFCURVE",
"172 101 OFFCURVE",
"172 138 CURVE SMOOTH",
"172 192 LINE",
"479 192 LINE",
"479 156 LINE SMOOTH",
"479 95 OFFCURVE",
"454 86 OFFCURVE",
"409 86 CURVE SMOOTH",
"220 86 LINE SMOOTH"
);
}
);
};
layerId = "083550D2-F2E8-44E3-BE3D-E8BDF41EDFC4";
paths = (
{
closed = 1;
nodes = (
"274 0 LINE SMOOTH",
"396 0 OFFCURVE",
"490 7 OFFCURVE",
"535 27 CURVE SMOOTH",
"586 50 OFFCURVE",
"601 78 OFFCURVE",
"601 131 CURVE SMOOTH",
"601 320 LINE SMOOTH",
"601 360 OFFCURVE",
"601 448 OFFCURVE",
"469 448 CURVE SMOOTH",
"419 448 LINE SMOOTH",
"182 448 OFFCURVE",
"89 447 OFFCURVE",
"89 428 CURVE",
"100 352 LINE",
"135 356 OFFCURVE",
"236 362 OFFCURVE",
"381 362 CURVE SMOOTH",
"431 362 LINE SMOOTH",
"466 362 OFFCURVE",
"479 339 OFFCURVE",
"479 322 CURVE SMOOTH",
"479 256 LINE",
"427 261 OFFCURVE",
"345 268 OFFCURVE",
"245 268 CURVE SMOOTH",
"50 268 LINE",
"50 133 LINE SMOOTH",
"50 50 OFFCURVE",
"93 0 OFFCURVE",
"194 0 CURVE SMOOTH"
);
},
{
closed = 1;
nodes = (
"188 86 OFFCURVE",
"172 101 OFFCURVE",
"172 138 CURVE SMOOTH",
"172 192 LINE",
"479 192 LINE",
"479 156 LINE SMOOTH",
"479 95 OFFCURVE",
"454 86 OFFCURVE",
"409 86 CURVE SMOOTH",
"220 86 LINE SMOOTH"
);
}
);
width = 656;
},
{
background = {
paths = (
{
closed = 1;
nodes = (
"294 0 LINE SMOOTH",
"416 0 OFFCURVE",
"510 7 OFFCURVE",
"555 27 CURVE SMOOTH",
"606 50 OFFCURVE",
"621 78 OFFCURVE",
"621 131 CURVE SMOOTH",
"621 320 LINE SMOOTH",
"621 360 OFFCURVE",
"621 448 OFFCURVE",
"489 448 CURVE SMOOTH",
"439 448 LINE SMOOTH",
"202 448 OFFCURVE",
"109 447 OFFCURVE",
"109 428 CURVE",
"120 312 LINE",
"120 312 OFFCURVE",
"139 322 OFFCURVE",
"338 322 CURVE SMOOTH",
"388 322 LINE SMOOTH",
"436 322 OFFCURVE",
"436 308 OFFCURVE",
"436 292 CURVE SMOOTH",
"436 266 LINE",
"384 272 OFFCURVE",
"302 278 OFFCURVE",
"202 278 CURVE SMOOTH",
"50 278 LINE",
"50 133 LINE SMOOTH",
"50 50 OFFCURVE",
"113 0 OFFCURVE",
"214 0 CURVE SMOOTH"
);
},
{
closed = 1;
nodes = (
"248 127 OFFCURVE",
"234 133 OFFCURVE",
"234 159 CURVE SMOOTH",
"234 182 LINE",
"436 182 LINE",
"436 166 LINE SMOOTH",
"436 137 OFFCURVE",
"420 127 OFFCURVE",
"386 127 CURVE SMOOTH",
"271 127 LINE SMOOTH"
);
}
);
};
layerId = "C39E0A5F-5A43-41B0-A0DD-85C4534CF186";
paths = (
{
closed = 1;
nodes = (
"294 0 LINE SMOOTH",
"416 0 OFFCURVE",
"510 7 OFFCURVE",
"555 27 CURVE SMOOTH",
"606 50 OFFCURVE",
"621 78 OFFCURVE",
"621 131 CURVE SMOOTH",
"621 320 LINE SMOOTH",
"621 360 OFFCURVE",
"621 448 OFFCURVE",
"489 448 CURVE SMOOTH",
"439 448 LINE SMOOTH",
"202 448 OFFCURVE",
"109 447 OFFCURVE",
"109 428 CURVE",
"120 312 LINE",
"128 316 OFFCURVE",
"193 322 OFFCURVE",
"338 322 CURVE SMOOTH",
"388 322 LINE SMOOTH",
"436 322 OFFCURVE",
"436 308 OFFCURVE",
"436 292 CURVE SMOOTH",
"436 266 LINE",
"384 272 OFFCURVE",
"302 278 OFFCURVE",
"202 278 CURVE SMOOTH",
"50 278 LINE",
"50 133 LINE SMOOTH",
"50 50 OFFCURVE",
"113 0 OFFCURVE",
"214 0 CURVE SMOOTH"
);
},
{
closed = 1;
nodes = (
"248 127 OFFCURVE",
"234 133 OFFCURVE",
"234 159 CURVE SMOOTH",
"234 182 LINE",
"436 182 LINE",
"436 166 LINE SMOOTH",
"436 137 OFFCURVE",
"420 127 OFFCURVE",
"386 127 CURVE SMOOTH",
"271 127 LINE SMOOTH"
);
}
);
width = 676;
},
{
associatedMasterId = "083550D2-F2E8-44E3-BE3D-E8BDF41EDFC4";
layerId = "73A46DDA-2723-4CA9-98D4-1BCC5D1C0CFE";
paths = (
{
closed = 1;
nodes = (
"539 248 OFFCURVE",
"419 268 OFFCURVE",
"245 268 CURVE",
"50 268 LINE",
"50 268 OFFCURVE",
"50 219 OFFCURVE",
"50 133 CURVE",
"50 50 OFFCURVE",
"93 0 OFFCURVE",
"194 0 CURVE",
"274 0 LINE",
"396 0 OFFCURVE",
"490 7 OFFCURVE",
"535 27 CURVE",
"586 50 OFFCURVE",
"601 78 OFFCURVE",
"601 131 CURVE",
"601 139 OFFCURVE",
"601 146 OFFCURVE",
"601 146 CURVE",
"479 156 LINE",
"479 95 OFFCURVE",
"454 86 OFFCURVE",
"409 86 CURVE",
"220 86 LINE",
"188 86 OFFCURVE",
"172 101 OFFCURVE",
"172 138 CURVE",
"172 175 OFFCURVE",
"172 192 OFFCURVE",
"172 192 CURVE",
"270 192 LINE",
"478 192 OFFCURVE",
"539 192 OFFCURVE",
"539 192 CURVE",
"539 248 LINE"
);
},
{
closed = 1;
nodes = (
"431 362 LINE",
"479 362 OFFCURVE",
"479 322 OFFCURVE",
"479 322 CURVE",
"479 111 LINE",
"601 111 LINE",
"601 320 LINE",
"601 360 OFFCURVE",
"601 448 OFFCURVE",
"469 448 CURVE",
"419 448 LINE",
"182 448 OFFCURVE",
"89 447 OFFCURVE",
"89 428 CURVE",
"100 352 LINE",
"100 352 OFFCURVE",
"182 362 OFFCURVE",
"381 362 CURVE"
);
}
);
width = 661;
}
);
leftKerningGroup = schwa;
rightKerningGroup = schwa;
rightMetricsKey = a;
unicode = 0259;
},
{
color = 1;
glyphname = f;
lastChange = "2020-07-18 18:41:28 +0000";
layers = (
{
anchors = (
{
name = bottom;
position = "{240, 0}";
},
{
name = top;
position = "{240, 448}";
}
);
background = {
anchors = (
{
name = bottom;
position = "{240, 0}";
},
{
name = top;
position = "{240, 448}";
}
);
paths = (
{
closed = 1;
nodes = (
"204 0 LINE",
"204 362 LINE",
"412 362 LINE",
"412 447 LINE",
"204 447 LINE",
"204 538 LINE SMOOTH",
"204 567 OFFCURVE",
"219 578 OFFCURVE",
"252 578 CURVE SMOOTH",
"302 578 LINE SMOOTH",
"415 578 OFFCURVE",
"469 558 OFFCURVE",
"469 558 CURVE",
"499 634 LINE",
"499 645 OFFCURVE",
"434 664 OFFCURVE",
"274 664 CURVE SMOOTH",
"224 664 LINE SMOOTH",
"119 664 OFFCURVE",
"82 603 OFFCURVE",
"82 536 CURVE SMOOTH",
"82 447 LINE",
"20 447 LINE",
"20 362 LINE",
"82 362 LINE",
"82 0 LINE"
);
}
);
};
layerId = "083550D2-F2E8-44E3-BE3D-E8BDF41EDFC4";
paths = (
{
closed = 1;
nodes = (
"204 0 LINE",
"204 362 LINE",
"412 362 LINE",
"412 447 LINE",
"204 447 LINE",
"204 538 LINE SMOOTH",
"204 567 OFFCURVE",
"219 578 OFFCURVE",
"252 578 CURVE SMOOTH",
"302 578 LINE SMOOTH",
"384 578 OFFCURVE",
"446 567 OFFCURVE",
"469 558 CURVE",
"499 634 LINE",
"499 645 OFFCURVE",
"434 664 OFFCURVE",
"274 664 CURVE SMOOTH",
"224 664 LINE SMOOTH",
"119 664 OFFCURVE",
"82 603 OFFCURVE",
"82 536 CURVE SMOOTH",
"82 447 LINE",
"20 447 LINE",
"20 362 LINE",
"82 362 LINE",
"82 0 LINE"
);
}
);
width = 479;
},
{
anchors = (
{
name = bottom;
position = "{250, 0}";
},
{
name = top;
position = "{250, 448}";
}
);
background = {
anchors = (
{
name = bottom;
position = "{250, 0}";
},
{
name = top;
position = "{250, 448}";
}
);
paths = (
{
closed = 1;
nodes = (
"284 0 LINE",
"284 322 LINE",
"472 322 LINE",
"472 447 LINE",
"284 447 LINE",
"284 498 LINE SMOOTH",
"284 527 OFFCURVE",
"299 538 OFFCURVE",
"332 538 CURVE SMOOTH",
"361 538 LINE SMOOTH",
"474 538 OFFCURVE",
"528 518 OFFCURVE",
"528 518 CURVE",
"558 634 LINE",
"558 645 OFFCURVE",
"493 664 OFFCURVE",
"333 664 CURVE SMOOTH",
"264 664 LINE SMOOTH",
"158 664 OFFCURVE",
"102 615 OFFCURVE",
"102 516 CURVE SMOOTH",
"102 447 LINE",
"20 447 LINE",
"20 322 LINE",
"102 322 LINE",
"102 0 LINE"
);
}
);
};
layerId = "C39E0A5F-5A43-41B0-A0DD-85C4534CF186";
paths = (
{
closed = 1;
nodes = (
"284 0 LINE",
"284 322 LINE",
"472 322 LINE",
"472 447 LINE",
"284 447 LINE",
"284 498 LINE SMOOTH",
"284 527 OFFCURVE",
"299 538 OFFCURVE",
"332 538 CURVE SMOOTH",
"361 538 LINE SMOOTH",
"443 538 OFFCURVE",
"505 527 OFFCURVE",
"528 518 CURVE",
"558 634 LINE",
"558 645 OFFCURVE",
"493 664 OFFCURVE",
"333 664 CURVE SMOOTH",
"264 664 LINE SMOOTH",
"158 664 OFFCURVE",
"102 615 OFFCURVE",
"102 516 CURVE SMOOTH",
"102 447 LINE",
"20 447 LINE",
"20 322 LINE",
"102 322 LINE",
"102 0 LINE"
);
}
);
width = 538;
},
{
anchors = (
{
name = bottom;
position = "{260, 0}";
},
{
name = top;
position = "{260, 448}";
}
);
associatedMasterId = "083550D2-F2E8-44E3-BE3D-E8BDF41EDFC4";
layerId = "73A46DDA-2723-4CA9-98D4-1BCC5D1C0CFE";
paths = (
{
closed = 1;
nodes = (
"244 670 LINE",
"139 670 OFFCURVE",
"102 609 OFFCURVE",
"102 542 CURVE",
"102 0 LINE",
"224 0 LINE",
"224 544 LINE",
"224 573 OFFCURVE",
"239 584 OFFCURVE",
"272 584 CURVE",
"322 584 LINE",
"435 584 OFFCURVE",
"489 564 OFFCURVE",
"489 564 CURVE",
"519 640 LINE",
"519 651 OFFCURVE",
"454 670 OFFCURVE",
"294 670 CURVE"
);
},
{
closed = 1;
nodes = (
"40 362 LINE",
"432 362 LINE",
"432 447 LINE",
"102 447 LINE",
"40 447 LINE"
);
}
);
width = 519;
}
);
leftKerningGroup = f;
rightKerningGroup = f;
unicode = 0066;
},
{
glyphname = f_joint;
lastChange = "2020-07-18 18:41:28 +0000";
layers = (
{
background = {
paths = (
{
closed = 1;
nodes = (
"204 0 LINE",
"204 362 LINE",
"412 362 LINE",
"412 447 LINE",
"204 447 LINE",
"204 538 LINE SMOOTH",
"204 567 OFFCURVE",
"219 578 OFFCURVE",
"252 578 CURVE SMOOTH",
"302 578 LINE SMOOTH",
"415 578 OFFCURVE",
"454 529 OFFCURVE",
"469 508 CURVE",
"499 584 LINE",
"499 621 OFFCURVE",
"434 664 OFFCURVE",
"274 664 CURVE SMOOTH",
"224 664 LINE SMOOTH",
"119 664 OFFCURVE",
"82 603 OFFCURVE",
"82 536 CURVE SMOOTH",
"82 447 LINE",
"20 447 LINE",
"20 362 LINE",
"82 362 LINE",
"82 0 LINE"
);
}
);
};
layerId = "083550D2-F2E8-44E3-BE3D-E8BDF41EDFC4";
paths = (
{
closed = 1;
nodes = (
"204 0 LINE",
"204 362 LINE",
"412 362 LINE",
"412 447 LINE",
"204 447 LINE",
"204 538 LINE SMOOTH",
"204 567 OFFCURVE",
"219 578 OFFCURVE",
"252 578 CURVE SMOOTH",
"302 578 LINE SMOOTH",
"415 578 OFFCURVE",
"454 529 OFFCURVE",
"469 508 CURVE",
"499 584 LINE",
"499 621 OFFCURVE",
"434 664 OFFCURVE",
"274 664 CURVE SMOOTH",
"224 664 LINE SMOOTH",
"119 664 OFFCURVE",
"82 603 OFFCURVE",
"82 536 CURVE SMOOTH",
"82 447 LINE",
"20 447 LINE",
"20 362 LINE",
"82 362 LINE",
"82 0 LINE"
);
}
);
width = 479;
},
{
background = {
paths = (
{
closed = 1;
nodes = (
"284 0 LINE",
"284 322 LINE",
"472 322 LINE",
"472 447 LINE",
"284 447 LINE",
"284 498 LINE SMOOTH",
"284 527 OFFCURVE",
"299 538 OFFCURVE",
"332 538 CURVE SMOOTH",
"361 538 LINE SMOOTH",
"457 538 OFFCURVE",
"508 507 OFFCURVE",
"528 488 CURVE",
"558 584 LINE",
"558 611 OFFCURVE",
"493 664 OFFCURVE",
"333 664 CURVE SMOOTH",
"264 664 LINE SMOOTH",
"158 664 OFFCURVE",
"102 615 OFFCURVE",
"102 516 CURVE SMOOTH",
"102 447 LINE",
"20 447 LINE",
"20 322 LINE",
"102 322 LINE",
"102 0 LINE"
);
}
);
};
layerId = "C39E0A5F-5A43-41B0-A0DD-85C4534CF186";
paths = (
{
closed = 1;
nodes = (
"284 0 LINE",
"284 322 LINE",
"472 322 LINE",
"472 447 LINE",
"284 447 LINE",
"284 498 LINE SMOOTH",
"284 527 OFFCURVE",
"299 538 OFFCURVE",
"332 538 CURVE SMOOTH",
"361 538 LINE SMOOTH",
"457 538 OFFCURVE",
"508 507 OFFCURVE",
"528 488 CURVE",
"558 584 LINE",
"558 611 OFFCURVE",
"493 664 OFFCURVE",
"333 664 CURVE SMOOTH",
"264 664 LINE SMOOTH",
"158 664 OFFCURVE",
"102 615 OFFCURVE",
"102 516 CURVE SMOOTH",
"102 447 LINE",
"20 447 LINE",
"20 322 LINE",
"102 322 LINE",
"102 0 LINE"
);
}
);
width = 538;
},
{
associatedMasterId = "083550D2-F2E8-44E3-BE3D-E8BDF41EDFC4";
layerId = "73A46DDA-2723-4CA9-98D4-1BCC5D1C0CFE";
paths = (
{
closed = 1;
nodes = (
"244 670 LINE",
"139 670 OFFCURVE",
"102 609 OFFCURVE",
"102 542 CURVE",
"102 0 LINE",
"224 0 LINE",
"224 544 LINE",
"224 573 OFFCURVE",
"239 584 OFFCURVE",
"272 584 CURVE",
"314 584 LINE",
"419 584 OFFCURVE",
"444 549 OFFCURVE",
"444 504 CURVE",
"499 550 LINE",
"499 617 OFFCURVE",
"451 670 OFFCURVE",
"307 670 CURVE"
);
},
{
closed = 1;
nodes = (
"40 362 LINE",
"224 362 LINE",
"432 362 LINE",
"432 447 LINE",
"224 447 LINE",
"40 447 LINE"
);
}
);
width = 499;
}
);
leftKerningGroup = f;
leftMetricsKey = f;
rightKerningGroup = f_joint;
rightMetricsKey = f;
},
{
color = 1;
glyphname = g;
lastChange = "2020-07-18 18:41:28 +0000";
layers = (
{
anchors = (
{
name = bottom;
position = "{321, 0}";
},
{
name = top;
position = "{321, 448}";
}
);
background = {
anchors = (
{
name = bottom;
position = "{321, 0}";
},
{
name = top;
position = "{321, 448}";
}
);
paths = (
{
closed = 1;
nodes = (
"439 -176 LINE SMOOTH",
"570 -176 OFFCURVE",
"591 -96 OFFCURVE",
"591 -48 CURVE SMOOTH",
"591 448 LINE",
"509 448 LINE",
"483 435 LINE",
"447 441 OFFCURVE",
"374 448 OFFCURVE",
"234 448 CURVE SMOOTH",
"183 448 LINE SMOOTH",
"51 448 OFFCURVE",
"51 360 OFFCURVE",
"51 320 CURVE SMOOTH",
"51 128 LINE SMOOTH",
"51 80 OFFCURVE",
"50 0 OFFCURVE",
"183 0 CURVE SMOOTH",
"233 0 LINE SMOOTH",
"334 0 OFFCURVE",
"412 9 OFFCURVE",
"469 20 CURVE",
"469 -40 LINE SMOOTH",
"469 -78 OFFCURVE",
"450 -90 OFFCURVE",
"401 -90 CURVE SMOOTH",
"230 -90 LINE SMOOTH",
"146 -90 OFFCURVE",
"91 -77 OFFCURVE",
"70 -70 CURVE",
"40 -145 LINE",
"40 -165 OFFCURVE",
"95 -176 OFFCURVE",
"389 -176 CURVE SMOOTH"
);
},
{
closed = 1;
nodes = (
"187 86 OFFCURVE",
"172 99 OFFCURVE",
"173 126 CURVE",
"173 322 LINE SMOOTH",
"173 349 OFFCURVE",
"187 362 OFFCURVE",
"221 362 CURVE SMOOTH",
"272 362 LINE SMOOTH",
"350 362 OFFCURVE",
"424 358 OFFCURVE",
"469 355 CURVE",
"469 116 LINE SMOOTH",
"469 87 OFFCURVE",
"468 86 OFFCURVE",
"438 86 CURVE SMOOTH",
"221 86 LINE SMOOTH"
);
}
);
};
layerId = "083550D2-F2E8-44E3-BE3D-E8BDF41EDFC4";
paths = (
{
closed = 1;
nodes = (
"439 -176 LINE SMOOTH",
"570 -176 OFFCURVE",
"591 -96 OFFCURVE",
"591 -48 CURVE SMOOTH",
"591 448 LINE",
"509 448 LINE",
"483 435 LINE",
"447 441 OFFCURVE",
"374 448 OFFCURVE",
"234 448 CURVE SMOOTH",
"183 448 LINE SMOOTH",
"51 448 OFFCURVE",
"51 360 OFFCURVE",
"51 320 CURVE SMOOTH",
"51 128 LINE SMOOTH",
"51 80 OFFCURVE",
"50 0 OFFCURVE",
"183 0 CURVE SMOOTH",
"233 0 LINE SMOOTH",
"334 0 OFFCURVE",
"412 9 OFFCURVE",
"469 20 CURVE",
"469 -40 LINE SMOOTH",
"469 -78 OFFCURVE",
"450 -90 OFFCURVE",
"401 -90 CURVE SMOOTH",
"230 -90 LINE SMOOTH",
"146 -90 OFFCURVE",
"91 -77 OFFCURVE",
"70 -70 CURVE",
"40 -145 LINE",
"40 -165 OFFCURVE",
"95 -176 OFFCURVE",
"389 -176 CURVE SMOOTH"
);
},
{
closed = 1;
nodes = (
"187 86 OFFCURVE",
"172 99 OFFCURVE",
"173 126 CURVE SMOOTH",
"173 322 LINE SMOOTH",
"173 349 OFFCURVE",
"187 362 OFFCURVE",
"221 362 CURVE SMOOTH",
"272 362 LINE SMOOTH",
"350 362 OFFCURVE",
"424 358 OFFCURVE",
"469 355 CURVE",
"469 116 LINE SMOOTH",
"469 87 OFFCURVE",
"468 86 OFFCURVE",
"438 86 CURVE SMOOTH",
"221 86 LINE SMOOTH"
);
}
);
width = 651;
},
{
anchors = (
{
name = bottom;
position = "{331, 0}";
},
{
name = top;
position = "{361, 448}";
}
);
background = {
anchors = (
{
name = bottom;
position = "{331, 0}";
},
{
name = top;
position = "{361, 448}";
}
);
paths = (
{
closed = 1;
nodes = (
"449 -176 LINE SMOOTH",
"580 -176 OFFCURVE",
"631 -116 OFFCURVE",
"631 -28 CURVE SMOOTH",
"631 448 LINE",
"489 448 LINE",
"463 435 LINE",
"427 441 OFFCURVE",
"374 448 OFFCURVE",
"234 448 CURVE SMOOTH",
"204 448 LINE SMOOTH",
"72 448 OFFCURVE",
"52 364 OFFCURVE",
"52 300 CURVE SMOOTH",
"52 160 LINE SMOOTH",
"52 69 OFFCURVE",
"72 11 OFFCURVE",
"204 11 CURVE SMOOTH",
"233 11 LINE SMOOTH",
"331 11 OFFCURVE",
"407 19 OFFCURVE",
"449 31 CURVE",
"449 -10 LINE SMOOTH",
"450 -39 OFFCURVE",
"435 -50 OFFCURVE",
"401 -50 CURVE SMOOTH",
"250 -50 LINE SMOOTH",
"152 -50 OFFCURVE",
"104 -34 OFFCURVE",
"90 -30 CURVE",
"40 -135 LINE",
"40 -155 OFFCURVE",
"94 -176 OFFCURVE",
"369 -176 CURVE SMOOTH"
);
},
{
closed = 1;
nodes = (
"251 137 OFFCURVE",
"236 150 OFFCURVE",
"237 177 CURVE",
"237 282 LINE SMOOTH",
"237 309 OFFCURVE",
"251 322 OFFCURVE",
"285 322 CURVE SMOOTH",
"296 322 LINE SMOOTH",
"374 322 OFFCURVE",
"404 318 OFFCURVE",
"449 315 CURVE",
"449 167 LINE SMOOTH",
"449 138 OFFCURVE",
"448 137 OFFCURVE",
"418 137 CURVE SMOOTH",
"285 137 LINE SMOOTH"
);
}
);
};
layerId = "C39E0A5F-5A43-41B0-A0DD-85C4534CF186";
paths = (
{
closed = 1;
nodes = (
"449 -176 LINE SMOOTH",
"580 -176 OFFCURVE",
"631 -116 OFFCURVE",
"631 -28 CURVE SMOOTH",
"631 448 LINE",
"489 448 LINE",
"463 435 LINE",
"427 441 OFFCURVE",
"374 448 OFFCURVE",
"234 448 CURVE SMOOTH",
"204 448 LINE SMOOTH",
"72 448 OFFCURVE",
"52 364 OFFCURVE",
"52 300 CURVE SMOOTH",
"52 160 LINE SMOOTH",
"52 69 OFFCURVE",
"72 11 OFFCURVE",
"204 11 CURVE SMOOTH",
"233 11 LINE SMOOTH",
"331 11 OFFCURVE",
"407 19 OFFCURVE",
"449 31 CURVE",
"449 -10 LINE SMOOTH",
"450 -39 OFFCURVE",
"435 -50 OFFCURVE",
"401 -50 CURVE SMOOTH",
"250 -50 LINE SMOOTH",
"152 -50 OFFCURVE",
"104 -34 OFFCURVE",
"90 -30 CURVE",
"40 -135 LINE",
"40 -155 OFFCURVE",
"94 -176 OFFCURVE",
"369 -176 CURVE SMOOTH"
);
},
{
closed = 1;
nodes = (
"251 137 OFFCURVE",
"236 150 OFFCURVE",
"237 177 CURVE SMOOTH",
"237 282 LINE SMOOTH",
"237 309 OFFCURVE",
"251 322 OFFCURVE",
"285 322 CURVE SMOOTH",
"296 322 LINE SMOOTH",
"374 322 OFFCURVE",
"404 318 OFFCURVE",
"449 315 CURVE",
"449 167 LINE SMOOTH",
"449 138 OFFCURVE",
"448 137 OFFCURVE",
"418 137 CURVE SMOOTH",
"285 137 LINE SMOOTH"
);
}
);
width = 691;
},
{
anchors = (
{
name = bottom;
position = "{331, 0}";
},
{
name = top;
position = "{341, 448}";
}
);
associatedMasterId = "083550D2-F2E8-44E3-BE3D-E8BDF41EDFC4";
layerId = "73A46DDA-2723-4CA9-98D4-1BCC5D1C0CFE";
paths = (
{
closed = 1;
nodes = (
"449 -176 LINE",
"580 -176 OFFCURVE",
"601 -96 OFFCURVE",
"601 -48 CURVE",
"601 448 LINE",
"519 448 LINE",
"479 428 LINE",
"479 -50 LINE",
"480 -79 OFFCURVE",
"465 -90 OFFCURVE",
"431 -90 CURVE",
"240 -90 LINE",
"144 -90 OFFCURVE",
"80 -70 OFFCURVE",
"80 -70 CURVE",
"50 -145 LINE",
"50 -165 OFFCURVE",
"105 -176 OFFCURVE",
"399 -176 CURVE"
);
},
{
closed = 1;
nodes = (
"243 0 LINE",
"479 0 OFFCURVE",
"591 51 OFFCURVE",
"591 51 CURVE",
"591 116 LINE",
"479 116 LINE",
"479 87 OFFCURVE",
"478 86 OFFCURVE",
"448 86 CURVE",
"418 86 OFFCURVE",
"231 86 OFFCURVE",
"231 86 CURVE",
"197 86 OFFCURVE",
"182 99 OFFCURVE",
"183 126 CURVE",
"183 322 LINE",
"183 349 OFFCURVE",
"197 362 OFFCURVE",
"231 362 CURVE",
"282 362 LINE",
"411 362 OFFCURVE",
"526 352 OFFCURVE",
"526 352 CURVE",
"526 428 LINE",
"526 428 OFFCURVE",
"479 448 OFFCURVE",
"244 448 CURVE",
"193 448 LINE",
"61 448 OFFCURVE",
"61 360 OFFCURVE",
"61 320 CURVE",
"61 128 LINE",
"61 80 OFFCURVE",
"60 0 OFFCURVE",
"193 0 CURVE"
);
}
);
width = 651;
}
);
leftKerningGroup = g;
rightKerningGroup = g;
unicode = 0067;
},
{
color = 1;
glyphname = h;
lastChange = "2020-07-18 18:41:28 +0000";
layers = (
{
anchors = (
{
name = bottom;
position = "{325, 0}";
},
{
name = center;
position = "{205, 546}";
},
{
name = top;
position = "{405, 508}";
}
);
background = {
anchors = (
{
name = bottom;
position = "{325, 0}";
},
{
name = center;
position = "{205, 546}";
},
{
name = top;
position = "{405, 508}";
}
);
paths = (
{
closed = 1;
nodes = (
"182 0 LINE",
"182 340 LINE SMOOTH",
"182 360 OFFCURVE",
"187 362 OFFCURVE",
"212 362 CURVE SMOOTH",
"430 362 LINE SMOOTH",
"464 362 OFFCURVE",
"478 349 OFFCURVE",
"478 322 CURVE SMOOTH",
"478 0 LINE",
"600 0 LINE",
"600 320 LINE SMOOTH",
"600 360 OFFCURVE",
"600 448 OFFCURVE",
"468 448 CURVE SMOOTH",
"418 448 LINE SMOOTH",
"317 448 OFFCURVE",
"238 439 OFFCURVE",
"182 428 CURVE",
"182 648 LINE",
"60 648 LINE",
"60 0 LINE"
);
}
);
};
layerId = "083550D2-F2E8-44E3-BE3D-E8BDF41EDFC4";
paths = (
{
closed = 1;
nodes = (
"182 0 LINE",
"182 340 LINE SMOOTH",
"182 360 OFFCURVE",
"187 362 OFFCURVE",
"212 362 CURVE SMOOTH",
"430 362 LINE SMOOTH",
"464 362 OFFCURVE",
"478 349 OFFCURVE",
"478 322 CURVE SMOOTH",
"478 0 LINE",
"600 0 LINE",
"600 320 LINE SMOOTH",
"600 360 OFFCURVE",
"600 448 OFFCURVE",
"468 448 CURVE SMOOTH",
"418 448 LINE SMOOTH",
"317 448 OFFCURVE",
"238 439 OFFCURVE",
"182 428 CURVE",
"182 648 LINE",
"60 648 LINE",
"60 0 LINE"
);
}
);
width = 655;
},
{
anchors = (
{
name = bottom;
position = "{351, 0}";
},
{
name = center;
position = "{195, 536}";
},
{
name = top;
position = "{445, 538}";
}
);
background = {
anchors = (
{
name = bottom;
position = "{351, 0}";
},
{
name = center;
position = "{195, 536}";
},
{
name = top;
position = "{445, 538}";
}
);
paths = (
{
closed = 1;
nodes = (
"245 0 LINE",
"245 300 LINE SMOOTH",
"245 320 OFFCURVE",
"250 322 OFFCURVE",
"275 322 CURVE SMOOTH",
"409 322 LINE SMOOTH",
"443 322 OFFCURVE",
"457 309 OFFCURVE",
"457 282 CURVE SMOOTH",
"457 0 LINE",
"640 0 LINE",
"640 320 LINE SMOOTH",
"640 360 OFFCURVE",
"640 448 OFFCURVE",
"508 448 CURVE SMOOTH",
"458 448 LINE SMOOTH",
"388 448 OFFCURVE",
"302 439 OFFCURVE",
"245 428 CURVE",
"245 648 LINE",
"60 648 LINE",
"60 0 LINE"
);
}
);
};
layerId = "C39E0A5F-5A43-41B0-A0DD-85C4534CF186";
paths = (
{
closed = 1;
nodes = (
"245 0 LINE",
"245 300 LINE SMOOTH",
"245 320 OFFCURVE",
"250 322 OFFCURVE",
"275 322 CURVE SMOOTH",
"409 322 LINE SMOOTH",
"443 322 OFFCURVE",
"457 309 OFFCURVE",
"457 282 CURVE SMOOTH",
"457 0 LINE",
"640 0 LINE",
"640 320 LINE SMOOTH",
"640 360 OFFCURVE",
"640 448 OFFCURVE",
"508 448 CURVE SMOOTH",
"458 448 LINE SMOOTH",
"388 448 OFFCURVE",
"302 439 OFFCURVE",
"245 428 CURVE",
"245 648 LINE",
"60 648 LINE",
"60 0 LINE"
);
}
);
width = 695;
},
{
anchors = (
{
name = bottom;
position = "{325, 0}";
},
{
name = center;
position = "{175, 536}";
},
{
name = top;
position = "{405, 488}";
}
);
associatedMasterId = "083550D2-F2E8-44E3-BE3D-E8BDF41EDFC4";
layerId = "73A46DDA-2723-4CA9-98D4-1BCC5D1C0CFE";
paths = (
{
closed = 1;
nodes = (
"600 0 LINE",
"600 320 LINE",
"600 360 OFFCURVE",
"600 448 OFFCURVE",
"468 448 CURVE",
"418 448 LINE",
"181 448 OFFCURVE",
"70 398 OFFCURVE",
"70 398 CURVE",
"182 332 LINE",
"182 361 OFFCURVE",
"184 362 OFFCURVE",
"212 362 CURVE",
"240 362 OFFCURVE",
"430 362 OFFCURVE",
"430 362 CURVE",
"464 362 OFFCURVE",
"478 349 OFFCURVE",
"478 322 CURVE",
"478 0 LINE"
);
},
{
closed = 1;
nodes = (
"182 0 LINE",
"182 648 LINE",
"60 648 LINE",
"60 0 LINE"
);
}
);
width = 650;
}
);
leftKerningGroup = h;
leftMetricsKey = n;
rightKerningGroup = n;
rightMetricsKey = n;
unicode = 0068;
},
{
color = 1;
glyphname = i;
lastChange = "2020-07-20 23:39:09 +0000";
layers = (
{
anchors = (
{
name = bottom;
position = "{131, 0}";
}
);
background = {
anchors = (
{
name = bottom;
position = "{131, 0}";
}
);
paths = (
{
closed = 1;
nodes = (
"192 0 LINE",
"192 448 LINE",
"70 448 LINE",
"70 0 LINE"
);
},
{
closed = 1;
nodes = (
"181 511 OFFCURVE",
"203 530 OFFCURVE",
"203 576 CURVE SMOOTH",
"203 624 OFFCURVE",
"182 641 OFFCURVE",
"131 641 CURVE SMOOTH",
"80 641 OFFCURVE",
"60 624 OFFCURVE",
"60 576 CURVE SMOOTH",
"60 529 OFFCURVE",
"81 511 OFFCURVE",
"131 511 CURVE SMOOTH"
);
}
);
};
layerId = "083550D2-F2E8-44E3-BE3D-E8BDF41EDFC4";
paths = (
{
closed = 1;
nodes = (
"192 0 LINE",
"192 448 LINE",
"70 448 LINE",
"70 0 LINE"
);
},
{
closed = 1;
nodes = (
"181 511 OFFCURVE",
"203 530 OFFCURVE",
"203 576 CURVE SMOOTH",
"203 624 OFFCURVE",
"182 641 OFFCURVE",
"131 641 CURVE SMOOTH",
"80 641 OFFCURVE",
"60 624 OFFCURVE",
"60 576 CURVE SMOOTH",
"60 529 OFFCURVE",
"81 511 OFFCURVE",
"131 511 CURVE SMOOTH"
);
}
);
width = 263;
},
{
anchors = (
{
name = bottom;
position = "{166, 0}";
}
);
background = {
anchors = (
{
name = bottom;
position = "{166, 0}";
}
);
paths = (
{
closed = 1;
nodes = (
"251 0 LINE",
"251 448 LINE",
"69 448 LINE",
"69 0 LINE"
);
},
{
closed = 1;
nodes = (
"230 491 OFFCURVE",
"263 520 OFFCURVE",
"263 577 CURVE SMOOTH",
"263 641 OFFCURVE",
"231 662 OFFCURVE",
"161 662 CURVE SMOOTH",
"94 662 OFFCURVE",
"60 641 OFFCURVE",
"60 577 CURVE SMOOTH",
"60 519 OFFCURVE",
"95 491 OFFCURVE",
"161 491 CURVE SMOOTH"
);
}
);
};
layerId = "C39E0A5F-5A43-41B0-A0DD-85C4534CF186";
paths = (
{
closed = 1;
nodes = (
"251 0 LINE",
"251 448 LINE",
"69 448 LINE",
"69 0 LINE"
);
},
{
closed = 1;
nodes = (
"230 491 OFFCURVE",
"263 520 OFFCURVE",
"263 577 CURVE SMOOTH",
"263 641 OFFCURVE",
"231 662 OFFCURVE",
"161 662 CURVE SMOOTH",
"94 662 OFFCURVE",
"60 641 OFFCURVE",
"60 577 CURVE SMOOTH",
"60 519 OFFCURVE",
"95 491 OFFCURVE",
"161 491 CURVE SMOOTH"
);
}
);
width = 323;
},
{
anchors = (
{
name = bottom;
position = "{126, 0}";
}
);
associatedMasterId = "083550D2-F2E8-44E3-BE3D-E8BDF41EDFC4";
layerId = "73A46DDA-2723-4CA9-98D4-1BCC5D1C0CFE";
paths = (
{
closed = 1;
nodes = (
"60 562 LINE",
"60 529 OFFCURVE",
"70 511 OFFCURVE",
"110 511 CURVE",
"115 511 OFFCURVE",
"145 511 OFFCURVE",
"152 511 CURVE",
"192 511 OFFCURVE",
"203 529 OFFCURVE",
"203 562 CURVE",
"203 591 LINE",
"203 620 OFFCURVE",
"192 641 OFFCURVE",
"152 641 CURVE",
"146 641 OFFCURVE",
"117 641 OFFCURVE",
"110 641 CURVE",
"70 641 OFFCURVE",
"60 620 OFFCURVE",
"60 591 CURVE"
);
},
{
closed = 1;
nodes = (
"70 0 LINE",
"192 0 LINE",
"192 448 LINE",
"70 448 LINE"
);
}
);
width = 263;
}
);
leftKerningGroup = i;
rightKerningGroup = i;
unicode = 0069;
},
{
glyphname = idotless;
lastChange = "2020-07-18 18:53:32 +0000";
layers = (
{
anchors = (
{
name = bottom;
position = "{121, 0}";
},
{
name = ogonek;
position = "{165, 15}";
},
{
name = top;
position = "{121, 448}";
}
);
background = {
anchors = (
{
name = bottom;
position = "{121, 0}";
},
{
name = ogonek;
position = "{155, 25}";
},
{
name = top;
position = "{121, 448}";
}
);
paths = (
{
closed = 1;
nodes = (
"182 0 LINE",
"182 448 LINE",
"60 448 LINE",
"60 0 LINE"
);
}
);
};
layerId = "083550D2-F2E8-44E3-BE3D-E8BDF41EDFC4";
paths = (
{
closed = 1;
nodes = (
"182 0 LINE",
"182 448 LINE",
"60 448 LINE",
"60 0 LINE"
);
}
);
width = 242;
},
{
anchors = (
{
name = bottom;
position = "{151, 0}";
},
{
name = ogonek;
position = "{185, 18}";
},
{
name = top;
position = "{151, 448}";
}
);
background = {
anchors = (
{
name = bottom;
position = "{141, 0}";
},
{
name = ogonek;
position = "{155, 25}";
},
{
name = top;
position = "{141, 448}";
}
);
paths = (
{
closed = 1;
nodes = (
"242 0 LINE",
"242 448 LINE",
"60 448 LINE",
"60 0 LINE"
);
}
);
};
layerId = "C39E0A5F-5A43-41B0-A0DD-85C4534CF186";
paths = (
{
closed = 1;
nodes = (
"242 0 LINE",
"242 448 LINE",
"60 448 LINE",
"60 0 LINE"
);
}
);
width = 302;
},
{
anchors = (
{
name = bottom;
position = "{121, 0}";
},
{
name = ogonek;
position = "{155, 25}";
},
{
name = top;
position = "{121, 448}";
}
);
associatedMasterId = "083550D2-F2E8-44E3-BE3D-E8BDF41EDFC4";
layerId = "73A46DDA-2723-4CA9-98D4-1BCC5D1C0CFE";
paths = (
{
closed = 1;
nodes = (
"60 0 LINE",
"182 0 LINE",
"182 448 LINE",
"60 448 LINE"
);
}
);
width = 242;
}
);
leftKerningGroup = idotless;
leftMetricsKey = i;
rightKerningGroup = idotless;
rightMetricsKey = i;
unicode = 0131;
},
{
color = 1;
glyphname = j;
lastChange = "2020-07-18 18:41:28 +0000";
layers = (
{
background = {
paths = (
{
closed = 1;
nodes = (
"52 -176 LINE SMOOTH",
"137 -176 OFFCURVE",
"204 -141 OFFCURVE",
"204 -30 CURVE SMOOTH",
"204 448 LINE",
"82 448 LINE",
"82 -30 LINE SMOOTH",
"82 -83 OFFCURVE",
"58 -96 OFFCURVE",
"22 -96 CURVE SMOOTH",
"-23 -96 OFFCURVE",
"-60 -86 OFFCURVE",
"-60 -86 CURVE",
"-80 -146 LINE",
"-80 -160 OFFCURVE",
"-20 -176 OFFCURVE",
"39 -176 CURVE SMOOTH"
);
},
{
closed = 1;
nodes = (
"193 511 OFFCURVE",
"215 530 OFFCURVE",
"215 577 CURVE SMOOTH",
"215 624 OFFCURVE",
"194 641 OFFCURVE",
"143 641 CURVE SMOOTH",
"92 641 OFFCURVE",
"72 624 OFFCURVE",
"72 577 CURVE SMOOTH",
"72 529 OFFCURVE",
"93 511 OFFCURVE",
"143 511 CURVE SMOOTH"
);
}
);
};
layerId = "083550D2-F2E8-44E3-BE3D-E8BDF41EDFC4";
paths = (
{
closed = 1;
nodes = (
"52 -176 LINE SMOOTH",
"137 -176 OFFCURVE",
"204 -141 OFFCURVE",
"204 -30 CURVE SMOOTH",
"204 448 LINE",
"82 448 LINE",
"82 -30 LINE SMOOTH",
"82 -83 OFFCURVE",
"58 -96 OFFCURVE",
"22 -96 CURVE SMOOTH",
"-11 -96 OFFCURVE",
"-44 -90 OFFCURVE",
"-60 -86 CURVE",
"-80 -146 LINE",
"-80 -160 OFFCURVE",
"-20 -176 OFFCURVE",
"39 -176 CURVE SMOOTH"
);
},
{
closed = 1;
nodes = (
"193 511 OFFCURVE",
"215 530 OFFCURVE",
"215 577 CURVE SMOOTH",
"215 624 OFFCURVE",
"194 641 OFFCURVE",
"143 641 CURVE SMOOTH",
"92 641 OFFCURVE",
"72 624 OFFCURVE",
"72 577 CURVE SMOOTH",
"72 529 OFFCURVE",
"93 511 OFFCURVE",
"143 511 CURVE SMOOTH"
);
}
);
width = 275;
},
{
background = {
paths = (
{
closed = 1;
nodes = (
"95 -176 LINE SMOOTH",
"206 -176 OFFCURVE",
"287 -131 OFFCURVE",
"287 -10 CURVE SMOOTH",
"287 448 LINE",
"102 448 LINE",
"102 10 LINE SMOOTH",
"102 -43 OFFCURVE",
"78 -56 OFFCURVE",
"42 -56 CURVE SMOOTH",
"-3 -56 OFFCURVE",
"-40 -46 OFFCURVE",
"-40 -46 CURVE",
"-80 -136 LINE",
"-80 -150 OFFCURVE",
"-27 -176 OFFCURVE",
"59 -176 CURVE SMOOTH"
);
},
{
closed = 1;
nodes = (
"265 491 OFFCURVE",
"298 520 OFFCURVE",
"298 578 CURVE SMOOTH",
"298 641 OFFCURVE",
"266 662 OFFCURVE",
"196 662 CURVE SMOOTH",
"129 662 OFFCURVE",
"95 641 OFFCURVE",
"95 578 CURVE SMOOTH",
"95 519 OFFCURVE",
"130 491 OFFCURVE",
"196 491 CURVE SMOOTH"
);
}
);
};
layerId = "C39E0A5F-5A43-41B0-A0DD-85C4534CF186";
paths = (
{
closed = 1;
nodes = (
"95 -176 LINE SMOOTH",
"206 -176 OFFCURVE",
"287 -131 OFFCURVE",
"287 -10 CURVE SMOOTH",
"287 448 LINE",
"102 448 LINE",
"102 10 LINE SMOOTH",
"102 -43 OFFCURVE",
"78 -56 OFFCURVE",
"42 -56 CURVE SMOOTH",
"9 -56 OFFCURVE",
"-24 -50 OFFCURVE",
"-40 -46 CURVE",
"-80 -136 LINE",
"-80 -150 OFFCURVE",
"-27 -176 OFFCURVE",
"59 -176 CURVE SMOOTH"
);
},
{
closed = 1;
nodes = (
"265 491 OFFCURVE",
"298 520 OFFCURVE",
"298 578 CURVE SMOOTH",
"298 641 OFFCURVE",
"266 662 OFFCURVE",
"196 662 CURVE SMOOTH",
"129 662 OFFCURVE",
"95 641 OFFCURVE",
"95 578 CURVE SMOOTH",
"95 519 OFFCURVE",
"130 491 OFFCURVE",
"196 491 CURVE SMOOTH"
);
}
);
width = 358;
},
{
associatedMasterId = "083550D2-F2E8-44E3-BE3D-E8BDF41EDFC4";
layerId = "73A46DDA-2723-4CA9-98D4-1BCC5D1C0CFE";
paths = (
{
closed = 1;
nodes = (
"72 -30 LINE",
"72 -83 OFFCURVE",
"48 -96 OFFCURVE",
"12 -96 CURVE",
"-33 -96 OFFCURVE",
"-70 -86 OFFCURVE",
"-70 -86 CURVE",
"-90 -146 LINE",
"-90 -160 OFFCURVE",
"-30 -176 OFFCURVE",
"29 -176 CURVE",
"42 -176 LINE",
"127 -176 OFFCURVE",
"194 -141 OFFCURVE",
"194 -30 CURVE",
"194 70 OFFCURVE",
"194 448 OFFCURVE",
"194 448 CURVE",
"72 448 LINE"
);
},
{
closed = 1;
nodes = (
"62 562 LINE",
"62 529 OFFCURVE",
"72 511 OFFCURVE",
"112 511 CURVE",
"117 511 OFFCURVE",
"147 511 OFFCURVE",
"154 511 CURVE",
"194 511 OFFCURVE",
"205 529 OFFCURVE",
"205 562 CURVE",
"205 591 LINE",
"205 620 OFFCURVE",
"194 641 OFFCURVE",
"154 641 CURVE",
"148 641 OFFCURVE",
"119 641 OFFCURVE",
"112 641 CURVE",
"72 641 OFFCURVE",
"62 620 OFFCURVE",
"62 591 CURVE"
);
}
);
width = 265;
}
);
leftKerningGroup = j;
rightKerningGroup = j;
rightMetricsKey = i;
unicode = 006A;
},
{
glyphname = jdotless;
lastChange = "2020-07-18 18:41:28 +0000";
layers = (
{
anchors = (
{
name = bottom;
position = "{132, 0}";
},
{
name = top;
position = "{142, 448}";
}
);
background = {
anchors = (
{
name = bottom;
position = "{132, 0}";
},
{
name = top;
position = "{142, 448}";
}
);
paths = (
{
closed = 1;
nodes = (
"52 -176 LINE SMOOTH",
"137 -176 OFFCURVE",
"204 -141 OFFCURVE",
"204 -30 CURVE SMOOTH",
"204 448 LINE",
"82 448 LINE",
"82 -30 LINE SMOOTH",
"82 -83 OFFCURVE",
"58 -96 OFFCURVE",
"22 -96 CURVE SMOOTH",
"-23 -96 OFFCURVE",
"-60 -86 OFFCURVE",
"-60 -86 CURVE",
"-80 -146 LINE",
"-80 -160 OFFCURVE",
"-20 -176 OFFCURVE",
"39 -176 CURVE SMOOTH"
);
}
);
};
layerId = "083550D2-F2E8-44E3-BE3D-E8BDF41EDFC4";
paths = (
{
closed = 1;
nodes = (
"52 -176 LINE SMOOTH",
"137 -176 OFFCURVE",
"204 -141 OFFCURVE",
"204 -30 CURVE SMOOTH",
"204 448 LINE",
"82 448 LINE",
"82 -30 LINE SMOOTH",
"82 -83 OFFCURVE",
"58 -96 OFFCURVE",
"22 -96 CURVE SMOOTH",
"-11 -96 OFFCURVE",
"-44 -90 OFFCURVE",
"-60 -86 CURVE",
"-80 -146 LINE",
"-80 -160 OFFCURVE",
"-20 -176 OFFCURVE",
"39 -176 CURVE SMOOTH"
);
}
);
width = 264;
},
{
anchors = (
{
name = bottom;
position = "{132, 0}";
},
{
name = top;
position = "{192, 448}";
}
);
background = {
anchors = (
{
name = bottom;
position = "{132, 0}";
},
{
name = top;
position = "{192, 448}";
}
);
paths = (
{
closed = 1;
nodes = (
"95 -176 LINE SMOOTH",
"206 -176 OFFCURVE",
"287 -131 OFFCURVE",
"287 -10 CURVE SMOOTH",
"287 448 LINE",
"102 448 LINE",
"102 10 LINE SMOOTH",
"102 -43 OFFCURVE",
"78 -56 OFFCURVE",
"42 -56 CURVE SMOOTH",
"-3 -56 OFFCURVE",
"-40 -46 OFFCURVE",
"-40 -46 CURVE",
"-80 -136 LINE",
"-80 -150 OFFCURVE",
"-27 -176 OFFCURVE",
"59 -176 CURVE SMOOTH"
);
}
);
};
layerId = "C39E0A5F-5A43-41B0-A0DD-85C4534CF186";
paths = (
{
closed = 1;
nodes = (
"95 -176 LINE SMOOTH",
"206 -176 OFFCURVE",
"287 -131 OFFCURVE",
"287 -10 CURVE SMOOTH",
"287 448 LINE",
"102 448 LINE",
"102 10 LINE SMOOTH",
"102 -43 OFFCURVE",
"78 -56 OFFCURVE",
"42 -56 CURVE SMOOTH",
"9 -56 OFFCURVE",
"-24 -50 OFFCURVE",
"-40 -46 CURVE",
"-80 -136 LINE",
"-80 -150 OFFCURVE",
"-27 -176 OFFCURVE",
"59 -176 CURVE SMOOTH"
);
}
);
width = 347;
},
{
anchors = (
{
name = bottom;
position = "{122, 0}";
},
{
name = top;
position = "{122, 448}";
}
);
associatedMasterId = "083550D2-F2E8-44E3-BE3D-E8BDF41EDFC4";
layerId = "73A46DDA-2723-4CA9-98D4-1BCC5D1C0CFE";
paths = (
{
closed = 1;
nodes = (
"72 -30 LINE",
"72 -83 OFFCURVE",
"48 -96 OFFCURVE",
"12 -96 CURVE",
"-33 -96 OFFCURVE",
"-70 -86 OFFCURVE",
"-70 -86 CURVE",
"-90 -146 LINE",
"-90 -160 OFFCURVE",
"-30 -176 OFFCURVE",
"29 -176 CURVE",
"42 -176 LINE",
"127 -176 OFFCURVE",
"194 -141 OFFCURVE",
"194 -30 CURVE",
"194 70 OFFCURVE",
"194 448 OFFCURVE",
"194 448 CURVE",
"72 448 LINE"
);
}
);
width = 254;
}
);
leftKerningGroup = jdotless;
leftMetricsKey = j;
rightKerningGroup = jdotless;
rightMetricsKey = j;
unicode = 0237;
},
